{"glyphs":{"0":{"ha":625,"x_min":61,"x_max":563,"o":"m 67 1347 q 88 1396 71 1378 q 182 1438 125 1433 q 209 1440 196 1440 q 236 1440 222 1440 q 283 1441 260 1440 q 331 1442 307 1442 q 378 1441 354 1442 q 426 1439 403 1440 q 444 1437 435 1438 q 461 1435 453 1436 q 537 1394 511 1422 q 563 1313 563 1365 l 563 146 q 534 50 563 88 q 447 1 506 13 q 440 1 443 1 q 432 0 436 0 l 208 0 q 166 10 185 3 q 126 31 147 17 q 85 75 103 49 q 64 132 68 101 q 61 438 61 286 q 61 740 61 589 q 63 1044 63 893 q 67 1347 64 1194 m 197 1289 l 197 169 q 212 114 197 138 q 258 79 226 90 q 285 72 269 78 q 301 74 299 72 q 304 88 304 79 l 304 736 q 275 774 275 743 q 304 811 275 803 l 304 864 q 275 901 275 872 q 304 938 275 929 l 304 1372 q 298 1383 303 1382 q 285 1385 293 1385 q 222 1357 244 1382 q 197 1289 197 1332 m 326 865 l 326 810 q 354 774 354 801 q 326 736 354 747 l 326 85 q 336 75 326 75 l 340 75 q 406 111 378 83 q 429 176 432 138 l 429 1297 q 375 1375 429 1353 q 342 1385 360 1382 q 333 1386 339 1386 q 326 1382 329 1386 l 326 938 q 354 901 354 929 q 326 865 354 872 z "},"1":{"ha":390,"x_min":28,"x_max":339,"o":"m 42 1289 q 87 1315 69 1300 q 122 1354 104 1331 q 147 1422 146 1390 q 169 1440 147 1440 l 226 1440 q 256 1441 242 1440 q 285 1443 269 1442 q 301 1440 299 1443 l 310 1440 l 310 938 q 339 901 339 933 q 310 864 339 872 l 310 811 q 339 774 339 803 q 310 736 339 743 l 310 0 l 72 0 q 71 1 72 1 q 71 8 68 6 q 75 12 74 11 q 79 15 76 13 q 108 111 108 57 l 108 1199 q 88 1232 108 1224 q 36 1269 58 1242 q 42 1289 28 1285 m 243 1326 l 243 94 q 256 50 243 67 q 286 14 265 35 q 289 26 289 22 l 286 736 q 261 774 261 747 q 286 810 261 801 l 286 865 q 261 901 261 872 q 286 938 261 929 l 286 1424 q 276 1428 282 1428 q 269 1425 272 1428 q 263 1415 268 1421 q 247 1372 251 1393 q 243 1326 243 1350 z "},"2":{"ha":683,"x_min":19,"x_max":681,"o":"m 19 4 l 38 19 q 64 81 64 46 q 64 171 61 125 q 64 217 64 194 q 63 261 64 239 q 87 356 63 311 q 144 436 111 400 l 196 488 q 238 525 215 507 q 283 560 260 543 q 319 583 301 571 q 357 606 338 594 q 369 619 368 613 q 371 629 371 624 l 371 704 q 369 769 369 733 q 369 849 369 806 q 349 861 360 850 q 340 882 340 872 q 369 921 340 911 l 369 975 q 340 1011 340 982 q 369 1047 340 1039 l 369 1372 q 361 1375 367 1375 q 342 1374 351 1375 q 322 1372 332 1374 q 304 1371 313 1372 q 286 1367 296 1369 q 219 1322 243 1351 q 196 1247 196 1293 l 196 1214 q 197 1205 197 1210 q 196 1196 196 1200 q 193 1181 196 1192 q 92 1083 185 1096 l 67 1083 q 63 1111 63 1088 l 63 1224 q 63 1280 63 1251 q 64 1338 63 1308 q 28 1425 64 1389 q 22 1432 25 1431 q 19 1439 19 1432 l 681 1439 q 650 1407 665 1426 q 638 1389 643 1397 q 628 1369 632 1381 q 610 1293 610 1333 l 614 706 q 567 599 621 644 q 544 582 556 590 q 522 565 533 574 q 472 538 496 549 l 407 503 q 393 482 393 497 l 393 128 q 400 122 393 122 l 456 122 l 511 122 q 564 144 546 126 q 606 196 586 161 q 610 185 610 194 l 610 15 q 597 0 610 3 l 26 0 q 19 4 22 0 m 392 640 q 393 635 392 636 q 396 631 393 633 q 444 681 428 647 q 471 746 461 714 q 476 810 476 774 q 478 924 478 868 q 479 1038 479 981 l 479 1267 q 406 1367 475 1342 q 397 1369 400 1369 q 393 1368 394 1369 l 393 1047 q 422 1011 422 1042 q 393 975 422 982 l 393 921 q 422 882 422 911 q 393 846 422 857 l 393 649 q 392 640 393 643 m 196 283 q 196 213 199 249 l 196 140 q 199 125 196 129 q 208 122 201 122 l 214 122 l 351 122 l 358 122 q 371 140 371 125 q 369 180 369 160 q 369 221 369 200 l 369 383 q 369 424 369 403 q 371 467 369 444 q 369 475 371 474 q 365 478 369 478 q 337 463 357 478 q 294 428 317 449 q 251 390 271 408 q 225 363 232 371 q 196 283 196 328 z "},"3":{"ha":647,"x_min":1,"x_max":636,"o":"m 1 1439 l 636 1439 q 597 1394 610 1422 q 581 1335 583 1367 q 578 1317 579 1326 q 578 1299 578 1308 l 578 969 q 551 963 575 967 q 428 919 481 954 q 343 821 375 883 q 346 800 338 813 q 490 688 386 708 q 518 682 504 683 q 547 681 532 681 l 564 681 q 578 668 578 681 l 578 122 q 540 35 578 68 q 450 0 501 3 l 261 0 q 238 1 250 1 q 215 1 226 1 l 168 1 q 89 35 118 6 q 55 98 64 64 q 46 169 46 132 l 46 433 q 50 451 46 450 q 55 451 51 451 q 65 449 58 451 q 138 403 106 440 q 175 326 169 367 q 178 276 179 299 q 182 226 178 251 q 202 144 186 182 q 264 92 218 107 q 279 104 279 92 l 279 292 q 247 331 247 303 q 279 367 247 358 l 279 419 q 247 457 247 428 q 279 494 247 486 l 279 743 q 264 719 271 733 q 256 699 260 707 q 246 653 246 675 l 246 603 q 185 690 200 638 q 201 815 171 757 q 229 861 211 839 q 247 883 238 872 q 265 904 256 893 q 279 936 279 917 q 276 1048 276 993 q 278 1156 276 1103 q 281 1264 281 1208 q 281 1378 281 1319 q 272 1390 281 1390 q 265 1389 268 1390 q 211 1363 238 1382 q 183 1328 192 1351 q 175 1282 175 1304 l 175 1251 q 151 1192 175 1215 q 92 1165 126 1169 q 84 1165 88 1165 q 76 1164 81 1164 q 64 1163 72 1163 q 57 1161 61 1161 q 43 1181 43 1161 q 43 1274 44 1228 q 43 1321 43 1297 q 44 1368 43 1344 q 10 1432 44 1407 l 3 1435 l 1 1439 m 313 88 q 383 104 357 88 q 424 147 410 121 q 442 208 438 174 q 447 276 447 242 q 449 353 449 315 q 449 429 449 392 q 449 585 446 507 q 433 619 449 608 q 400 644 417 632 q 368 671 383 657 q 335 697 353 683 q 300 724 318 710 l 300 493 q 326 457 326 483 q 300 419 326 429 l 300 367 q 326 331 326 357 q 300 293 326 303 l 300 97 q 313 88 300 88 m 299 1128 q 299 1051 299 1093 q 300 956 299 1008 l 300 949 q 300 946 300 949 q 303 942 300 944 q 310 943 306 940 l 317 950 q 374 988 344 971 q 438 1013 404 1004 q 449 1031 449 1019 q 449 1160 447 1096 q 449 1224 449 1192 q 447 1292 449 1257 q 435 1336 447 1317 q 405 1368 424 1356 q 363 1387 386 1381 q 318 1393 340 1393 q 304 1389 307 1393 q 300 1374 300 1385 l 300 1317 q 299 1283 299 1301 q 299 1242 299 1265 l 299 1128 z "},"4":{"ha":682,"x_min":40,"x_max":644,"o":"m 40 704 l 40 1422 q 43 1439 40 1436 q 45 1440 44 1439 q 49 1440 46 1440 q 63 1438 49 1440 q 112 1403 92 1428 q 144 1349 132 1379 q 163 1285 157 1318 q 169 1224 169 1253 q 173 1103 172 1163 q 172 985 174 1044 q 172 867 172 926 q 174 746 172 807 q 206 660 174 686 q 293 633 238 633 q 335 638 314 633 q 349 654 349 639 l 349 1063 q 318 1100 318 1068 q 349 1136 318 1131 l 349 1189 q 318 1226 318 1194 q 349 1263 318 1257 l 349 1440 l 371 1440 l 371 1263 q 399 1226 399 1254 q 371 1189 399 1196 l 371 1136 q 399 1100 399 1125 q 371 1063 399 1069 l 371 929 q 372 918 371 919 q 385 921 375 915 q 413 928 399 928 q 438 922 426 928 q 441 922 440 922 q 443 921 442 921 q 451 931 451 921 l 451 1324 q 410 1429 451 1383 q 404 1439 403 1433 q 414 1440 406 1440 l 629 1440 q 635 1439 631 1439 q 593 1383 603 1415 q 583 1313 583 1350 l 583 122 q 597 52 583 83 q 644 0 611 21 l 404 0 q 440 49 428 19 q 451 110 451 79 l 451 564 q 417 540 432 549 q 378 525 401 532 q 371 518 371 525 l 371 0 l 349 0 l 349 493 q 346 515 349 513 l 344 517 l 340 517 q 324 514 338 517 q 247 510 285 510 q 94 557 147 510 q 40 704 40 604 m 371 879 l 371 669 q 375 654 371 657 q 382 654 379 651 q 390 660 385 657 q 439 726 425 686 q 444 810 456 767 q 425 854 439 835 q 390 889 415 872 q 374 896 375 897 q 371 879 371 893 z "},"5":{"ha":632,"x_min":18,"x_max":622,"o":"m 18 1439 l 622 1439 q 617 1432 619 1432 q 608 1425 614 1431 q 542 1346 557 1390 q 536 1242 525 1303 q 565 1186 542 1214 q 561 1171 576 1174 q 528 1164 547 1164 q 489 1175 506 1164 q 446 1239 454 1196 q 442 1264 442 1251 l 442 1288 q 371 1375 442 1358 q 338 1381 356 1381 q 303 1375 319 1381 q 290 1358 288 1372 q 292 1255 292 1306 q 292 1156 292 1204 l 292 951 q 297 936 292 938 l 311 936 q 332 938 322 938 q 353 939 342 939 q 435 931 394 939 q 506 902 475 922 q 557 850 538 882 q 578 771 576 818 q 578 598 578 683 q 576 426 578 513 q 574 257 574 342 q 574 85 574 172 q 493 1 574 8 l 400 1 l 310 1 q 300 0 303 1 l 264 0 q 256 0 260 3 l 240 0 q 203 1 221 0 q 168 6 185 3 q 87 41 111 17 q 63 125 63 65 l 63 599 q 72 611 63 611 q 79 610 76 611 q 165 535 138 589 q 196 424 192 482 q 199 360 199 392 q 197 297 200 329 q 194 234 194 265 q 196 171 193 203 q 253 85 200 110 q 261 82 258 82 q 271 96 271 82 l 271 383 q 239 419 239 390 q 271 457 239 450 l 271 510 q 239 547 239 517 q 271 583 239 576 l 268 806 q 267 821 268 819 q 261 822 267 822 q 249 821 254 822 q 86 781 164 811 q 74 777 79 778 q 68 776 69 776 q 65 794 65 779 l 65 1354 q 26 1432 65 1401 l 18 1439 m 319 419 q 292 383 319 390 l 292 81 q 301 75 292 75 q 317 76 307 76 q 332 75 328 76 l 361 75 q 439 161 439 83 l 439 694 q 402 790 439 756 q 306 824 365 824 q 292 811 292 824 l 292 583 q 319 547 319 575 q 292 510 319 517 l 292 457 q 319 419 319 449 m 196 931 q 204 919 196 919 q 207 920 206 919 q 210 921 208 921 q 231 926 224 924 q 250 929 242 929 q 271 951 271 929 q 270 977 271 964 q 269 1004 269 990 q 268 1036 268 1018 q 268 1076 268 1054 l 268 1186 q 269 1259 268 1218 q 271 1349 269 1300 q 268 1360 271 1357 q 261 1361 264 1364 q 256 1357 258 1358 q 213 1309 226 1338 q 196 1246 199 1281 q 194 1167 194 1206 q 194 1089 194 1128 q 196 1010 196 1050 q 196 931 196 971 z "},"6":{"ha":646,"x_min":61,"x_max":624,"o":"m 61 306 l 61 1282 q 99 1408 61 1375 q 224 1440 138 1440 l 613 1440 q 617 1432 624 1440 q 585 1372 593 1407 q 579 1307 576 1343 q 579 1264 579 1285 q 578 1224 579 1243 q 578 1182 578 1203 q 579 1140 578 1161 q 561 1124 579 1124 q 446 1243 453 1131 l 446 1275 q 440 1307 443 1294 q 353 1374 419 1369 q 341 1374 346 1374 q 331 1375 336 1375 q 319 1376 326 1376 q 307 1375 311 1376 q 292 1357 292 1375 q 292 1309 292 1333 q 293 1261 292 1285 q 294 1215 293 1238 q 294 1168 294 1192 l 294 975 q 297 956 294 957 l 299 956 q 301 954 299 954 q 315 957 301 954 q 355 964 335 963 q 396 965 375 965 q 446 956 424 963 q 542 888 506 929 q 578 776 578 846 q 578 136 581 456 q 556 43 578 83 q 474 0 535 3 l 368 0 q 340 1 353 0 q 311 1 326 1 q 303 0 304 1 l 265 0 q 257 1 263 1 l 204 1 q 108 24 149 1 q 65 107 68 46 q 65 120 65 114 q 64 135 65 126 q 63 158 64 143 q 63 192 63 172 q 61 240 61 211 q 61 306 61 269 m 294 590 q 325 553 325 585 q 294 517 325 522 l 294 464 q 325 426 325 458 q 294 389 325 393 l 294 81 q 310 65 294 65 q 324 67 317 67 q 339 67 332 67 q 415 90 393 67 q 446 161 438 113 l 446 597 q 435 624 446 610 q 388 679 406 646 q 397 696 378 696 q 442 713 419 700 q 444 714 443 714 q 446 715 444 714 q 469 746 465 725 q 446 829 474 799 q 404 858 428 847 q 354 868 381 868 q 338 867 349 868 q 318 864 328 867 q 301 857 308 861 q 294 844 294 853 l 294 590 m 197 403 q 198 297 197 356 q 199 167 199 238 q 209 109 199 133 q 253 72 219 85 q 264 70 260 71 q 269 69 268 69 q 272 86 272 72 l 272 389 q 247 426 247 400 q 272 463 247 453 l 272 518 q 247 553 247 529 q 272 589 247 579 l 272 833 q 268 843 272 843 q 256 837 264 843 q 238 823 247 831 q 222 808 229 815 q 213 796 215 800 q 196 735 196 771 l 196 558 q 196 488 196 526 q 197 403 196 450 m 200 910 l 258 938 q 272 960 272 943 q 272 1053 271 1006 l 272 1204 q 273 1279 272 1242 q 274 1354 274 1317 q 267 1367 274 1367 q 240 1357 253 1367 q 219 1333 228 1347 q 206 1301 211 1318 q 200 1272 201 1285 q 199 1251 199 1261 q 199 1229 199 1240 q 199 925 194 1078 q 198 921 199 922 q 197 917 197 919 q 200 910 196 914 z "},"7":{"ha":817,"x_min":-18,"x_max":749,"o":"m -18 1435 q 0 1440 -14 1440 l 736 1440 l 744 1438 q 746 1432 749 1435 q 740 1428 743 1432 q 688 1375 711 1404 q 641 1302 657 1343 q 614 1218 625 1261 q 535 944 574 1079 q 458 671 497 808 q 380 399 419 535 q 300 125 340 263 q 303 63 292 86 q 343 11 313 38 q 350 7 347 7 q 356 0 354 6 l 31 0 q 33 6 29 3 q 40 11 36 7 q 99 72 75 39 q 135 147 122 104 q 149 199 142 174 q 163 251 156 225 q 178 303 169 278 q 193 356 186 329 q 197 371 197 364 l 197 874 q 168 910 168 878 q 197 947 168 943 l 197 1000 q 168 1038 168 1004 q 197 1075 168 1069 l 197 1357 q 175 1346 183 1357 q 163 1319 167 1335 q 158 1288 158 1304 q 157 1261 157 1272 q 125 1169 157 1210 q 44 1115 93 1129 q 31 1113 32 1111 q 26 1131 26 1115 l 26 1232 q 26 1333 25 1283 q -12 1429 26 1392 l -18 1435 m 221 875 l 221 453 l 222 453 l 465 1269 q 453 1339 474 1317 q 386 1363 432 1363 l 238 1363 q 221 1357 224 1363 l 221 1075 q 238 1060 232 1069 q 246 1038 246 1050 q 238 1015 246 1024 q 221 1001 233 1007 l 221 946 q 238 932 233 940 q 246 910 246 924 q 221 875 246 883 z "},"8":{"ha":628,"x_min":19,"x_max":569,"o":"m 19 1438 q 28 1440 22 1440 l 457 1440 q 470 1438 464 1439 q 483 1435 476 1438 q 549 1378 533 1424 q 564 1317 563 1344 q 567 1285 565 1301 q 569 1253 568 1269 l 569 1001 q 546 888 569 943 q 461 814 522 833 q 467 810 463 811 q 474 808 471 808 q 539 751 518 785 q 565 669 563 719 q 569 536 568 603 q 569 403 569 469 q 569 136 567 271 q 548 48 569 89 q 475 0 526 7 l 153 0 q 83 50 107 6 q 69 104 72 78 q 67 160 67 131 q 67 610 63 383 q 67 631 67 621 q 68 651 67 640 q 72 693 68 672 q 108 767 85 740 q 178 811 132 794 q 122 845 144 824 q 88 895 100 867 q 69 956 75 924 q 64 1019 64 988 l 64 1324 q 63 1356 64 1340 q 57 1386 61 1371 q 19 1438 50 1417 m 322 458 l 322 404 q 350 368 350 396 q 322 331 350 339 l 322 69 q 336 57 322 57 q 404 79 371 58 q 433 150 436 100 l 436 650 q 435 673 436 661 q 431 696 433 685 q 394 739 418 731 q 338 750 368 746 q 322 740 324 750 l 322 532 q 350 494 350 521 q 322 458 350 465 m 200 153 q 225 84 200 113 q 293 56 250 56 q 299 57 297 56 q 301 75 301 60 l 301 331 q 272 368 272 339 q 301 404 272 396 l 301 458 q 272 494 272 465 q 301 532 272 526 l 301 736 q 288 749 301 749 q 225 719 250 744 q 200 654 200 693 l 200 153 m 322 881 q 340 864 322 864 q 411 903 386 867 q 436 982 436 939 q 436 1288 438 1133 q 407 1354 436 1333 q 336 1375 378 1375 q 321 1358 321 1375 l 322 881 m 200 1278 l 203 963 q 229 896 211 915 q 279 867 246 875 q 299 865 286 865 q 301 882 301 868 l 303 1357 q 300 1372 303 1369 q 293 1375 297 1375 q 288 1374 290 1375 q 283 1374 286 1374 q 200 1278 200 1361 z "},"9":{"ha":626,"x_min":25,"x_max":567,"o":"m 564 201 q 556 99 567 149 q 490 24 544 47 q 444 10 472 14 q 419 6 432 7 q 394 4 407 6 q 369 1 381 1 q 343 1 358 1 q 336 0 339 1 l 304 0 q 294 1 301 1 l 240 1 q 212 2 225 1 q 185 4 199 3 q 131 23 151 7 q 93 67 110 39 q 75 122 81 93 q 69 181 69 151 q 69 346 67 263 l 69 510 q 70 518 69 513 q 75 524 71 524 q 83 518 79 524 q 153 451 126 492 q 192 364 176 410 q 196 345 194 354 q 199 326 197 336 q 201 307 200 317 q 203 288 201 297 l 203 214 q 213 144 203 175 q 241 94 221 108 q 297 79 261 79 q 311 90 311 79 q 310 96 308 94 q 310 98 310 97 q 311 101 311 99 l 311 685 q 307 706 311 701 q 288 708 301 708 q 231 715 258 711 q 175 729 203 718 q 69 889 69 778 q 69 1301 68 1093 q 29 1428 69 1375 q 25 1438 25 1435 q 36 1440 28 1440 l 424 1440 l 450 1440 q 503 1431 481 1440 q 542 1394 525 1422 q 549 1377 546 1386 q 554 1360 553 1368 l 563 1322 q 564 1306 564 1314 q 564 1290 564 1299 l 564 201 m 308 1369 q 297 1374 304 1374 q 231 1344 260 1369 q 203 1278 203 1318 l 203 876 q 235 819 200 840 q 248 810 242 814 q 261 804 254 807 l 290 796 l 297 796 q 306 797 304 796 q 308 814 308 800 l 308 1006 q 279 1043 279 1015 q 288 1067 279 1057 q 308 1081 299 1078 l 308 1132 q 279 1171 279 1140 q 288 1194 279 1185 q 308 1207 297 1203 l 308 1369 m 432 725 l 432 740 q 351 714 393 717 q 335 706 339 713 q 332 688 332 700 l 332 90 q 344 79 332 79 q 409 107 386 79 q 432 175 432 135 l 432 725 m 390 810 q 432 876 435 831 q 431 926 431 901 q 431 976 431 951 q 432 1026 432 1001 q 432 1076 432 1051 l 432 1282 q 408 1344 432 1325 q 344 1372 381 1363 q 338 1374 342 1374 q 332 1369 335 1374 l 332 1207 q 357 1171 357 1197 q 332 1133 357 1144 l 332 1078 q 357 1043 357 1069 q 332 1007 357 1018 l 332 808 q 340 794 332 794 q 342 795 342 794 q 344 796 343 796 q 390 810 374 800 z "},"\u0000":{"ha":0,"x_min":0,"x_max":0,"o":""},"\r":{"ha":0,"x_min":0,"x_max":0,"o":""}," ":{"ha":294,"x_min":0,"x_max":0,"o":""},"\n":{"ha":0,"x_min":0,"x_max":0,"o":""},"!":{"ha":289,"x_min":51,"x_max":239,"o":"m 82 293 l 51 1446 l 239 1446 l 206 293 l 82 293 m 138 200 q 197 174 174 200 q 219 113 219 147 q 197 51 219 76 q 138 26 174 26 q 78 51 100 26 q 57 113 57 76 q 79 174 57 149 q 138 200 101 200 z "},"\"":{"ha":428,"x_min":26,"x_max":400,"o":"m 194 1446 l 161 999 l 57 999 l 26 1446 l 194 1446 m 233 1446 l 400 1446 l 367 999 l 263 999 l 233 1446 z "},"#":{"ha":946,"x_min":33,"x_max":911,"o":"m 33 386 l 33 558 l 231 558 l 272 743 l 33 744 l 33 918 l 308 915 l 386 1278 l 547 1278 l 469 915 l 613 915 l 690 1278 l 850 1278 l 771 915 l 911 915 l 911 743 l 733 743 l 696 557 l 911 557 l 911 383 l 658 383 l 581 21 l 419 21 l 497 383 l 354 386 l 276 21 l 117 21 l 194 386 l 33 386 m 535 557 l 575 743 l 432 743 l 392 558 l 535 557 z "},"$":{"ha":668,"x_min":39,"x_max":628,"o":"m 50 215 q 68 226 61 217 q 83 258 81 239 q 88 274 88 267 l 88 538 q 93 543 88 543 q 107 544 101 543 q 122 543 117 544 q 182 506 163 539 q 189 485 188 492 q 194 460 192 476 q 197 478 196 469 q 197 494 197 486 q 183 533 197 513 q 154 563 168 553 q 128 571 144 571 q 97 564 115 571 q 90 564 94 560 q 89 568 88 567 q 93 569 90 569 q 124 579 107 579 q 143 576 132 579 q 183 550 169 568 q 203 506 196 532 q 201 456 210 478 l 201 449 q 238 460 219 460 q 263 456 250 460 l 274 450 l 274 790 q 206 811 238 804 q 162 808 181 811 q 121 792 143 806 q 97 777 110 786 q 81 754 85 768 q 88 700 64 722 q 107 688 99 692 q 114 681 114 681 q 113 678 117 678 q 104 675 110 675 q 101 676 103 676 q 97 678 100 676 q 88 683 92 681 q 58 725 63 699 q 81 781 56 754 q 88 786 85 785 q 174 818 119 814 q 159 822 167 821 q 143 825 151 824 q 127 828 135 828 q 113 832 119 829 q 93 839 94 838 q 88 857 88 840 l 88 1151 q 86 1167 88 1163 q 70 1197 86 1185 q 39 1213 54 1210 q 90 1239 60 1235 q 153 1210 126 1239 q 158 1214 154 1210 q 228 1236 182 1236 l 274 1236 l 274 1440 l 386 1440 l 386 1236 l 446 1236 q 504 1215 483 1236 l 507 1213 q 563 1238 532 1238 q 576 1236 572 1238 q 628 1224 607 1236 l 610 1219 q 579 1189 579 1214 l 579 978 q 576 967 579 968 q 565 965 575 965 q 521 981 535 969 q 493 1014 504 994 q 489 1029 489 1022 q 485 1047 486 1040 q 475 1044 481 1047 q 445 1033 468 1038 q 413 1029 422 1029 q 386 1032 403 1029 l 386 863 l 463 821 q 472 817 468 818 q 478 814 475 815 l 492 807 q 528 799 508 801 q 567 807 549 799 q 599 843 603 822 q 579 879 596 867 q 536 896 563 896 q 528 900 528 896 q 536 903 528 903 q 546 904 539 904 l 550 904 q 606 868 592 897 q 611 850 608 861 q 610 832 614 842 q 583 799 603 810 q 542 789 564 789 q 532 790 535 789 l 508 790 l 550 761 q 569 751 560 756 q 586 743 578 746 q 628 732 604 733 q 621 724 628 728 q 578 656 578 699 l 578 272 q 622 194 578 221 q 624 192 624 194 q 617 190 621 190 q 610 192 614 192 l 386 192 l 386 21 l 274 21 l 274 192 l 211 192 q 156 206 178 192 q 151 208 153 208 q 147 208 149 208 q 143 207 146 207 q 133 200 143 207 l 121 196 q 83 190 104 190 q 51 201 64 193 q 43 206 46 206 l 42 207 q 39 211 39 208 q 50 215 42 215 m 401 344 q 410 348 406 347 q 421 351 415 349 q 431 354 432 354 q 431 357 431 356 q 432 361 432 358 l 432 646 q 419 694 432 674 q 386 733 406 714 l 386 335 q 401 344 394 343 m 239 924 l 239 915 q 246 908 239 908 l 274 903 l 274 1185 q 239 1133 239 1168 q 240 1081 240 1107 q 240 1029 240 1056 q 239 976 239 1001 q 239 924 239 950 m 501 486 q 501 469 501 481 q 499 438 500 457 l 499 251 q 500 246 499 247 q 501 242 501 244 q 506 239 501 239 q 508 242 508 239 l 508 247 q 509 303 508 275 q 510 363 510 332 q 511 422 511 393 q 511 479 511 451 q 510 481 511 481 q 510 482 510 481 q 510 483 510 482 q 511 486 511 485 q 531 497 522 489 q 540 515 540 504 q 532 533 540 525 q 511 542 524 540 l 511 703 q 510 707 511 706 q 509 713 510 708 q 507 717 508 717 q 504 713 504 717 q 501 706 500 708 l 501 542 q 474 515 474 538 q 501 486 474 490 m 238 288 q 244 258 238 267 q 274 244 250 249 l 274 435 q 240 394 251 429 q 238 372 238 389 l 238 288 m 386 1096 q 431 1118 417 1096 q 440 1158 444 1139 q 421 1182 433 1175 q 403 1189 413 1185 q 386 1194 397 1192 l 386 1096 m 386 242 l 389 242 q 408 243 399 242 q 424 254 417 244 q 433 285 436 269 q 388 324 428 317 l 386 324 l 386 242 m 153 872 q 156 874 156 872 q 158 883 158 876 l 158 1163 q 154 1169 158 1169 q 149 1164 149 1169 l 149 875 q 153 872 149 872 m 143 249 q 146 251 149 249 q 149 258 146 253 q 147 313 147 286 q 146 368 146 340 l 146 483 q 143 490 149 486 q 140 483 140 485 l 140 258 q 143 249 140 249 m 386 1043 q 402 1039 393 1040 q 418 1038 411 1038 q 461 1050 440 1038 q 449 1049 457 1049 q 431 1046 438 1046 q 407 1049 419 1046 q 386 1058 394 1051 l 386 1043 z "},"%":{"ha":665,"x_min":10,"x_max":596,"o":"m 556 271 q 596 167 596 226 q 557 67 596 110 q 460 25 518 25 q 364 67 400 25 q 328 167 328 110 q 363 269 328 225 q 460 314 399 314 q 556 271 515 314 m 517 108 q 539 165 539 132 q 517 226 539 200 q 460 251 496 251 q 405 224 426 251 q 383 165 383 197 q 406 109 383 135 q 460 83 428 83 q 517 108 494 83 m 518 1347 l 233 21 l 74 21 l 357 1347 l 518 1347 m 239 1096 q 142 1054 200 1054 q 46 1097 82 1054 q 10 1197 10 1139 q 45 1299 10 1256 q 142 1343 81 1343 q 240 1299 203 1343 q 278 1197 278 1256 q 239 1096 278 1136 m 142 1113 q 199 1138 175 1113 q 222 1194 222 1163 q 200 1255 222 1229 q 142 1281 178 1281 q 87 1253 107 1281 q 67 1194 67 1226 q 88 1138 67 1164 q 142 1113 110 1113 z "},"&":{"ha":949,"x_min":31,"x_max":878,"o":"m 803 186 q 822 185 810 185 q 878 197 851 185 q 793 124 838 146 q 753 107 772 110 q 711 104 735 104 q 622 164 665 104 q 574 111 603 135 q 510 71 544 88 q 438 45 475 54 q 365 36 400 36 q 307 40 339 36 q 217 65 254 44 q 166 97 186 79 q 124 136 146 114 q 113 151 118 143 q 101 165 107 158 q 55 274 69 218 q 35 392 40 331 q 43 536 31 463 q 97 667 61 608 q 201 761 132 726 q 167 824 183 789 q 138 916 147 872 q 128 1013 128 960 q 167 1151 128 1082 q 188 1181 176 1167 q 215 1208 200 1194 q 245 1227 228 1218 q 283 1247 263 1236 q 392 1265 325 1265 q 466 1252 439 1265 q 529 1215 493 1239 q 594 1141 565 1183 q 626 1050 622 1099 q 627 1021 628 1036 q 624 986 626 1006 q 594 892 619 935 q 532 815 569 849 q 449 756 494 781 q 358 717 404 732 q 377 681 368 697 q 394 647 386 664 q 413 614 404 631 q 432 579 422 597 q 449 551 440 565 q 465 522 457 538 q 483 491 475 507 q 503 460 492 475 q 578 346 535 401 q 616 446 593 399 q 675 533 639 493 q 719 558 700 554 q 744 563 732 563 q 792 551 768 563 q 835 526 815 540 q 815 513 824 519 q 799 497 807 506 q 716 391 750 454 q 671 264 682 328 q 731 215 700 235 q 803 186 763 196 m 254 1075 q 249 1003 243 1040 q 274 915 251 968 q 297 911 285 911 l 307 911 q 332 926 314 913 q 343 942 338 933 q 353 967 349 951 q 367 918 367 940 q 354 878 367 899 q 307 843 344 857 l 321 803 q 421 849 379 822 q 499 926 463 876 q 524 1032 531 968 q 497 1118 519 1082 q 444 1167 471 1153 q 385 1179 419 1179 q 332 1167 351 1179 q 283 1128 304 1151 q 254 1075 263 1106 m 464 190 q 521 249 494 210 l 469 311 q 424 268 447 282 q 372 257 401 257 q 308 290 342 257 q 372 319 347 303 q 406 353 397 335 q 399 404 417 376 l 263 672 q 233 653 243 663 l 206 625 q 162 540 174 585 q 147 446 150 496 q 155 347 147 392 q 190 253 163 301 q 211 222 200 233 q 222 210 217 215 q 232 200 226 204 q 244 190 239 194 q 256 182 250 186 q 276 171 269 174 q 297 163 285 167 q 328 158 310 160 q 360 159 344 158 q 393 161 376 160 q 464 190 429 169 z "},"'":{"ha":221,"x_min":26,"x_max":194,"o":"m 194 1446 l 161 999 l 57 999 l 26 1446 l 194 1446 z "},"(":{"ha":547,"x_min":39,"x_max":476,"o":"m 229 233 q 327 6 268 115 q 471 -194 386 -103 q 445 -228 457 -212 q 424 -257 433 -243 q 390 -299 406 -281 q 376 -314 376 -317 q 194 -92 265 -222 q 83 172 124 38 q 39 507 39 321 q 61 733 39 621 q 126 949 83 844 q 233 1147 169 1053 q 378 1319 296 1240 l 476 1210 q 331 1019 389 1118 q 231 803 274 921 q 186 531 186 682 q 229 233 186 363 z "},")":{"ha":547,"x_min":69,"x_max":507,"o":"m 482 749 q 507 507 507 639 q 472 208 507 356 q 361 -74 438 60 q 276 -203 325 -140 q 169 -314 228 -265 q 156 -299 169 -317 q 140 -278 147 -289 q 122 -257 132 -268 q 100 -228 111 -243 q 75 -194 89 -212 q 217 7 160 -101 q 315 233 275 115 q 361 531 361 365 q 339 716 361 624 q 278 895 317 808 q 185 1062 239 982 q 69 1210 132 1142 l 168 1319 q 367 1058 286 1207 q 482 749 449 908 z "},"*":{"ha":568,"x_min":28,"x_max":540,"o":"m 28 1226 l 150 1226 l 63 1318 l 138 1401 l 229 1306 l 229 1443 l 336 1443 l 336 1311 l 424 1407 l 499 1326 l 411 1226 l 540 1226 l 540 1111 l 417 1111 l 506 1018 l 431 936 l 336 1033 l 336 893 l 229 893 l 229 1025 l 144 931 l 67 1011 l 157 1111 l 28 1111 l 28 1226 z "},"+":{"ha":574,"x_min":26,"x_max":547,"o":"m 196 657 l 196 842 l 374 842 l 374 657 l 547 657 l 547 465 l 374 465 l 374 281 l 196 281 l 196 465 l 26 465 l 26 657 l 196 657 z "},",":{"ha":175,"x_min":-15,"x_max":156,"o":"m 156 135 l 146 -15 l 85 -140 l -15 -140 l 26 -21 l 18 135 l 156 135 z "},"-":{"ha":568,"x_min":24,"x_max":544,"o":"m 24 465 l 24 657 l 544 657 l 544 465 l 24 465 z "},".":{"ha":193,"x_min":19,"x_max":174,"o":"m 150 158 q 174 99 174 132 q 151 42 174 67 q 96 17 129 17 q 40 42 61 17 q 19 99 19 67 q 40 157 19 132 q 96 182 61 182 q 150 158 126 182 z "},"/":{"ha":583,"x_min":69,"x_max":514,"o":"m 514 1347 l 231 21 l 69 21 l 354 1347 l 514 1347 z "},":":{"ha":261,"x_min":31,"x_max":231,"o":"m 129 672 q 58 706 86 672 q 31 779 31 739 q 58 853 31 819 q 129 888 86 888 q 201 853 172 888 q 231 779 231 819 q 201 705 231 738 q 129 672 172 672 m 129 232 q 201 199 172 232 q 231 124 231 165 q 201 49 231 82 q 129 17 172 17 q 58 50 86 17 q 31 124 31 83 q 58 198 31 164 q 129 232 86 232 z "},";":{"ha":264,"x_min":-12,"x_max":235,"o":"m 135 672 q 63 705 90 672 q 35 779 35 738 q 63 854 35 821 q 135 888 92 888 q 204 854 175 888 q 235 779 235 824 q 206 706 235 739 q 135 672 178 672 m 32 224 l 214 224 l 200 26 l 119 -137 l -12 -137 l 44 21 l 32 224 z "},"<":{"ha":632,"x_min":69,"x_max":608,"o":"m 382 588 l 601 325 l 447 140 l 69 581 l 69 588 l 447 1028 l 608 842 l 382 588 z "},"=":{"ha":751,"x_min":32,"x_max":718,"o":"m 32 351 l 32 543 l 718 543 l 718 351 l 32 351 m 718 857 l 718 665 l 32 665 l 32 857 l 718 857 z "},">":{"ha":632,"x_min":24,"x_max":563,"o":"m 563 585 l 563 579 l 185 139 l 24 325 l 250 579 l 31 842 l 185 1025 l 563 585 z "},"?":{"ha":754,"x_min":7,"x_max":685,"o":"m 249 161 q 311 132 288 161 q 335 67 335 103 q 310 2 335 31 q 249 -26 286 -26 q 185 1 210 -26 q 161 67 161 29 q 185 133 161 104 q 249 161 210 161 m 654 1301 q 685 1183 685 1249 q 683 1154 683 1168 q 683 1126 683 1140 q 683 1101 683 1113 q 681 1079 682 1090 q 679 1065 681 1072 q 675 1050 678 1057 q 669 1033 672 1042 q 664 1014 667 1024 q 654 995 658 1004 q 644 978 650 986 q 635 959 640 968 q 624 940 629 950 q 610 922 617 931 q 597 903 604 913 q 583 885 590 894 q 568 868 576 876 q 553 851 561 860 q 539 836 546 843 q 523 823 531 829 q 508 811 515 817 q 467 775 485 796 q 431 743 450 756 q 301 601 346 685 q 250 418 257 518 q 248 366 249 390 q 249 319 247 342 q 251 280 250 297 q 254 249 251 263 q 253 218 258 224 q 175 203 217 203 q 143 363 149 285 q 146 519 135 431 q 174 631 154 575 q 229 731 194 686 q 245 747 238 739 q 261 764 253 756 q 338 822 300 799 q 356 837 347 829 q 376 851 365 844 q 395 866 386 858 q 413 882 404 874 q 490 979 465 929 q 526 1097 515 1029 q 521 1213 533 1157 q 504 1264 521 1242 q 468 1306 488 1286 q 417 1333 444 1321 q 367 1343 388 1343 q 348 1344 357 1344 q 329 1344 339 1344 q 262 1337 299 1344 q 203 1307 225 1329 q 169 1263 182 1293 q 158 1214 160 1235 q 172 1128 154 1160 q 192 1101 181 1115 q 217 1079 204 1088 q 285 1049 244 1057 q 190 1033 228 1033 q 151 1038 171 1033 q 65 1071 100 1043 q 22 1122 38 1090 q 7 1185 7 1153 q 32 1304 7 1251 q 115 1392 57 1357 q 139 1406 126 1400 q 164 1417 151 1411 q 188 1424 175 1421 q 211 1431 200 1428 q 236 1434 224 1433 q 260 1438 249 1435 q 281 1440 271 1439 q 301 1440 292 1440 q 400 1435 350 1440 q 497 1415 450 1431 q 585 1373 544 1400 q 654 1301 626 1346 z "},"@":{"ha":1126,"x_min":33,"x_max":1093,"o":"m 1085 689 q 1090 551 1093 618 q 1075 451 1086 506 q 1041 347 1064 397 q 983 259 1018 297 q 896 206 947 221 q 854 197 875 197 q 842 198 847 197 q 831 200 838 199 q 775 217 797 208 q 717 247 744 226 q 647 185 683 206 q 557 165 610 165 q 433 192 476 165 q 369 262 389 218 q 345 363 349 306 q 342 482 342 419 q 331 536 342 514 q 301 567 319 554 q 283 574 293 569 q 263 579 276 576 q 293 604 272 597 q 311 607 307 607 q 328 604 319 607 q 347 597 338 599 q 367 590 353 596 q 444 663 399 636 q 546 689 489 689 q 554 688 550 689 q 563 688 558 688 q 671 660 613 682 l 671 756 l 671 782 q 671 797 671 789 q 672 811 671 804 q 653 869 672 844 q 603 904 633 893 q 542 914 574 914 l 508 906 q 494 899 501 903 q 481 890 488 896 q 456 853 456 874 q 463 813 454 838 q 489 769 471 788 q 463 765 476 765 q 454 766 458 765 q 446 767 450 767 q 431 771 435 769 q 419 775 422 774 q 413 778 417 778 q 407 782 410 779 q 399 789 404 783 q 368 758 393 767 q 325 746 347 747 q 294 743 308 743 q 285 743 290 743 q 274 744 279 743 q 303 764 283 744 q 332 842 324 785 q 335 856 333 849 q 339 869 336 863 q 365 916 346 894 q 406 950 383 938 q 441 969 421 961 q 485 986 461 978 q 540 995 513 993 q 594 997 567 997 q 640 993 619 997 q 660 987 650 990 q 679 981 669 983 q 742 942 718 963 q 753 929 747 935 q 763 918 758 924 q 771 905 767 911 q 778 890 775 899 q 783 876 781 883 q 788 864 785 869 q 790 838 790 847 l 790 776 l 790 738 q 790 720 790 729 q 789 701 790 711 q 789 680 789 690 q 788 658 789 669 l 788 611 q 818 626 799 626 q 879 599 851 626 q 836 589 851 599 q 810 553 821 579 q 796 494 801 528 q 788 418 790 461 q 787 380 786 400 q 790 338 788 360 q 799 304 794 319 q 815 269 804 286 q 846 247 826 253 q 856 246 849 246 q 896 263 878 246 q 968 346 940 293 q 1010 449 996 399 q 1024 611 1028 519 q 987 794 1019 711 q 897 937 954 876 q 759 1031 840 997 q 578 1064 678 1064 q 394 1031 472 1064 q 260 940 315 999 q 174 800 206 881 q 128 624 142 719 q 124 577 125 600 q 122 531 122 554 q 138 389 122 458 q 185 259 153 319 q 269 151 218 199 q 390 76 319 104 q 524 36 460 46 q 553 33 539 33 q 583 29 568 32 q 613 27 599 28 q 640 26 626 26 q 668 28 656 28 q 693 32 681 29 q 742 42 721 35 q 869 95 810 61 q 976 182 929 129 q 938 61 997 122 q 863 11 906 31 q 774 -19 821 -8 q 678 -34 726 -31 q 588 -37 631 -37 q 459 -24 525 -37 q 332 18 393 -10 q 220 88 271 46 q 136 188 169 131 q 59 360 85 268 q 33 547 33 451 q 60 740 33 640 q 143 918 88 840 q 327 1089 214 1028 q 571 1150 440 1150 q 678 1139 622 1150 q 786 1106 733 1128 q 886 1053 839 1085 q 967 982 933 1022 q 1033 879 1007 932 q 1072 764 1058 826 q 1085 689 1083 729 m 678 510 l 678 546 q 665 585 678 564 q 628 610 653 600 q 582 618 611 618 q 560 617 568 618 q 510 610 525 617 q 467 578 482 594 q 450 531 453 563 q 446 494 446 510 q 444 476 444 485 q 443 456 444 467 l 443 419 q 443 403 443 411 q 444 388 443 394 q 445 367 444 376 q 446 350 446 358 q 448 332 447 340 q 450 315 449 324 q 465 288 454 299 q 496 264 476 275 q 547 249 515 251 q 568 247 554 247 q 603 254 586 247 q 642 285 629 268 q 656 304 651 294 q 664 325 660 313 q 667 336 665 331 q 668 347 668 342 q 670 357 669 353 q 672 367 671 361 l 672 389 q 672 402 672 396 q 674 417 672 408 q 674 431 674 424 q 675 446 674 439 q 676 460 675 453 q 676 475 676 468 q 677 492 676 483 q 678 510 678 500 z "},"A":{"ha":865,"x_min":-8,"x_max":849,"o":"m 57 1304 q 122 1206 88 1236 q 203 1175 156 1175 q 267 1188 240 1175 q 310 1224 293 1201 q 335 1276 326 1246 q 350 1339 344 1306 q 358 1347 350 1346 q 374 1349 365 1349 l 671 1349 q 753 1324 729 1347 q 781 1243 778 1301 q 781 1188 781 1240 q 781 1052 781 1136 q 780 862 781 968 q 779 646 779 756 q 779 432 779 536 q 779 249 779 328 q 792 181 779 208 q 849 140 806 154 q 786 73 817 106 q 726 7 756 40 q 634 62 668 18 q 600 206 600 106 l 600 625 l 467 625 l 467 -131 q 502 -146 483 -135 q 532 -178 521 -157 q 501 -215 514 -190 q 490 -269 488 -239 q 376 -231 439 -231 q 249 -278 306 -231 q 261 -228 249 -254 q 298 -181 274 -203 q 358 -144 322 -160 q 439 -126 393 -129 q 440 -49 439 -89 q 440 32 440 -8 q 387 -24 415 6 q 331 -82 358 -54 q 260 -6 294 -43 q 189 69 225 31 q 223 129 217 97 q 229 196 229 161 l 229 997 q 115 1051 165 1014 q 46 1151 65 1089 q 35 1226 33 1188 q 57 1304 38 1265 m 467 789 l 599 789 l 599 1247 q 578 1281 599 1269 q 532 1292 557 1292 q 487 1281 507 1292 q 467 1247 467 1269 l 467 789 m 204 1415 q 283 1385 251 1415 q 314 1310 314 1354 q 281 1233 313 1265 q 204 1203 249 1201 q 128 1237 160 1203 q 96 1317 96 1271 q 127 1385 97 1356 q 204 1415 157 1415 m 408 138 q 422 114 408 114 q 436 139 436 114 q 436 219 436 158 q 436 362 436 281 q 435 533 436 443 q 435 699 435 622 q 435 828 435 776 q 435 886 435 881 q 421 901 435 901 q 407 888 407 901 q 407 828 407 885 q 407 690 407 772 q 408 513 407 608 q 408 335 408 417 q 408 197 408 253 q 408 138 408 140 m 94 1165 q 180 1095 129 1113 q 293 1076 231 1078 q 293 1008 293 1072 q 293 851 293 944 q 292 647 293 757 q 292 441 292 538 q 292 274 292 344 q 292 190 292 204 q 301 179 292 179 q 310 192 310 179 q 311 642 310 415 q 313 1093 313 868 q 306 1100 313 1100 q 285 1097 294 1097 q 264 1097 275 1097 q 174 1114 217 1097 q 94 1165 131 1131 m 676 211 q 686 200 676 200 q 694 211 694 200 q 695 736 694 475 q 696 1263 696 997 q 686 1275 696 1275 q 678 1263 678 1275 q 678 1103 678 1200 q 678 897 678 1007 q 677 673 678 786 q 676 463 676 560 q 676 299 676 367 q 676 211 676 231 m 3 1224 q 59 1068 11 1133 q 200 985 107 1003 q 200 647 201 810 q 199 313 199 485 q 190 301 199 301 q 182 313 182 301 q 182 397 182 344 q 182 513 182 450 q 181 642 182 575 q 181 767 181 708 q 181 869 181 825 q 181 933 181 914 q 181 948 182 940 q 179 965 181 956 q 74 1024 118 986 q 6 1125 29 1063 q -6 1174 -4 1149 q 3 1224 -8 1199 m 410 1019 q 424 1003 410 1003 q 438 1018 438 1003 l 438 1260 q 422 1275 438 1275 q 410 1261 410 1275 l 410 1019 m 421 929 q 438 935 431 929 q 444 953 444 942 q 438 970 444 964 q 421 976 431 976 q 396 953 396 976 q 421 929 396 929 m 147 1263 q 192 1382 125 1349 q 153 1373 169 1382 q 128 1343 136 1364 q 125 1302 121 1326 q 147 1263 129 1278 m 182 169 q 189 171 185 171 q 208 158 203 171 q 197 132 215 140 q 190 131 194 131 q 171 143 176 131 q 172 158 168 150 q 182 169 175 167 m 182 279 q 189 281 185 281 q 208 268 203 281 q 208 253 211 261 q 197 242 204 244 q 190 240 194 240 q 171 253 176 240 q 172 268 168 260 q 182 279 175 276 m 188 225 q 208 207 208 228 q 190 186 211 186 q 169 204 169 183 q 188 225 167 225 z "},"B":{"ha":840,"x_min":-7,"x_max":814,"o":"m 56 1304 q 120 1206 86 1236 q 200 1175 154 1175 q 265 1188 239 1175 q 307 1224 290 1201 q 333 1276 324 1246 q 347 1339 342 1306 q 356 1347 347 1346 q 371 1349 364 1349 l 679 1349 q 745 1325 724 1346 q 769 1260 767 1304 q 770 1208 771 1233 q 769 1156 769 1182 l 769 1081 q 747 1062 756 1074 q 728 1039 738 1050 l 733 1039 q 746 1040 740 1039 q 758 1042 753 1042 q 769 1043 764 1043 q 794 1034 785 1043 q 814 1004 804 1025 q 805 996 811 997 q 792 992 799 994 q 756 972 768 985 q 683 899 715 939 q 617 819 650 860 q 686 771 650 790 q 771 750 722 751 q 772 451 772 599 q 771 154 771 303 q 764 147 767 147 q 691 117 725 140 q 628 63 657 94 q 576 -6 599 31 q 535 -75 553 -42 q 499 -63 515 -72 q 464 -51 483 -54 l 464 -131 q 499 -146 481 -135 q 529 -178 518 -157 q 499 -215 511 -190 q 488 -269 486 -239 q 375 -231 436 -231 q 246 -278 306 -231 q 259 -228 246 -254 q 297 -181 272 -203 q 356 -144 321 -160 q 436 -126 392 -129 q 437 -49 436 -89 q 438 32 438 -8 q 384 -24 413 6 q 328 -82 356 -54 q 257 -6 292 -43 q 186 69 222 31 q 221 129 214 97 q 228 196 228 161 q 227 341 228 258 q 226 511 226 424 q 226 683 226 599 q 226 836 226 768 q 226 948 226 904 q 226 997 226 992 q 113 1051 163 1014 q 43 1151 63 1089 q 34 1226 32 1188 q 56 1304 36 1265 m 569 100 q 589 108 585 100 q 593 129 593 115 l 593 715 q 588 746 593 733 q 564 769 583 758 q 465 714 513 733 l 465 142 q 519 121 493 131 q 569 100 544 111 m 464 789 l 465 789 l 465 786 q 494 801 482 792 q 519 818 507 810 q 578 883 558 846 q 594 969 597 919 q 592 1096 592 1035 q 593 1222 593 1157 q 581 1259 593 1246 q 533 1272 569 1272 l 465 1272 q 465 1092 465 1179 q 464 933 464 1015 q 464 789 464 850 m 97 1317 q 128 1385 99 1356 q 206 1415 158 1415 q 284 1385 253 1415 q 315 1310 315 1354 q 282 1233 314 1265 q 206 1203 250 1201 q 129 1237 161 1203 q 97 1317 97 1271 m 404 888 q 404 828 404 885 q 404 690 404 772 q 405 513 404 608 q 406 335 406 417 q 406 197 406 253 q 406 138 406 140 q 419 114 406 114 q 433 139 433 114 l 433 886 q 419 901 433 901 q 404 888 404 901 m 92 1165 q 178 1095 126 1113 q 292 1076 229 1078 q 292 1008 292 1072 q 291 851 292 944 q 290 647 290 757 q 290 441 290 538 q 289 274 289 344 q 289 190 289 204 q 299 179 289 179 q 308 192 308 179 q 309 642 308 415 q 310 1093 310 868 q 303 1100 310 1100 q 282 1097 292 1097 q 261 1097 272 1097 q 171 1114 214 1097 q 92 1165 128 1131 m 4 1224 q 60 1068 13 1133 q 201 985 108 1003 q 201 647 203 810 q 200 313 200 485 q 192 301 200 301 q 183 313 183 301 q 183 397 183 344 q 183 513 183 450 q 183 642 183 575 q 182 767 182 708 q 182 869 182 825 q 182 933 182 914 q 183 948 183 940 q 181 965 182 956 q 75 1024 119 986 q 7 1125 31 1063 q -5 1174 -3 1149 q 4 1224 -7 1199 m 407 1261 l 407 1019 q 421 1003 407 1003 q 435 1018 435 1003 l 435 1260 q 419 1275 435 1275 q 407 1261 407 1275 m 418 929 q 435 935 428 929 q 442 953 442 942 q 435 970 442 964 q 418 976 428 976 q 394 953 394 976 q 418 929 394 929 m 149 1263 q 193 1382 126 1349 q 154 1373 171 1382 q 129 1343 138 1364 q 126 1302 122 1326 q 149 1263 131 1278 m 183 169 q 190 171 186 171 q 210 158 204 171 q 199 132 217 140 q 192 131 196 131 q 172 143 178 131 q 173 158 169 150 q 183 169 176 167 m 183 279 q 190 281 186 281 q 210 268 204 281 q 209 253 213 261 q 199 242 206 244 q 192 240 196 240 q 172 253 178 240 q 173 268 169 260 q 183 279 176 276 m 189 225 q 210 207 210 228 q 192 186 213 186 q 171 204 171 183 q 189 225 168 225 m 726 1039 l 726 1038 l 728 1038 l 726 1039 z "},"C":{"ha":825,"x_min":-8,"x_max":814,"o":"m 53 1306 q 117 1207 83 1238 q 199 1176 151 1176 q 263 1190 236 1176 q 306 1225 289 1203 q 331 1277 322 1247 q 344 1340 340 1307 q 353 1349 344 1347 q 368 1350 361 1350 l 668 1350 q 744 1326 721 1349 q 768 1251 767 1304 q 769 1201 769 1226 q 769 1151 769 1176 l 769 1132 q 747 1114 758 1122 q 732 1088 736 1106 q 751 1092 742 1090 q 768 1094 760 1094 q 799 1083 788 1094 q 814 1051 811 1071 q 733 1005 765 1038 q 667 939 700 972 q 611 911 639 911 q 588 915 600 911 q 567 922 576 918 q 581 946 572 935 q 590 972 590 957 q 592 1001 592 988 q 592 1031 592 1015 l 592 1231 q 585 1258 592 1243 q 556 1272 579 1272 l 463 1272 l 463 140 q 513 121 490 129 q 563 101 535 113 q 574 99 571 99 q 592 121 592 99 l 592 321 q 685 369 643 338 q 767 446 726 401 l 767 147 q 692 116 725 138 q 630 65 658 94 q 578 0 601 35 q 536 -69 556 -35 q 528 -76 535 -72 q 497 -65 513 -74 q 463 -53 482 -56 l 463 -129 q 497 -144 478 -132 q 528 -176 517 -156 q 497 -213 510 -189 q 486 -268 483 -237 q 372 -229 435 -229 q 244 -276 301 -229 q 257 -227 244 -253 q 294 -180 269 -201 q 353 -143 318 -158 q 433 -125 389 -128 q 434 -47 433 -87 q 435 33 435 -7 q 383 -23 411 7 q 326 -81 354 -53 q 256 -5 290 -42 q 185 71 221 32 q 219 130 213 99 q 225 197 225 161 q 225 342 225 260 q 225 513 225 425 q 225 685 225 600 q 225 838 225 769 q 225 949 225 906 q 225 999 225 993 q 110 1053 160 1015 q 40 1153 61 1090 q 31 1228 29 1189 q 53 1306 33 1267 m 200 1417 q 278 1386 247 1417 q 310 1311 310 1356 q 276 1235 308 1267 q 200 1204 244 1203 q 124 1238 156 1204 q 92 1318 92 1272 q 123 1387 93 1357 q 200 1417 153 1417 m 403 888 q 403 829 403 885 q 403 692 403 774 q 403 514 403 610 q 404 336 404 418 q 404 198 404 254 q 404 139 404 142 q 418 115 404 115 q 432 140 432 115 q 432 221 432 160 q 432 363 432 282 q 431 534 432 444 q 431 701 431 624 q 431 830 431 778 q 431 888 431 882 q 417 903 431 903 q 403 888 403 903 m 89 1167 q 176 1097 125 1114 q 289 1076 226 1079 q 289 1009 289 1072 q 289 852 289 946 q 288 649 289 758 q 288 442 288 539 q 288 276 288 346 q 288 192 288 206 q 297 181 288 181 q 306 193 306 181 q 307 643 306 417 q 308 1094 308 869 q 301 1101 308 1101 q 281 1099 290 1099 q 260 1099 271 1099 q 169 1115 213 1099 q 89 1167 125 1132 m 3 1225 q 59 1069 11 1135 q 200 986 107 1004 q 200 649 201 811 q 199 314 199 486 q 190 303 199 303 q 182 314 182 303 q 182 399 182 346 q 182 514 182 451 q 181 643 182 576 q 181 768 181 710 q 181 871 181 826 q 181 935 181 915 q 181 949 181 942 q 179 967 181 957 q 74 1026 118 988 q 6 1125 29 1064 q -6 1175 -4 1150 q 3 1225 -8 1200 m 433 1019 l 433 1261 q 418 1276 433 1276 q 406 1263 406 1276 l 406 1021 q 419 1004 406 1004 q 433 1019 433 1004 m 415 931 q 440 954 440 931 q 433 971 440 964 q 415 978 426 978 q 399 971 406 978 q 392 954 392 964 q 399 937 392 943 q 415 931 406 931 m 143 1264 q 188 1383 121 1351 q 149 1374 165 1383 q 124 1344 132 1365 q 121 1303 117 1328 q 143 1264 125 1279 m 169 151 q 189 172 169 172 q 210 151 210 172 q 189 132 210 132 q 169 151 169 132 m 169 261 q 189 282 169 282 q 210 261 210 282 q 203 248 210 254 q 189 242 197 242 q 175 248 181 242 q 169 261 169 254 m 181 225 q 189 226 183 226 q 207 215 203 226 q 196 189 214 196 q 189 188 193 188 q 171 200 175 188 q 181 225 164 218 z "},"D":{"ha":832,"x_min":-7,"x_max":776,"o":"m 54 1289 q 119 1191 85 1221 q 199 1161 153 1161 q 263 1174 238 1161 q 306 1208 289 1186 q 331 1260 322 1231 q 346 1325 340 1290 q 363 1333 346 1333 l 369 1333 l 528 1333 l 631 1333 l 682 1333 q 733 1324 714 1333 q 761 1297 751 1314 q 774 1258 771 1281 q 776 1208 776 1235 l 776 175 q 776 156 776 165 q 772 135 776 146 q 692 101 726 124 q 630 49 657 79 q 581 -16 603 19 q 538 -86 558 -51 l 535 -86 q 516 -81 524 -86 q 500 -74 508 -76 q 486 -69 493 -71 q 469 -67 479 -67 l 465 -67 l 465 129 q 515 110 494 118 q 560 93 535 103 q 574 90 565 90 q 597 114 597 90 l 597 1224 q 587 1251 597 1244 q 561 1258 576 1258 q 515 1258 533 1258 q 464 1257 496 1257 l 464 -146 q 499 -160 481 -149 q 528 -192 517 -171 q 498 -230 511 -206 q 486 -285 485 -254 q 374 -246 435 -246 q 246 -293 303 -246 q 258 -244 246 -269 q 295 -197 271 -218 q 355 -160 319 -175 q 435 -142 390 -144 l 435 17 q 382 -39 410 -10 q 326 -97 354 -68 q 256 -22 290 -58 q 185 54 221 15 q 219 114 213 82 q 226 181 226 146 q 226 326 226 243 q 225 496 225 408 q 225 669 225 583 q 225 822 225 754 q 225 934 225 890 q 225 982 225 978 q 111 1038 161 1000 q 42 1138 61 1075 q 33 1212 31 1174 q 54 1289 35 1250 m 93 1301 q 123 1371 93 1340 q 201 1401 153 1401 q 279 1370 247 1401 q 310 1294 311 1339 q 277 1219 310 1250 q 200 1188 244 1188 q 124 1222 156 1188 q 93 1301 92 1256 m 406 879 q 404 872 404 876 q 404 814 404 869 q 404 676 404 758 q 405 498 404 593 q 406 320 406 403 q 406 181 406 238 q 406 122 406 125 q 419 100 406 100 q 433 124 433 100 q 433 204 433 143 q 433 347 433 265 q 433 518 433 428 q 432 685 432 608 q 432 813 432 761 q 432 871 432 865 q 418 886 432 886 q 406 879 410 886 m 290 1061 q 290 994 290 1057 q 290 837 290 931 q 289 633 289 743 q 288 427 289 524 q 288 260 288 331 q 288 176 288 190 q 297 164 288 164 q 307 176 307 164 q 308 627 307 400 q 308 1078 308 854 q 301 1085 308 1086 q 281 1082 290 1082 q 260 1082 271 1082 q 169 1099 213 1082 q 90 1150 126 1115 q 176 1080 125 1097 q 290 1061 228 1063 m 4 1210 q 60 1054 13 1118 q 201 969 107 990 q 201 633 203 796 q 200 297 200 469 q 192 286 200 286 q 183 297 183 286 q 183 382 183 329 q 183 498 183 435 q 183 627 183 561 q 182 751 182 693 q 182 854 182 810 q 182 918 182 899 q 183 933 183 925 q 181 950 182 942 q 75 1010 119 972 q 7 1110 31 1047 q -5 1158 -3 1133 q 4 1210 -7 1183 m 433 1004 l 433 1244 q 428 1256 433 1251 q 418 1260 424 1260 q 406 1246 406 1260 l 406 1004 q 419 988 406 988 q 433 1004 433 988 m 417 963 q 393 938 393 963 q 400 921 393 928 q 417 914 407 914 q 434 921 428 914 q 440 938 440 928 q 417 963 440 963 m 143 1249 q 188 1367 121 1333 q 149 1358 167 1367 q 124 1329 132 1349 q 122 1287 117 1311 q 143 1249 126 1263 m 172 199 q 190 211 178 211 q 197 210 194 211 q 208 199 206 207 q 208 183 211 190 q 189 171 203 171 q 182 172 185 171 q 172 183 175 175 q 172 199 169 192 m 186 156 q 210 140 204 156 q 196 117 214 122 q 171 132 176 117 q 174 146 169 139 q 186 156 178 153 m 186 265 q 210 250 204 265 q 208 236 213 243 q 196 226 203 229 q 171 242 176 226 q 174 256 169 249 q 186 265 178 263 z "},"E":{"ha":828,"x_min":-7,"x_max":815,"o":"m 54 1289 q 119 1190 85 1221 q 200 1160 153 1160 q 264 1173 238 1160 q 307 1208 290 1186 q 333 1260 324 1231 q 346 1324 342 1290 q 354 1332 346 1331 q 369 1333 363 1333 l 464 1333 l 464 1332 q 565 1333 513 1333 q 665 1333 617 1333 q 676 1333 671 1333 q 688 1332 682 1333 q 747 1312 728 1329 q 771 1254 767 1294 q 774 1185 775 1219 q 774 1115 774 1151 q 751 1096 763 1104 q 735 1072 739 1088 q 772 1076 758 1076 q 802 1066 793 1076 q 815 1031 811 1056 q 763 1010 785 1028 q 722 974 742 993 q 692 944 707 958 q 661 915 676 929 q 610 894 636 894 q 568 906 593 894 q 584 928 576 918 q 594 953 592 939 q 598 980 597 967 q 599 1007 599 993 q 598 1113 599 1060 q 597 1218 597 1165 q 586 1250 597 1243 q 557 1257 575 1257 l 464 1257 l 464 781 l 657 781 q 625 691 640 735 q 593 603 610 647 l 464 603 l 464 129 q 519 105 492 117 q 572 82 546 93 q 594 100 590 89 q 599 126 599 111 q 598 215 597 171 q 599 304 599 258 q 690 353 649 321 q 768 425 732 385 q 768 373 768 414 q 769 283 768 332 q 769 190 769 235 q 769 128 769 146 q 694 99 728 121 q 631 45 660 76 q 578 -23 601 14 q 536 -93 556 -60 q 500 -82 517 -87 q 464 -69 483 -76 l 464 -146 q 499 -161 481 -150 q 528 -193 517 -172 q 498 -230 511 -206 q 486 -285 485 -254 q 374 -246 435 -246 q 246 -293 303 -246 q 258 -244 246 -269 q 295 -197 271 -218 q 355 -160 319 -175 q 435 -142 390 -144 l 435 15 q 382 -40 410 -11 q 326 -97 354 -69 q 256 -22 290 -58 q 185 54 221 15 q 219 114 213 82 q 226 181 226 146 q 226 326 226 243 q 225 496 225 408 q 225 668 225 583 q 225 821 225 753 q 225 933 225 889 q 225 982 225 978 q 111 1036 161 999 q 42 1136 61 1074 q 33 1211 31 1172 q 54 1289 35 1250 m 93 1301 q 123 1370 93 1340 q 201 1400 153 1400 q 279 1369 247 1400 q 310 1294 311 1339 q 277 1218 310 1250 q 200 1188 244 1186 q 124 1222 156 1188 q 93 1301 92 1256 m 406 879 q 404 872 404 876 q 404 813 404 869 q 404 675 404 757 q 405 497 404 593 q 406 319 406 401 q 406 181 406 238 q 406 122 406 125 q 419 99 406 99 q 433 124 433 99 q 433 204 433 143 q 433 347 433 265 q 433 517 433 428 q 432 684 432 607 q 432 813 432 761 q 432 871 432 865 q 418 886 432 886 q 406 879 410 886 m 290 1061 q 290 993 290 1057 q 290 835 290 929 q 289 632 289 742 q 288 426 289 522 q 288 259 288 329 q 288 175 288 189 q 297 164 288 164 q 307 176 307 164 q 308 626 307 400 q 308 1078 308 853 q 301 1085 308 1085 q 281 1082 290 1082 q 260 1082 271 1082 q 169 1099 213 1082 q 90 1150 126 1115 q 176 1080 125 1097 q 290 1061 228 1063 m 4 1208 q 60 1053 13 1118 q 201 969 108 988 q 201 632 203 794 q 200 297 200 469 q 192 286 200 286 q 183 297 183 286 q 183 382 183 329 q 183 497 183 435 q 183 626 183 560 q 182 751 182 693 q 182 854 182 810 q 182 918 182 899 q 183 933 183 925 q 181 950 182 940 q 75 1009 119 971 q 7 1110 31 1047 q -5 1158 -3 1133 q 4 1208 -7 1183 m 406 1004 q 419 988 406 988 q 433 1003 433 988 l 433 1244 q 418 1260 433 1260 q 406 1246 406 1260 l 406 1004 m 406 958 q 393 938 393 954 q 406 917 393 921 q 417 914 411 914 q 440 938 440 914 q 417 961 440 961 q 406 958 411 961 m 143 1247 q 188 1367 121 1333 q 149 1357 167 1367 q 124 1328 132 1347 q 122 1287 117 1311 q 143 1247 126 1263 m 188 156 q 202 151 196 157 q 211 139 208 146 q 194 115 214 118 q 171 132 175 115 q 188 156 168 151 m 172 253 q 192 265 178 265 q 199 264 196 265 q 209 253 206 261 q 210 238 213 244 q 190 225 204 225 q 183 226 186 225 q 173 238 176 229 q 172 253 169 246 m 190 211 q 210 190 210 211 q 190 171 210 171 q 171 190 171 171 q 190 211 171 211 z "},"F":{"ha":807,"x_min":-7,"x_max":819,"o":"m 54 1289 q 119 1190 85 1221 q 200 1160 153 1160 q 264 1173 238 1160 q 307 1208 290 1186 q 333 1260 324 1231 q 346 1324 342 1290 q 354 1332 346 1331 q 369 1333 363 1333 l 464 1333 l 464 1332 q 569 1333 517 1332 q 675 1333 622 1333 q 749 1311 728 1332 q 774 1238 771 1290 q 776 1176 776 1206 q 775 1114 775 1146 q 753 1097 764 1106 q 738 1071 742 1088 q 756 1076 747 1074 q 774 1079 764 1079 q 788 1076 779 1079 q 810 1060 801 1069 q 818 1033 819 1051 q 751 998 779 1022 q 694 946 722 974 q 678 927 686 936 q 658 911 669 918 q 614 894 638 894 q 571 907 594 894 q 595 949 590 926 q 600 996 600 972 q 599 1110 599 1053 q 600 1224 600 1167 q 591 1244 600 1236 q 569 1253 582 1253 q 518 1254 547 1254 q 467 1254 489 1254 l 467 782 l 658 782 q 628 692 643 735 q 597 607 613 650 q 551 603 575 603 l 508 603 q 486 603 497 603 q 464 600 475 603 l 464 -146 q 499 -161 481 -150 q 528 -193 517 -172 q 498 -230 511 -206 q 486 -285 485 -254 q 374 -246 435 -246 q 246 -293 303 -246 q 258 -244 246 -269 q 295 -197 271 -218 q 355 -160 319 -175 q 435 -142 390 -144 l 435 15 q 382 -40 410 -11 q 326 -97 354 -69 q 256 -22 290 -58 q 185 54 221 15 q 219 114 213 82 q 226 181 226 146 q 226 326 226 243 q 225 496 225 408 q 225 668 225 583 q 225 821 225 753 q 225 933 225 889 q 225 982 225 978 q 111 1036 161 999 q 42 1136 61 1074 q 33 1211 31 1172 q 54 1289 35 1250 m 93 1301 q 123 1370 93 1340 q 201 1400 153 1400 q 279 1369 247 1400 q 310 1294 311 1339 q 277 1218 310 1250 q 200 1188 244 1186 q 124 1222 156 1188 q 93 1301 92 1256 m 406 879 q 404 872 404 876 q 404 813 404 869 q 404 675 404 757 q 405 497 404 593 q 406 319 406 401 q 406 181 406 238 q 406 122 406 125 q 419 99 406 99 q 433 124 433 99 q 433 204 433 143 q 433 347 433 265 q 433 517 433 428 q 432 684 432 607 q 432 813 432 761 q 432 871 432 865 q 418 886 432 886 q 406 879 410 886 m 90 1150 q 176 1080 125 1097 q 290 1061 228 1063 q 290 993 290 1057 q 290 835 290 929 q 289 632 289 742 q 288 426 289 522 q 288 259 288 329 q 288 175 288 189 q 297 164 288 164 q 307 176 307 164 q 308 626 307 400 q 308 1078 308 853 q 301 1085 308 1085 q 281 1082 290 1082 q 260 1082 271 1082 q 169 1099 213 1082 q 90 1150 126 1115 m 4 1208 q 60 1053 13 1118 q 201 969 108 988 q 201 632 203 794 q 200 297 200 469 q 192 286 200 286 q 183 297 183 286 q 183 382 183 329 q 183 497 183 435 q 183 626 183 560 q 182 751 182 693 q 182 854 182 810 q 182 918 182 899 q 183 933 183 925 q 181 950 182 940 q 75 1009 119 971 q 7 1110 31 1047 q -5 1158 -3 1133 q 4 1208 -7 1183 m 406 1004 q 419 988 406 988 q 433 1003 433 988 l 433 1244 q 418 1260 433 1260 q 406 1246 406 1260 l 406 1004 m 406 917 q 417 914 411 914 q 440 938 440 914 q 417 961 440 961 q 406 958 411 961 q 393 938 393 954 q 406 917 393 921 m 143 1247 q 188 1367 121 1333 q 149 1357 167 1367 q 124 1328 132 1347 q 122 1287 117 1311 q 143 1247 126 1263 m 171 135 q 177 149 171 143 q 190 156 183 156 q 211 135 211 156 q 190 115 211 115 q 177 121 183 115 q 171 135 171 126 m 190 265 q 211 244 211 265 q 205 231 211 238 q 190 225 199 225 q 177 231 183 225 q 171 244 171 238 q 177 259 171 253 q 190 265 183 265 m 171 190 q 190 211 171 211 q 210 190 210 211 q 190 171 210 171 q 171 190 171 171 z "},"G":{"ha":840,"x_min":-7,"x_max":817,"o":"m 200 1194 q 124 1228 156 1194 q 93 1308 92 1263 q 123 1377 93 1347 q 201 1407 153 1407 q 279 1376 247 1407 q 310 1301 311 1346 q 277 1225 310 1257 q 200 1194 244 1193 m 124 1335 q 122 1294 117 1318 q 143 1254 126 1269 q 188 1374 121 1340 q 149 1364 167 1374 q 124 1335 132 1354 m 182 925 q 183 940 183 932 q 181 957 182 947 q 75 1016 119 978 q 7 1117 31 1054 q -5 1165 -3 1140 q 4 1215 -7 1190 q 60 1060 13 1125 q 201 976 108 994 q 201 639 203 801 q 200 304 200 476 q 192 293 200 293 q 183 304 183 293 q 183 389 183 336 q 183 504 183 442 q 183 633 183 567 q 182 758 182 700 q 182 861 182 817 q 182 925 182 906 m 210 244 q 190 232 204 232 q 183 233 186 232 q 173 244 176 236 q 172 260 169 253 q 192 272 178 272 q 199 271 196 272 q 209 260 206 268 q 210 244 213 251 m 190 178 q 171 197 171 178 q 190 218 171 218 q 210 197 210 218 q 190 178 210 178 m 194 122 q 171 139 175 122 q 188 163 168 158 q 202 158 196 164 q 211 146 208 153 q 194 122 214 126 m 464 678 q 495 736 483 708 q 522 792 507 764 l 769 792 l 769 140 q 745 131 758 132 q 721 124 732 129 q 613 34 658 92 q 536 -85 568 -24 q 500 -73 517 -82 q 464 -64 483 -64 l 464 -139 q 499 -154 481 -143 q 528 -186 517 -165 q 498 -223 511 -199 q 486 -278 485 -247 q 374 -239 435 -239 q 246 -286 303 -239 q 258 -237 246 -262 q 295 -190 271 -211 q 355 -153 319 -168 q 435 -135 390 -137 l 435 22 q 382 -33 410 -4 q 326 -90 354 -62 q 256 -15 290 -51 q 185 61 221 22 q 219 121 213 89 q 226 188 226 153 q 226 333 226 250 q 225 503 225 415 q 225 675 225 590 q 225 828 225 760 q 225 940 225 896 q 225 989 225 985 q 111 1043 161 1006 q 42 1143 61 1081 q 33 1218 31 1179 q 54 1296 35 1257 q 119 1197 85 1228 q 200 1167 153 1167 q 264 1180 238 1167 q 307 1215 290 1193 q 333 1267 324 1238 q 346 1331 342 1297 q 354 1339 346 1338 q 369 1340 363 1340 q 417 1340 393 1340 q 464 1339 440 1340 q 570 1340 517 1340 q 676 1340 624 1340 q 747 1317 725 1339 q 771 1247 768 1296 q 773 1185 774 1217 q 772 1122 772 1154 q 751 1105 763 1113 q 736 1081 739 1097 q 769 1085 757 1085 q 800 1074 790 1085 q 817 1040 810 1064 q 753 1008 781 1031 q 700 961 725 986 q 679 940 689 950 q 658 921 669 931 q 610 901 635 901 q 565 914 590 901 q 592 953 588 932 q 594 999 596 975 l 594 1219 q 582 1251 594 1239 q 551 1264 569 1264 l 464 1264 l 464 678 m 307 183 q 308 633 307 407 q 308 1085 308 860 q 301 1092 308 1092 q 281 1089 290 1089 q 260 1089 271 1089 q 169 1106 213 1089 q 90 1157 126 1122 q 176 1087 125 1104 q 290 1068 228 1069 q 290 1000 290 1064 q 290 842 290 936 q 289 639 289 749 q 288 433 289 529 q 288 266 288 336 q 288 182 288 196 q 297 171 288 171 q 307 183 307 171 m 406 1253 l 406 1011 q 419 994 406 994 q 433 1010 433 994 l 433 1251 q 418 1267 433 1267 q 406 1253 406 1267 m 406 129 q 419 106 406 106 q 433 131 433 106 q 433 211 433 150 q 433 353 433 272 q 433 524 433 435 q 432 691 432 614 q 432 820 432 768 q 432 878 432 872 q 418 893 432 893 q 404 879 404 893 q 404 820 404 876 q 404 682 404 764 q 405 504 404 600 q 406 326 406 408 q 406 188 406 244 q 406 129 406 132 m 417 921 q 440 944 440 921 q 417 968 440 968 q 393 944 393 968 q 417 921 393 921 m 594 576 q 595 595 594 586 q 589 615 596 604 l 464 615 l 464 133 q 518 110 492 121 q 572 90 544 100 q 594 113 593 100 q 594 140 594 126 l 594 576 z "},"H":{"ha":878,"x_min":-7,"x_max":861,"o":"m 54 1290 q 125 1191 85 1219 q 207 1163 165 1163 q 215 1163 211 1163 q 222 1164 218 1164 q 303 1208 271 1169 q 346 1326 335 1247 q 363 1335 346 1335 l 369 1335 l 464 1335 l 464 754 q 494 752 479 753 q 524 751 508 751 q 561 752 543 751 q 597 753 579 753 q 606 774 607 764 q 604 796 604 785 q 606 997 606 894 q 604 1196 607 1099 q 623 1264 603 1236 q 671 1308 643 1292 q 768 1333 714 1333 q 817 1326 797 1333 q 790 1265 792 1299 q 788 1199 788 1232 q 788 721 788 961 q 789 243 789 481 l 789 239 q 801 174 786 201 q 861 138 815 147 q 797 67 828 101 q 735 -1 767 33 q 669 24 694 4 q 629 71 643 43 q 610 133 615 99 q 606 200 606 167 l 606 567 q 570 569 588 569 q 535 569 553 569 q 501 569 518 569 q 464 568 483 569 l 464 -144 q 499 -159 481 -149 q 528 -192 517 -169 q 498 -228 511 -204 q 486 -283 485 -253 q 374 -244 435 -244 q 246 -292 303 -244 q 258 -242 246 -268 q 295 -195 271 -217 q 355 -158 319 -174 q 435 -140 390 -143 l 435 17 q 382 -38 410 -10 q 326 -96 354 -67 q 256 -20 290 -57 q 185 56 221 17 q 219 115 213 83 q 226 182 226 147 q 226 327 226 244 q 225 497 225 410 q 225 670 225 585 q 225 824 225 756 q 225 935 225 892 q 225 983 225 979 q 111 1039 161 1001 q 42 1139 61 1076 q 33 1213 31 1175 q 54 1290 35 1251 m 93 1301 q 123 1370 93 1340 q 201 1400 153 1400 q 279 1369 247 1400 q 310 1294 311 1339 q 277 1218 310 1250 q 200 1188 244 1186 q 124 1222 156 1188 q 93 1301 92 1256 m 406 881 q 404 874 404 878 q 404 815 404 871 q 404 676 404 758 q 405 499 404 594 q 406 321 406 403 q 406 183 406 239 q 406 124 406 126 q 419 100 406 100 q 433 125 433 100 q 433 206 433 144 q 433 348 433 267 q 433 519 433 429 q 432 686 432 610 q 432 815 432 763 q 432 872 432 867 q 418 888 432 888 q 406 881 410 888 m 290 1063 q 290 994 290 1058 q 290 837 290 931 q 289 633 289 743 q 288 427 289 524 q 288 261 288 331 q 288 178 288 192 q 297 165 288 165 q 307 178 307 165 q 308 628 307 401 q 308 1079 308 856 q 301 1086 308 1088 q 281 1083 290 1083 q 260 1083 271 1083 q 169 1100 213 1083 q 90 1151 126 1117 q 176 1081 125 1099 q 290 1063 228 1064 m 4 1208 q 60 1053 13 1118 q 201 969 108 988 q 201 632 203 794 q 200 297 200 469 q 192 286 200 286 q 183 297 183 286 l 183 950 q 76 1009 121 971 q 7 1110 31 1047 q -5 1158 -3 1133 q 4 1208 -7 1183 m 406 1247 l 406 1006 q 419 989 406 989 q 433 1006 433 989 l 433 1246 q 428 1257 433 1253 q 418 1261 424 1261 q 406 1247 406 1261 m 393 939 q 400 922 393 929 q 417 915 407 915 q 434 922 428 915 q 440 939 440 929 q 417 963 440 963 q 406 960 411 963 q 393 939 393 956 m 143 1247 q 188 1367 121 1333 q 149 1357 167 1367 q 124 1328 132 1347 q 122 1287 117 1311 q 143 1247 126 1263 m 171 135 q 177 149 171 143 q 190 156 183 156 q 211 135 211 156 q 190 115 211 115 q 177 121 183 115 q 171 135 171 126 m 171 244 q 177 259 171 253 q 190 265 183 265 q 211 244 211 265 q 205 231 211 238 q 190 225 199 225 q 177 231 183 225 q 171 244 171 238 m 171 190 q 190 211 171 211 q 210 190 210 211 q 190 171 210 171 q 171 190 171 171 z "},"I":{"ha":526,"x_min":-7,"x_max":528,"o":"m 54 1301 q 122 1201 85 1231 q 206 1172 160 1172 q 214 1173 210 1172 q 222 1174 218 1174 q 303 1218 271 1179 q 346 1336 335 1257 q 354 1344 346 1343 q 369 1346 363 1346 l 464 1346 l 464 -133 q 499 -149 481 -137 q 528 -181 517 -160 q 498 -217 511 -193 q 486 -272 485 -242 q 374 -233 435 -233 q 246 -281 303 -233 q 258 -231 246 -257 q 295 -184 271 -206 q 355 -147 319 -162 q 435 -129 390 -132 l 435 28 q 382 -28 410 1 q 326 -85 354 -57 q 256 -9 290 -46 q 185 67 221 28 q 219 126 213 94 q 226 193 226 158 q 226 338 226 256 q 225 508 225 421 q 225 681 225 596 q 225 833 225 765 q 225 946 225 901 q 225 994 225 990 q 111 1049 161 1011 q 42 1149 61 1086 q 33 1224 31 1185 q 54 1301 35 1263 m 93 1314 q 123 1383 93 1353 q 201 1413 153 1413 q 279 1382 247 1413 q 310 1307 311 1351 q 277 1231 310 1263 q 200 1200 244 1199 q 124 1234 156 1200 q 93 1314 92 1268 m 406 892 q 404 885 404 889 q 404 826 404 882 q 404 688 404 769 q 405 510 404 606 q 406 332 406 414 q 406 194 406 250 q 406 135 406 138 q 419 111 406 111 q 433 136 433 111 q 433 217 433 156 q 433 359 433 278 q 433 530 433 440 q 432 697 432 619 q 432 826 432 774 q 432 883 432 878 q 418 899 432 899 q 406 892 410 899 m 290 1074 q 290 1006 290 1069 q 290 848 290 942 q 289 644 289 754 q 288 438 289 535 q 288 272 288 342 q 288 188 288 201 q 297 176 288 176 q 307 189 307 176 q 308 639 307 413 q 308 1090 308 865 q 301 1097 308 1097 q 281 1094 290 1094 q 260 1094 271 1094 q 169 1111 213 1094 q 90 1163 126 1128 q 176 1092 125 1110 q 290 1074 228 1075 m 4 1221 q 60 1065 13 1131 q 201 982 108 1000 q 201 644 203 807 q 200 310 200 482 q 192 299 200 299 q 183 310 183 299 q 183 394 183 342 q 183 510 183 447 q 183 639 183 572 q 182 764 182 706 q 182 867 182 822 q 182 931 182 911 q 183 945 183 938 q 183 961 183 953 q 76 1022 122 983 q 7 1122 31 1060 q -5 1171 -3 1146 q 4 1221 -7 1196 m 406 1017 q 419 1000 406 1000 q 433 1015 433 1000 l 433 1257 q 418 1272 433 1272 q 406 1258 406 1272 l 406 1017 m 406 971 q 393 950 393 967 q 406 929 393 933 q 417 926 411 926 q 440 950 440 926 q 417 974 440 974 q 406 971 411 974 m 143 1260 q 188 1379 121 1346 q 149 1369 167 1379 q 124 1340 132 1360 q 122 1299 117 1324 q 143 1260 126 1275 m 171 147 q 177 162 171 156 q 190 168 183 168 q 211 147 211 168 q 190 128 211 128 q 177 133 183 128 q 171 147 171 139 m 171 257 q 177 272 171 265 q 190 278 183 278 q 211 257 211 278 q 205 244 211 250 q 190 238 199 238 q 177 244 183 238 q 171 257 171 250 m 190 224 q 210 203 210 224 q 190 183 210 183 q 171 203 171 183 q 190 224 171 224 z "},"J":{"ha":879,"x_min":8,"x_max":885,"o":"m 93 150 l 93 511 q 181 443 136 471 q 279 403 226 415 l 279 108 q 345 80 311 92 q 415 54 379 68 l 415 1256 q 349 1263 385 1263 q 281 1256 313 1263 l 281 1114 q 256 1094 268 1103 q 238 1065 243 1085 q 258 1072 249 1068 q 278 1075 268 1075 q 299 1069 289 1075 q 316 1053 310 1063 q 324 1028 322 1043 q 278 1010 299 1022 q 241 981 258 997 q 208 948 224 965 q 174 914 192 931 q 142 891 158 900 q 106 882 125 882 q 84 885 93 882 q 64 894 75 889 q 88 942 83 914 q 93 999 93 971 q 94 1037 93 1018 q 94 1075 94 1056 q 88 1128 94 1103 q 56 1168 81 1153 q 172 1252 115 1211 q 285 1333 228 1293 q 297 1340 292 1339 q 310 1340 303 1340 l 319 1340 q 367 1341 343 1340 q 415 1342 392 1342 l 415 1340 l 510 1340 q 525 1339 517 1340 q 533 1331 533 1338 q 547 1272 538 1301 q 574 1219 557 1243 q 615 1181 590 1196 q 675 1167 640 1167 q 755 1197 715 1167 q 825 1296 794 1228 q 847 1218 844 1257 q 838 1143 849 1179 q 767 1043 817 1081 q 653 989 718 1006 q 653 940 653 985 q 653 828 653 896 q 653 675 653 760 q 653 503 653 590 q 653 333 653 415 q 653 188 653 250 q 659 121 653 153 q 693 61 665 89 q 622 -15 657 22 q 551 -90 588 -51 q 496 -33 524 -62 q 443 22 468 -4 q 444 -58 443 -18 q 444 -135 444 -97 q 524 -153 489 -137 q 584 -190 560 -168 q 621 -237 608 -211 q 633 -286 633 -262 q 506 -239 576 -239 q 392 -278 443 -239 q 381 -223 394 -247 q 350 -186 368 -199 q 401 -143 368 -156 q 206 -66 304 -104 q 8 13 108 -28 q 38 85 18 54 q 93 150 57 115 m 678 1407 q 756 1377 725 1407 q 786 1308 786 1347 q 755 1228 788 1263 q 678 1194 722 1194 q 601 1225 633 1193 q 569 1301 569 1257 q 599 1376 568 1346 q 678 1407 631 1407 m 446 131 q 460 106 446 106 q 474 129 474 106 q 474 188 474 132 q 474 326 474 244 q 474 504 474 408 q 475 682 475 600 q 475 820 475 764 q 475 879 475 876 q 461 893 475 893 q 447 878 447 893 q 447 820 447 872 q 447 691 447 768 q 447 524 447 614 q 446 353 446 435 q 446 211 446 272 q 446 131 446 150 m 569 1085 q 571 633 569 860 q 572 183 572 407 q 581 171 572 171 q 590 182 590 171 q 590 266 590 196 q 590 433 590 336 q 590 639 590 529 q 589 842 589 749 q 589 1000 589 936 q 589 1068 589 1064 q 702 1087 651 1069 q 789 1157 753 1104 q 709 1106 753 1122 q 618 1089 665 1089 q 597 1089 607 1089 q 576 1092 588 1089 q 569 1085 569 1092 m 678 976 q 818 1061 769 996 q 875 1215 867 1126 q 883 1165 885 1190 q 871 1117 881 1140 q 803 1016 847 1054 q 699 957 760 978 q 697 940 697 947 q 696 925 696 932 q 696 861 696 906 q 696 758 696 817 q 696 633 696 700 q 696 504 696 567 q 696 389 696 442 q 696 304 696 336 q 688 293 696 293 q 679 304 679 293 q 678 639 679 476 q 678 976 676 801 m 444 1010 q 458 994 444 994 q 472 1011 472 994 l 472 1253 q 460 1267 472 1267 q 444 1251 444 1267 l 444 1010 m 463 921 q 479 927 472 921 q 486 944 486 933 q 479 962 486 956 q 463 968 472 968 q 438 944 438 968 q 463 921 438 921 m 735 1254 q 757 1294 753 1269 q 754 1335 761 1318 q 729 1365 746 1356 q 690 1374 713 1374 q 735 1328 722 1358 q 735 1254 747 1299 m 688 163 q 708 142 708 163 q 688 122 708 122 q 668 142 668 122 q 688 163 668 163 m 689 218 q 708 197 708 218 q 689 178 708 178 q 668 197 668 178 q 689 218 668 218 m 668 251 q 688 272 668 272 q 708 251 708 272 q 702 238 708 244 q 688 232 696 232 q 674 238 679 232 q 668 251 668 244 z "},"K":{"ha":874,"x_min":-7,"x_max":854,"o":"m 54 1296 q 119 1197 85 1228 q 200 1167 153 1167 q 264 1180 238 1167 q 307 1215 290 1193 q 333 1267 324 1238 q 346 1331 342 1297 q 354 1339 346 1338 q 369 1340 363 1340 l 464 1340 l 464 756 q 496 798 483 778 q 524 835 508 818 q 560 870 542 854 q 600 903 579 886 l 600 1183 q 606 1249 597 1219 q 647 1303 615 1278 q 700 1331 671 1322 q 761 1340 729 1340 q 788 1339 775 1340 q 814 1333 801 1338 q 785 1272 786 1306 q 783 1203 783 1238 l 783 1006 l 783 975 q 785 949 783 961 q 790 922 786 936 q 787 921 788 921 q 783 919 786 921 q 652 858 711 894 q 547 758 593 821 l 776 758 q 783 735 783 744 q 784 722 785 728 q 783 711 783 717 l 783 186 q 797 124 783 142 q 854 89 810 107 q 792 21 822 54 q 733 -46 763 -12 q 670 -27 696 -46 q 628 19 644 -8 q 606 82 613 47 q 600 147 600 117 l 600 572 q 571 574 585 574 q 543 575 557 575 q 506 574 524 575 q 468 574 488 574 q 464 567 467 572 l 464 -139 q 499 -154 481 -143 q 528 -186 517 -165 q 498 -223 511 -199 q 486 -278 485 -247 q 374 -239 435 -239 q 246 -286 303 -239 q 258 -237 246 -262 q 295 -190 271 -211 q 355 -153 319 -168 q 435 -135 390 -137 l 435 22 q 382 -33 410 -4 q 326 -90 354 -62 q 256 -15 290 -51 q 185 61 221 22 q 219 121 213 89 q 226 188 226 153 q 226 333 226 250 q 225 503 225 415 q 225 675 225 590 q 225 828 225 760 q 225 940 225 896 q 225 989 225 985 q 111 1043 161 1006 q 42 1143 61 1081 q 33 1218 31 1179 q 54 1296 35 1257 m 93 1308 q 123 1377 93 1347 q 201 1407 153 1407 q 279 1376 247 1407 q 310 1301 311 1346 q 277 1225 310 1257 q 200 1194 244 1193 q 124 1228 156 1194 q 93 1308 92 1263 m 406 129 q 419 106 406 106 q 433 131 433 106 q 433 211 433 150 q 433 353 433 272 q 433 524 433 435 q 432 691 432 614 q 432 820 432 768 q 432 878 432 872 q 418 893 432 893 q 406 886 410 893 q 404 879 404 883 q 404 820 404 876 q 404 682 404 764 q 405 504 404 600 q 406 326 406 408 q 406 188 406 244 q 406 129 406 132 m 90 1157 q 176 1087 125 1104 q 290 1068 228 1069 q 290 1000 290 1064 q 290 842 290 936 q 289 639 289 749 q 288 433 289 529 q 288 266 288 336 q 288 182 288 196 q 297 171 288 171 q 307 183 307 171 q 308 633 307 407 q 308 1085 308 860 q 301 1092 308 1092 q 281 1089 290 1089 q 260 1089 271 1089 q 169 1106 213 1089 q 90 1157 126 1122 m 4 1215 q 60 1060 13 1125 q 201 976 108 994 q 201 639 203 801 q 200 304 200 476 q 192 293 200 293 q 183 304 183 293 q 183 389 183 336 q 183 504 183 442 q 183 633 183 567 q 182 758 182 700 q 182 861 182 817 q 182 925 182 906 q 183 940 183 932 q 181 957 182 947 q 75 1016 119 978 q 7 1117 31 1054 q -5 1165 -3 1140 q 4 1215 -7 1190 m 433 1010 l 433 1251 q 418 1267 433 1267 q 406 1253 406 1267 l 406 1011 q 419 994 406 994 q 433 1010 433 994 m 406 924 q 417 921 411 921 q 440 944 440 921 q 417 968 440 968 q 406 965 411 968 q 393 944 393 961 q 406 924 393 928 m 143 1254 q 188 1374 121 1340 q 149 1364 167 1374 q 124 1335 132 1354 q 122 1294 117 1318 q 143 1254 126 1269 m 190 163 q 211 142 211 163 q 190 122 211 122 q 177 128 183 122 q 171 142 171 133 q 177 156 171 150 q 190 163 183 163 m 171 251 q 177 266 171 260 q 190 272 183 272 q 211 251 211 272 q 205 238 211 244 q 190 232 199 232 q 177 238 183 232 q 171 251 171 244 m 171 197 q 190 218 171 218 q 210 197 210 218 q 190 178 210 178 q 171 197 171 178 z "},"L":{"ha":778,"x_min":-7,"x_max":785,"o":"m 54 1301 q 119 1203 85 1233 q 200 1172 153 1172 q 264 1185 238 1172 q 307 1221 290 1199 q 333 1273 324 1243 q 346 1336 342 1303 q 354 1344 346 1343 q 369 1346 363 1346 l 464 1346 l 464 96 q 524 72 496 83 q 578 50 551 61 q 601 69 597 57 q 603 96 604 81 l 603 278 q 699 332 656 297 q 785 410 742 367 l 785 100 q 702 67 738 90 q 638 12 667 43 q 587 -56 610 -19 q 540 -131 564 -93 q 504 -118 521 -128 q 468 -108 488 -108 q 464 -133 464 -121 q 499 -149 481 -137 q 528 -181 517 -160 q 498 -217 511 -193 q 486 -272 485 -242 q 374 -233 435 -233 q 246 -281 303 -233 q 258 -231 246 -257 q 295 -184 271 -206 q 355 -147 319 -162 q 435 -129 390 -132 l 435 28 q 382 -28 410 1 q 326 -85 354 -57 q 256 -9 290 -46 q 185 67 221 28 q 219 126 213 94 q 226 193 226 158 q 226 338 226 256 q 225 508 225 421 q 225 681 225 596 q 225 833 225 765 q 225 946 225 901 q 225 994 225 990 q 111 1049 161 1011 q 42 1149 61 1086 q 33 1224 31 1185 q 54 1301 35 1263 m 93 1314 q 123 1383 93 1353 q 201 1413 153 1413 q 279 1382 247 1413 q 310 1307 311 1351 q 277 1231 310 1263 q 200 1200 244 1199 q 124 1234 156 1200 q 93 1314 92 1268 m 406 892 q 404 885 404 889 q 404 826 404 882 q 404 688 404 769 q 405 510 404 606 q 406 332 406 414 q 406 194 406 250 q 406 135 406 138 q 419 111 406 111 q 433 136 433 111 q 433 217 433 156 q 433 359 433 278 q 433 530 433 440 q 432 697 432 619 q 432 826 432 774 q 432 883 432 878 q 418 899 432 899 q 406 892 410 899 m 290 1074 q 290 1006 290 1069 q 290 848 290 942 q 289 644 289 754 q 288 438 289 535 q 288 272 288 342 q 288 188 288 201 q 297 176 288 176 q 307 189 307 176 q 308 639 307 413 q 308 1090 308 865 q 301 1097 308 1097 q 281 1094 290 1094 q 260 1094 271 1094 q 169 1111 213 1094 q 90 1163 126 1128 q 176 1092 125 1110 q 290 1074 228 1075 m 4 1221 q 60 1065 13 1131 q 201 982 108 1000 q 201 644 203 807 q 200 310 200 482 q 192 299 200 299 q 183 310 183 299 q 183 394 183 342 q 183 510 183 447 q 183 639 183 572 q 182 764 182 706 q 182 867 182 822 q 182 931 182 911 q 183 945 183 938 q 181 963 182 953 q 75 1022 119 983 q 7 1122 31 1060 q -5 1171 -3 1146 q 4 1221 -7 1196 m 406 1017 q 419 1000 406 1000 q 433 1015 433 1000 l 433 1257 q 418 1272 433 1272 q 406 1258 406 1272 l 406 1017 m 406 929 q 417 926 411 926 q 440 950 440 926 q 417 974 440 974 q 406 971 411 974 q 393 950 393 967 q 406 929 393 933 m 143 1260 q 188 1379 121 1346 q 149 1369 167 1379 q 124 1340 132 1360 q 122 1299 117 1324 q 143 1260 126 1275 m 171 147 q 177 162 171 156 q 190 168 183 168 q 211 147 211 168 q 190 128 211 128 q 177 133 183 128 q 171 147 171 139 m 190 278 q 211 257 211 278 q 205 244 211 250 q 190 238 199 238 q 177 244 183 238 q 171 257 171 250 q 177 272 171 265 q 190 278 183 278 m 171 203 q 190 224 171 224 q 210 203 210 224 q 190 183 210 183 q 171 203 171 183 z "},"M":{"ha":1264,"x_min":-7,"x_max":1244,"o":"m 200 1193 q 124 1227 156 1193 q 93 1307 92 1261 q 123 1376 93 1346 q 201 1406 153 1406 q 279 1375 247 1406 q 310 1300 311 1344 q 277 1224 310 1256 q 200 1193 244 1192 m 124 1333 q 122 1292 117 1317 q 143 1253 126 1268 q 188 1372 121 1339 q 149 1363 167 1372 q 124 1333 132 1353 m 182 924 q 183 938 183 931 q 181 956 182 946 q 75 1015 119 976 q 7 1115 31 1053 q -5 1164 -3 1139 q 4 1214 -7 1189 q 60 1058 13 1124 q 201 975 108 993 q 201 638 203 800 q 200 303 200 475 q 192 292 200 292 q 183 303 183 292 q 183 388 183 335 q 183 503 183 440 q 183 632 183 565 q 182 757 182 699 q 182 860 182 815 q 182 924 182 904 m 171 250 q 177 265 171 258 q 190 271 183 271 q 211 250 211 271 q 205 237 211 243 q 190 231 199 231 q 177 237 183 231 q 171 250 171 243 m 190 176 q 171 196 171 176 q 190 217 171 217 q 210 196 210 217 q 190 176 210 176 m 211 140 q 190 121 211 121 q 177 126 183 121 q 171 140 171 132 q 177 155 171 149 q 190 161 183 161 q 211 140 211 161 m 1172 200 q 1184 130 1172 160 q 1244 89 1196 100 q 1182 19 1213 53 q 1121 -47 1151 -14 q 1068 -34 1092 -47 q 1028 1 1044 -21 q 1002 49 1011 22 q 990 103 993 76 q 989 141 989 122 q 989 179 989 160 l 989 1178 l 989 1225 q 926 1190 958 1218 q 858 1113 894 1161 q 790 949 799 1035 q 789 768 781 863 q 810 766 800 767 q 831 765 819 765 q 852 766 842 765 q 874 767 863 767 q 894 766 885 767 q 915 764 904 765 q 909 733 915 753 q 894 690 903 714 q 875 643 886 667 q 853 600 864 619 q 832 597 846 597 l 813 597 q 792 594 799 597 q 785 579 785 588 q 786 564 786 571 q 787 378 786 471 q 789 194 788 286 q 803 135 789 150 q 861 114 818 121 q 785 33 822 72 q 708 -50 749 -7 q 635 28 672 -10 q 561 107 599 67 q 597 167 589 135 q 604 233 604 199 q 603 392 603 313 q 603 550 603 471 q 603 572 603 561 q 600 594 604 583 q 579 597 589 597 q 558 597 569 597 q 526 597 542 597 q 494 600 511 597 q 520 681 506 642 q 549 761 535 721 q 561 766 556 765 q 574 767 567 767 l 578 767 q 597 769 590 767 q 600 810 599 776 q 602 890 601 843 q 603 990 603 936 q 602 1093 603 1044 q 600 1178 601 1142 q 597 1228 599 1215 q 505 1151 539 1203 q 464 1038 471 1100 l 464 -140 q 499 -156 481 -144 q 528 -187 517 -167 q 498 -224 511 -200 q 486 -279 485 -249 q 374 -240 435 -240 q 246 -287 303 -240 q 258 -238 246 -264 q 295 -191 271 -212 q 355 -154 319 -169 q 435 -136 390 -139 l 435 21 q 382 -35 410 -6 q 326 -92 354 -64 q 256 -16 290 -53 q 185 60 221 21 q 219 119 213 88 q 226 186 226 151 q 226 331 226 249 q 225 501 225 414 q 225 674 225 589 q 225 826 225 758 q 225 939 225 894 q 225 988 225 983 q 111 1042 161 1004 q 42 1142 61 1079 q 33 1217 31 1178 q 54 1294 35 1256 q 119 1196 85 1226 q 200 1165 153 1165 q 264 1178 238 1165 q 307 1214 290 1192 q 333 1266 324 1236 q 346 1329 342 1296 q 354 1338 346 1336 q 369 1339 363 1339 l 464 1339 l 464 1218 l 472 1218 q 624 1313 539 1286 q 800 1339 708 1339 q 821 1334 811 1339 q 835 1313 831 1329 q 794 1288 803 1308 q 786 1242 786 1268 l 786 1156 q 801 1160 797 1156 q 810 1169 806 1165 q 976 1298 885 1257 q 1183 1339 1068 1339 q 1204 1335 1194 1339 q 1219 1314 1214 1331 q 1177 1283 1183 1307 q 1171 1231 1171 1258 q 1172 876 1172 1053 q 1172 521 1172 699 q 1174 360 1174 440 q 1172 200 1175 281 m 307 182 q 308 632 307 406 q 308 1083 308 858 q 301 1090 308 1090 q 281 1088 290 1088 q 260 1088 271 1088 q 169 1104 213 1088 q 90 1156 126 1121 q 176 1085 125 1103 q 290 1067 228 1068 q 290 999 290 1063 q 290 841 290 935 q 289 638 289 747 q 288 431 289 528 q 288 265 288 335 q 288 181 288 194 q 297 169 288 169 q 307 182 307 169 m 406 1251 l 406 1010 q 419 993 406 993 q 433 1008 433 993 l 433 1250 q 418 1265 433 1265 q 406 1251 406 1265 m 406 128 q 419 104 406 104 q 433 129 433 104 q 433 210 433 149 q 433 352 433 271 q 433 523 433 433 q 432 690 432 613 q 432 819 432 767 q 432 876 432 871 q 418 892 432 892 q 404 878 404 892 q 404 819 404 875 q 404 681 404 763 q 405 503 404 599 q 406 325 406 407 q 406 187 406 243 q 406 128 406 131 m 417 919 q 440 943 440 919 q 417 967 440 967 q 393 943 393 967 q 417 919 393 919 z "},"N":{"ha":879,"x_min":-7,"x_max":860,"o":"m 200 1196 q 124 1230 156 1196 q 93 1310 92 1264 q 123 1378 93 1349 q 201 1408 153 1408 q 279 1378 247 1408 q 310 1303 311 1347 q 277 1226 310 1258 q 200 1196 244 1194 m 124 1336 q 122 1295 117 1319 q 143 1256 126 1271 q 188 1375 121 1342 q 149 1365 167 1375 q 124 1336 132 1356 m 182 926 q 183 941 183 933 q 181 958 182 949 q 75 1017 119 979 q 7 1118 31 1056 q -5 1167 -3 1142 q 4 1217 -7 1192 q 60 1061 13 1126 q 201 978 108 996 q 201 640 203 803 q 200 306 200 478 q 192 294 200 294 q 183 306 183 294 q 183 390 183 338 q 183 506 183 443 q 183 635 183 568 q 182 760 182 701 q 182 863 182 818 q 182 926 182 907 m 171 253 q 177 267 171 261 q 190 274 183 274 q 211 253 211 274 q 205 240 211 246 q 190 233 199 233 q 177 240 183 233 q 171 253 171 246 m 190 179 q 171 199 171 179 q 190 219 171 219 q 210 199 210 219 q 190 179 210 179 m 211 143 q 190 124 211 124 q 177 129 183 124 q 171 143 171 135 q 177 158 171 151 q 190 164 183 164 q 211 143 211 164 m 788 189 q 802 126 789 144 q 860 92 815 108 q 736 -44 796 19 q 665 -22 692 -44 q 625 36 639 1 q 607 111 611 71 q 603 185 603 151 l 603 1183 l 603 1231 q 547 1201 572 1222 q 506 1153 522 1181 q 479 1095 489 1126 q 467 1033 469 1064 q 464 998 464 1015 q 464 961 464 981 l 464 -137 q 499 -153 481 -142 q 528 -185 517 -164 q 498 -222 511 -197 q 486 -276 485 -246 q 374 -237 435 -237 q 246 -285 303 -237 q 258 -235 246 -261 q 295 -188 271 -210 q 355 -151 319 -167 q 435 -133 390 -136 l 435 24 q 382 -32 410 -3 q 326 -89 354 -61 q 256 -13 290 -50 q 185 63 221 24 q 219 122 213 90 q 226 189 226 154 q 226 334 226 251 q 225 504 225 417 q 225 676 225 592 q 225 829 225 761 q 225 942 225 897 q 225 990 225 986 q 111 1044 161 1007 q 42 1144 61 1082 q 33 1219 31 1181 q 54 1297 35 1258 q 119 1199 85 1229 q 200 1168 153 1168 q 264 1181 238 1168 q 307 1217 290 1194 q 333 1269 324 1239 q 346 1332 342 1299 q 354 1340 346 1339 q 369 1342 363 1342 l 464 1342 l 464 1308 q 464 1263 465 1285 q 467 1215 463 1240 q 624 1315 539 1289 q 804 1342 708 1342 q 824 1337 815 1342 q 836 1317 833 1332 q 793 1283 799 1310 q 788 1228 788 1257 l 788 208 l 788 189 m 307 185 q 308 635 307 408 q 308 1086 308 861 q 301 1093 308 1093 q 281 1090 290 1090 q 260 1090 271 1090 q 169 1107 213 1090 q 90 1158 126 1124 q 176 1088 125 1106 q 290 1069 228 1071 q 290 1001 290 1065 q 290 844 290 938 q 289 640 289 750 q 288 434 289 531 q 288 267 288 338 q 288 183 288 197 q 297 172 288 172 q 307 185 307 172 m 406 1254 l 406 1013 q 419 996 406 996 q 433 1011 433 996 l 433 1253 q 418 1268 433 1268 q 406 1254 406 1268 m 406 131 q 419 107 406 107 q 433 132 433 107 q 433 213 433 151 q 433 355 433 274 q 433 526 433 436 q 432 692 432 615 q 432 822 432 769 q 432 879 432 874 q 418 894 432 894 q 404 881 404 894 q 404 822 404 878 q 404 683 404 765 q 405 506 404 601 q 406 328 406 410 q 406 190 406 246 q 406 131 406 133 m 417 922 q 440 946 440 922 q 417 969 440 969 q 393 946 393 969 q 417 922 393 922 z "},"O":{"ha":829,"x_min":-7,"x_max":772,"o":"m 54 1296 q 119 1197 85 1228 q 200 1167 153 1167 q 264 1180 238 1167 q 307 1215 290 1193 q 333 1267 324 1238 q 346 1331 342 1297 q 354 1339 346 1338 q 369 1340 363 1340 l 654 1340 q 677 1340 665 1340 q 700 1339 689 1340 q 756 1303 740 1333 q 772 1236 772 1272 l 772 154 q 772 147 772 151 q 771 138 771 143 q 690 106 725 128 q 628 53 656 83 q 577 -13 600 22 q 532 -86 554 -49 q 499 -73 514 -81 q 465 -62 485 -65 q 464 -65 464 -64 l 464 -139 q 499 -154 481 -143 q 528 -186 517 -165 q 498 -223 511 -199 q 486 -278 485 -247 q 374 -239 435 -239 q 246 -286 303 -239 q 258 -237 246 -262 q 295 -190 271 -211 q 355 -153 319 -168 q 435 -135 390 -137 l 435 22 q 382 -33 410 -4 q 326 -90 354 -62 q 256 -15 290 -51 q 185 61 221 22 q 219 121 213 89 q 226 188 226 153 q 226 333 226 250 q 225 503 225 415 q 225 675 225 590 q 225 828 225 760 q 225 940 225 896 q 225 989 225 985 q 111 1043 161 1006 q 42 1143 61 1081 q 33 1218 31 1179 q 54 1296 35 1257 m 464 1263 l 464 132 q 519 110 492 121 q 574 90 546 99 q 595 114 594 99 q 596 144 596 129 q 596 322 596 222 q 595 528 596 421 q 594 742 594 635 q 594 944 594 850 q 592 1113 593 1039 q 592 1225 592 1186 q 581 1251 592 1240 q 554 1263 569 1263 l 464 1263 m 93 1308 q 123 1377 93 1347 q 201 1407 153 1407 q 279 1376 247 1407 q 310 1301 311 1346 q 277 1225 310 1257 q 200 1194 244 1193 q 124 1228 156 1194 q 93 1308 92 1263 m 406 129 q 419 106 406 106 q 433 131 433 106 q 433 211 433 150 q 433 353 433 272 q 433 524 433 435 q 432 691 432 614 q 432 820 432 768 q 432 878 432 872 q 418 893 432 893 q 406 886 410 893 q 404 879 404 883 q 404 820 404 876 q 404 682 404 764 q 405 504 404 600 q 406 326 406 408 q 406 188 406 244 q 406 129 406 132 m 90 1157 q 176 1087 125 1104 q 290 1068 228 1069 q 290 1000 290 1064 q 290 842 290 936 q 289 639 289 749 q 288 433 289 529 q 288 266 288 336 q 288 182 288 196 q 297 171 288 171 q 307 183 307 171 q 308 633 307 407 q 308 1085 308 860 q 301 1092 308 1092 q 281 1089 290 1089 q 260 1089 271 1089 q 169 1106 213 1089 q 90 1157 126 1122 m 4 1215 q 60 1060 13 1125 q 201 976 108 994 q 201 639 203 801 q 200 304 200 476 q 192 293 200 293 q 183 304 183 293 q 183 389 183 336 q 183 504 183 442 q 183 633 183 567 q 182 758 182 700 q 182 861 182 817 q 182 925 182 906 q 183 940 183 932 q 181 957 182 947 q 75 1016 119 978 q 7 1117 31 1054 q -5 1165 -3 1140 q 4 1215 -7 1190 m 406 1011 q 419 994 406 994 q 433 1010 433 994 l 433 1251 q 418 1267 433 1267 q 406 1253 406 1267 l 406 1011 m 406 924 q 417 921 411 921 q 440 944 440 921 q 417 968 440 968 q 406 965 411 968 q 393 944 393 961 q 406 924 393 928 m 143 1254 q 188 1374 121 1340 q 149 1364 167 1374 q 124 1335 132 1354 q 122 1294 117 1318 q 143 1254 126 1269 m 190 163 q 211 142 211 163 q 190 122 211 122 q 177 128 183 122 q 171 142 171 133 q 177 156 171 150 q 190 163 183 163 m 171 251 q 177 266 171 260 q 190 272 183 272 q 211 251 211 272 q 205 238 211 244 q 190 232 199 232 q 177 238 183 232 q 171 251 171 244 m 190 218 q 210 197 210 218 q 190 178 210 178 q 171 197 171 178 q 190 218 171 218 z "},"P":{"ha":804,"x_min":-7,"x_max":806,"o":"m 43 1301 q 108 1203 74 1233 q 189 1172 142 1172 q 253 1185 226 1172 q 296 1221 279 1199 q 322 1273 313 1243 q 335 1336 331 1303 q 343 1344 335 1343 q 358 1346 351 1346 l 664 1346 q 737 1324 715 1344 q 761 1251 758 1303 q 763 1184 764 1218 q 763 1117 763 1150 l 763 864 q 738 846 749 854 q 725 822 728 838 q 760 826 746 826 q 789 816 779 826 q 806 782 799 806 q 731 740 761 771 q 672 678 701 710 q 625 627 649 653 q 578 576 601 601 q 521 530 551 550 q 453 496 490 510 l 453 -133 q 488 -149 469 -137 q 518 -181 506 -160 q 487 -217 500 -193 q 475 -272 474 -242 q 363 -233 424 -233 q 235 -281 292 -233 q 247 -231 235 -257 q 284 -184 260 -206 q 344 -147 308 -162 q 424 -129 379 -132 l 424 28 q 372 -28 400 1 q 317 -85 344 -57 q 245 -9 281 -46 q 174 67 210 28 q 208 126 201 94 q 215 193 215 158 q 215 338 215 256 q 215 508 215 421 q 215 681 215 596 q 215 833 215 765 q 215 946 215 901 q 215 994 215 990 q 101 1049 150 1011 q 31 1149 51 1086 q 22 1224 19 1185 q 43 1301 24 1263 m 453 593 q 456 571 456 571 q 586 753 586 618 l 586 1236 q 576 1260 586 1250 q 553 1269 567 1269 l 453 1269 l 453 593 m 93 1314 q 123 1383 93 1353 q 201 1413 153 1413 q 279 1382 247 1413 q 310 1307 311 1351 q 277 1231 310 1263 q 200 1200 244 1199 q 124 1234 156 1200 q 93 1314 92 1268 m 393 885 q 393 826 393 882 q 393 688 393 769 q 394 510 393 606 q 394 332 394 414 q 394 194 394 250 q 394 135 394 138 q 408 111 394 111 q 422 136 422 111 q 422 217 422 156 q 422 359 422 278 q 422 530 422 440 q 421 697 421 619 q 421 826 421 774 q 421 883 421 878 q 407 899 421 899 q 393 885 393 899 m 279 1074 q 279 1006 279 1069 q 279 848 279 942 q 278 644 279 754 q 278 438 278 535 q 278 272 278 342 q 278 188 278 201 q 288 176 278 176 q 296 189 296 176 q 297 639 296 413 q 297 1090 297 865 q 292 1097 297 1097 q 271 1094 281 1094 q 250 1094 261 1094 q 79 1163 151 1094 q 166 1092 115 1110 q 279 1074 217 1075 m 4 1221 q 60 1065 13 1131 q 201 982 108 1000 q 201 644 203 807 q 200 310 200 482 q 192 299 200 299 q 183 310 183 299 q 183 394 183 342 q 183 510 183 447 q 183 639 183 572 q 182 764 182 706 q 182 867 182 822 q 182 931 182 911 q 183 945 183 938 q 181 963 182 953 q 75 1022 119 983 q 7 1122 31 1060 q -5 1171 -3 1146 q 4 1221 -7 1196 m 396 1258 l 396 1017 q 410 1000 396 1000 q 424 1015 424 1000 l 424 1257 q 408 1272 424 1272 q 396 1258 396 1272 m 406 926 q 431 950 431 926 q 406 974 431 974 q 389 967 396 974 q 382 950 382 961 q 389 933 382 939 q 406 926 396 926 m 143 1260 q 188 1379 121 1346 q 149 1369 167 1379 q 124 1340 132 1360 q 122 1299 117 1324 q 143 1260 126 1275 m 171 147 q 177 162 171 156 q 190 168 183 168 q 211 147 211 168 q 190 128 211 128 q 177 133 183 128 q 171 147 171 139 m 171 257 q 177 272 171 265 q 190 278 183 278 q 211 257 211 278 q 205 244 211 250 q 190 238 199 238 q 177 244 183 238 q 171 257 171 250 m 190 224 q 210 203 210 224 q 190 183 210 183 q 171 203 171 183 q 190 224 171 224 z "},"Q":{"ha":826,"x_min":-7,"x_max":857,"o":"m 200 1194 q 124 1228 156 1194 q 93 1308 92 1263 q 123 1377 93 1347 q 201 1407 153 1407 q 279 1376 247 1407 q 310 1301 311 1346 q 276 1225 308 1257 q 200 1194 244 1193 m 124 1335 q 122 1294 117 1318 q 143 1254 126 1269 q 188 1374 121 1340 q 149 1364 167 1374 q 124 1335 132 1354 m 182 925 q 182 940 182 932 q 181 957 182 947 q 75 1016 119 978 q 7 1115 31 1054 q -5 1165 -3 1140 q 4 1215 -7 1190 q 60 1060 13 1125 q 201 976 108 994 q 201 639 203 801 q 200 304 200 476 q 192 293 200 293 q 183 304 183 293 q 183 389 183 336 q 183 504 183 442 q 183 633 183 567 q 182 758 182 700 q 182 861 182 817 q 182 925 182 906 m 190 232 q 176 238 182 232 q 171 251 171 244 q 190 272 171 272 q 211 251 211 272 q 205 238 211 244 q 190 232 199 232 m 190 178 q 169 197 169 178 q 190 217 169 217 q 210 197 210 217 q 190 178 210 178 m 211 142 q 190 122 211 122 q 171 142 171 122 q 190 163 171 163 q 211 142 211 163 m 754 -121 q 774 -122 761 -122 q 857 -86 814 -122 q 835 -147 846 -119 q 808 -196 825 -174 q 771 -227 793 -218 q 724 -236 749 -236 q 714 -235 718 -236 q 704 -235 710 -235 q 638 -215 674 -231 q 578 -193 608 -204 q 519 -172 549 -182 q 528 -186 525 -181 q 498 -223 511 -199 q 486 -278 485 -247 q 374 -239 435 -239 q 246 -286 303 -239 q 258 -237 246 -262 q 295 -190 271 -211 q 355 -153 319 -168 q 435 -135 390 -137 l 435 22 q 382 -33 410 -4 q 326 -90 354 -62 q 256 -15 290 -51 q 185 61 221 22 q 219 120 213 89 q 226 188 226 151 q 226 333 226 250 q 225 503 225 415 q 225 675 225 590 q 225 828 225 760 q 225 940 225 896 q 225 989 225 985 q 111 1043 161 1006 q 42 1143 61 1081 q 33 1218 31 1179 q 54 1296 35 1257 q 119 1197 85 1228 q 200 1167 153 1167 q 264 1180 238 1167 q 307 1215 290 1193 q 333 1267 324 1238 q 346 1331 342 1297 q 354 1339 346 1338 q 369 1340 363 1340 l 463 1340 l 601 1340 l 671 1340 q 744 1319 722 1340 q 769 1247 765 1299 l 769 1213 l 769 181 q 770 159 769 169 q 765 138 771 149 q 641 68 689 121 q 553 -50 593 15 q 653 -90 606 -69 q 754 -121 701 -111 m 307 183 q 308 633 307 407 q 308 1085 308 860 q 301 1092 308 1092 q 281 1089 290 1089 q 260 1089 271 1089 q 169 1106 213 1089 q 90 1157 126 1122 q 176 1087 125 1104 q 290 1067 228 1069 q 290 999 290 1063 q 290 842 290 936 q 289 639 289 749 q 288 433 289 529 q 288 266 288 336 q 288 182 288 196 q 297 171 288 171 q 307 183 307 171 m 406 1253 l 406 1011 q 419 994 406 994 q 433 1010 433 994 l 433 1251 q 418 1267 433 1267 q 406 1253 406 1267 m 404 129 q 419 106 404 106 q 433 131 433 106 q 433 211 433 150 q 433 353 433 272 q 433 524 433 435 q 432 691 432 614 q 432 820 432 768 q 432 878 432 872 q 418 893 432 893 q 403 878 403 893 q 403 819 403 875 q 403 682 403 764 q 403 504 403 600 q 404 326 404 408 q 404 188 404 244 q 404 129 404 132 m 417 921 q 440 944 440 921 q 434 961 440 954 q 417 968 428 968 q 399 961 406 968 q 393 944 393 954 q 417 921 393 921 m 464 131 q 518 108 492 119 q 572 90 544 97 q 592 113 589 100 q 594 139 594 125 l 594 1231 q 585 1254 594 1244 q 561 1264 575 1264 q 513 1265 538 1264 q 464 1265 488 1265 l 464 131 z "},"R":{"ha":864,"x_min":-7,"x_max":844,"o":"m 54 1289 q 119 1190 85 1221 q 200 1160 153 1160 q 264 1173 238 1160 q 307 1208 290 1186 q 333 1260 324 1231 q 346 1324 342 1290 q 354 1332 346 1331 q 369 1333 363 1333 l 464 1333 l 531 1333 l 665 1333 q 681 1333 672 1333 q 696 1332 689 1333 q 769 1271 754 1328 q 775 1244 775 1254 l 775 960 q 751 940 764 949 q 738 911 738 931 q 778 922 758 922 q 819 878 806 922 q 753 845 779 871 q 701 792 726 819 q 651 734 675 763 q 599 674 626 706 l 594 669 l 599 665 q 659 633 626 640 q 726 626 692 626 q 758 627 742 626 q 789 628 774 628 q 776 419 771 525 q 778 211 781 313 q 790 156 776 172 q 844 124 804 139 q 785 56 814 89 q 728 -8 756 24 q 662 15 688 -4 q 622 61 636 33 q 603 123 608 89 q 599 190 599 157 l 599 585 q 572 606 586 597 q 547 628 558 614 q 506 609 525 621 q 464 592 488 597 l 464 -146 q 499 -161 481 -150 q 528 -193 517 -172 q 498 -230 511 -206 q 486 -285 485 -254 q 374 -246 435 -246 q 246 -293 303 -246 q 258 -244 246 -269 q 295 -197 271 -218 q 355 -160 319 -175 q 435 -142 390 -144 l 435 15 q 382 -40 410 -11 q 326 -97 354 -69 q 256 -22 290 -58 q 185 54 221 15 q 219 114 213 82 q 226 181 226 146 q 226 326 226 243 q 225 496 225 408 q 225 668 225 583 q 225 821 225 753 q 225 933 225 889 q 225 982 225 978 q 111 1036 161 999 q 42 1136 61 1074 q 33 1211 31 1172 q 54 1289 35 1250 m 465 667 q 561 729 524 683 q 599 833 599 775 l 599 1218 q 588 1246 599 1235 q 560 1257 576 1257 l 464 1257 q 464 1210 464 1254 q 464 1101 464 1167 q 465 961 464 1036 q 465 822 465 886 q 465 713 465 757 q 465 667 465 669 m 93 1301 q 123 1370 93 1340 q 201 1400 153 1400 q 279 1369 247 1400 q 310 1294 311 1339 q 277 1218 310 1250 q 200 1188 244 1186 q 124 1222 156 1188 q 93 1301 92 1256 m 406 879 q 404 872 404 876 q 404 813 404 869 q 404 675 404 757 q 405 497 404 593 q 406 319 406 401 q 406 181 406 238 q 406 122 406 125 q 419 99 406 99 q 433 124 433 99 q 433 204 433 143 q 433 347 433 265 q 433 517 433 428 q 432 684 432 607 q 432 813 432 761 q 432 871 432 865 q 418 886 432 886 q 406 879 410 886 m 90 1150 q 176 1080 125 1097 q 290 1061 228 1063 q 290 993 290 1057 q 290 835 290 929 q 289 632 289 742 q 288 426 289 522 q 288 259 288 329 q 288 175 288 189 q 297 164 288 164 q 307 176 307 164 q 308 626 307 400 q 308 1078 308 853 q 301 1085 308 1085 q 281 1082 290 1082 q 260 1082 271 1082 q 169 1099 213 1082 q 90 1150 126 1115 m 4 1208 q 60 1053 13 1118 q 201 969 108 988 q 201 632 203 794 q 200 297 200 469 q 192 286 200 286 q 183 297 183 286 q 183 382 183 329 q 183 497 183 435 q 183 626 183 560 q 182 751 182 693 q 182 854 182 810 q 182 918 182 899 q 183 933 183 925 q 181 950 182 940 q 75 1009 119 971 q 7 1110 31 1047 q -5 1158 -3 1133 q 4 1208 -7 1183 m 406 1246 l 406 1004 q 419 988 406 988 q 433 1003 433 988 l 433 1244 q 418 1260 433 1260 q 406 1246 406 1260 m 406 958 q 393 938 393 954 q 406 917 393 921 q 417 914 411 914 q 440 938 440 914 q 417 961 440 961 q 406 958 411 961 m 143 1247 q 188 1367 121 1333 q 149 1357 167 1367 q 124 1328 132 1347 q 122 1287 117 1311 q 143 1247 126 1263 m 190 156 q 211 135 211 156 q 190 115 211 115 q 177 121 183 115 q 171 135 171 126 q 177 149 171 143 q 190 156 183 156 m 190 265 q 211 244 211 265 q 205 231 211 238 q 190 225 199 225 q 177 231 183 225 q 171 244 171 238 q 177 259 171 253 q 190 265 183 265 m 171 190 q 190 211 171 211 q 210 190 210 211 q 190 171 210 171 q 171 190 171 171 z "},"S":{"ha":842,"x_min":-7,"x_max":817,"o":"m 54 1296 q 119 1197 85 1228 q 200 1167 153 1167 q 264 1180 238 1167 q 307 1215 290 1193 q 333 1267 324 1238 q 346 1331 342 1297 q 354 1339 346 1338 q 369 1340 363 1340 l 672 1340 q 749 1317 726 1339 q 775 1243 772 1296 q 776 1183 776 1213 q 775 1122 775 1154 q 751 1101 763 1111 q 732 1076 739 1092 q 747 1081 739 1079 q 763 1085 754 1083 q 767 1085 765 1085 q 772 1086 769 1086 q 817 1039 808 1086 q 765 1017 786 1035 q 722 979 743 999 q 692 950 707 964 q 663 924 678 936 q 615 903 640 903 q 597 904 604 903 q 583 909 590 907 q 569 914 576 911 q 590 945 585 929 q 597 979 596 961 q 598 1005 599 992 q 597 1032 597 1018 l 597 1221 q 585 1253 597 1240 q 553 1265 572 1265 l 464 1265 l 464 860 l 465 860 q 522 840 485 853 q 597 815 560 828 q 655 795 629 804 q 690 782 681 786 q 774 672 767 756 q 774 654 774 663 q 775 638 775 646 q 776 398 776 517 q 776 157 776 279 q 774 138 776 151 q 693 105 728 128 q 631 52 658 82 q 581 -14 604 22 q 536 -86 558 -50 q 501 -74 517 -83 q 465 -64 485 -65 l 465 -139 q 500 -154 482 -143 q 529 -186 518 -165 q 498 -223 511 -199 q 488 -278 485 -247 q 375 -239 436 -239 q 246 -286 306 -239 q 259 -237 246 -262 q 297 -190 272 -211 q 356 -153 321 -168 q 436 -135 392 -137 l 436 22 q 383 -33 411 -4 q 328 -90 356 -62 q 257 -15 292 -51 q 186 61 222 22 q 220 121 214 89 q 226 188 226 153 l 226 486 l 290 454 q 289 269 289 339 q 289 182 289 199 q 299 171 289 171 q 308 183 308 171 l 308 447 l 406 406 l 406 129 q 419 106 406 106 q 433 131 433 106 l 433 681 q 421 685 428 683 q 406 690 414 688 q 360 705 386 697 q 308 719 333 713 q 258 735 281 728 q 225 744 235 742 l 225 989 q 111 1043 161 1006 q 42 1143 61 1081 q 33 1218 31 1179 q 54 1296 35 1257 m 465 668 l 465 132 q 520 110 493 121 q 574 89 547 100 q 595 110 593 97 q 597 136 597 122 l 597 511 q 597 545 597 526 q 592 582 596 564 q 579 615 588 600 q 556 638 571 629 q 513 657 535 649 q 465 668 490 665 m 93 1308 q 123 1377 93 1347 q 201 1407 153 1407 q 279 1376 247 1407 q 310 1301 311 1346 q 277 1225 310 1257 q 200 1194 244 1193 q 124 1228 156 1194 q 93 1308 92 1263 m 4 1215 q 60 1060 13 1125 q 201 976 108 994 q 201 639 203 801 q 200 304 200 476 q 192 293 200 293 q 183 304 183 293 l 183 956 q 76 1016 121 978 q 7 1117 31 1054 q -5 1165 -3 1140 q 4 1215 -7 1190 m 290 1068 q 290 1042 290 1065 q 290 982 290 1019 q 290 896 290 944 q 289 790 289 847 l 308 799 l 308 1085 q 301 1092 308 1092 q 281 1089 290 1089 q 260 1089 271 1089 q 169 1106 213 1089 q 90 1157 126 1122 q 176 1087 125 1104 q 290 1068 228 1069 m 406 1011 q 419 994 406 994 q 433 1010 433 994 l 433 1251 q 425 1265 433 1263 l 414 1265 q 406 1253 406 1263 l 406 1011 m 406 965 q 393 944 393 961 q 406 924 393 928 q 417 921 411 921 q 433 928 426 921 q 440 944 440 935 q 433 961 440 954 q 417 968 426 968 q 406 965 411 968 m 143 1254 q 188 1374 121 1340 q 149 1364 167 1374 q 124 1335 132 1354 q 122 1294 117 1318 q 143 1254 126 1269 m 190 163 q 211 142 211 163 q 190 122 211 122 q 177 128 183 122 q 171 142 171 133 q 177 156 171 150 q 190 163 183 163 m 171 251 q 177 266 171 260 q 190 272 183 272 q 211 251 211 272 q 205 238 211 244 q 190 232 199 232 q 177 238 183 232 q 171 251 171 244 m 190 218 q 210 197 210 218 q 190 178 210 178 q 171 197 171 178 q 190 218 171 218 m 406 886 q 404 879 404 883 l 404 860 l 432 860 l 432 878 q 418 893 432 893 q 406 886 410 893 z "},"T":{"ha":982,"x_min":-19,"x_max":999,"o":"m -19 1040 q -3 1074 -12 1064 q 25 1085 6 1085 q 60 1081 39 1085 q 47 1104 57 1096 q 25 1119 36 1113 q 22 1165 22 1142 q 24 1213 22 1189 q 66 1242 44 1228 q 108 1271 88 1256 q 149 1303 129 1286 q 192 1339 169 1321 q 208 1340 197 1340 l 228 1340 l 268 1340 l 268 1290 q 331 1195 297 1224 q 411 1167 365 1167 q 475 1180 449 1167 q 518 1215 501 1193 q 544 1267 535 1238 q 557 1331 553 1297 q 565 1339 557 1338 q 581 1340 574 1340 l 853 1340 q 928 1317 906 1339 q 954 1242 951 1296 q 956 1183 957 1213 q 956 1121 956 1153 q 932 1103 943 1113 q 914 1076 921 1094 q 953 1086 936 1086 q 978 1078 965 1086 q 992 1063 986 1071 q 996 1040 999 1054 q 937 1010 963 1031 q 886 965 911 989 l 849 928 q 790 901 822 901 q 746 913 772 901 q 773 954 768 932 q 778 1000 778 976 l 778 1229 q 778 1244 778 1236 q 774 1261 778 1251 q 754 1265 768 1264 q 722 1267 740 1267 q 698 1266 710 1267 q 675 1265 686 1265 q 675 1082 675 1197 q 675 828 675 967 q 676 542 675 690 q 676 260 676 393 q 676 21 676 126 q 676 -139 676 -85 q 710 -154 692 -143 q 740 -186 729 -165 q 709 -223 722 -199 q 699 -278 696 -247 q 585 -239 647 -239 q 457 -286 514 -239 q 469 -237 457 -262 q 506 -190 482 -211 q 566 -153 531 -168 q 646 -135 601 -137 q 647 -58 646 -97 q 647 22 647 -18 q 594 -33 622 -4 q 539 -90 567 -62 q 468 -15 503 -51 q 397 61 433 22 q 431 121 425 89 q 438 188 438 153 q 438 333 438 250 q 438 503 438 415 q 438 675 438 590 q 438 828 438 760 q 438 940 438 896 q 438 989 438 985 q 323 1043 372 1006 q 253 1143 274 1081 q 253 1265 233 1206 q 206 1261 225 1265 q 201 1253 201 1257 q 201 1243 201 1249 q 201 1114 200 1178 q 200 985 201 1050 q 231 913 200 944 q 183 901 204 901 q 135 921 156 901 q 90 965 111 942 q 41 1010 67 989 q -19 1040 15 1031 m 304 1308 q 338 1379 304 1351 q 413 1407 372 1407 q 476 1388 449 1407 q 515 1340 503 1369 q 522 1301 522 1319 q 489 1225 521 1257 q 413 1194 457 1193 q 336 1228 368 1194 q 304 1308 304 1263 m 617 129 q 631 106 617 106 q 644 131 644 106 q 644 211 644 150 q 644 353 644 272 q 644 524 644 435 q 643 691 643 614 q 643 820 643 768 q 643 878 643 872 q 629 893 643 893 q 615 879 615 893 q 615 820 615 876 q 615 682 615 764 q 616 504 615 600 q 617 326 617 408 q 617 188 617 244 q 617 129 617 132 m 501 1068 q 501 1000 501 1064 q 501 842 501 936 q 501 639 501 749 q 500 433 500 529 q 500 266 500 336 q 500 182 500 196 q 510 171 500 171 q 518 183 518 171 q 519 633 518 407 q 521 1085 521 860 q 514 1092 521 1092 q 493 1089 503 1089 q 472 1089 483 1089 q 381 1106 425 1089 q 301 1157 338 1122 q 388 1087 338 1104 q 501 1068 439 1069 m 215 1215 q 272 1060 224 1126 q 413 976 321 994 q 413 639 415 801 q 411 304 411 476 q 403 293 411 293 q 394 304 394 293 l 394 956 q 288 1016 333 978 q 219 1117 243 1054 q 208 1165 210 1140 q 215 1215 206 1190 m 646 1010 l 646 1251 q 631 1267 646 1267 q 618 1253 618 1267 l 618 1011 q 632 994 618 994 q 646 1010 646 994 m 356 1254 q 363 1340 342 1307 q 400 1374 375 1361 q 364 1367 381 1374 q 339 1340 347 1360 q 338 1338 338 1339 q 336 1335 338 1336 q 333 1294 329 1318 q 356 1254 338 1269 m 604 944 q 611 927 604 933 q 628 921 618 921 q 653 944 653 921 q 628 968 653 968 q 611 962 618 968 q 604 944 604 956 m 401 218 q 422 197 422 218 q 401 178 422 178 q 382 197 382 178 q 401 218 382 218 m 403 163 q 422 142 422 163 q 403 122 422 122 q 383 142 383 122 q 403 163 383 163 m 383 251 q 403 272 383 272 q 422 251 422 272 q 417 238 422 244 q 403 232 411 232 q 389 238 394 232 q 383 251 383 244 z "},"U":{"ha":881,"x_min":-7,"x_max":872,"o":"m 54 1296 q 119 1197 85 1228 q 200 1167 153 1167 q 264 1180 238 1167 q 307 1215 290 1193 q 333 1267 324 1238 q 346 1331 342 1297 q 354 1339 346 1338 q 369 1340 363 1340 l 464 1340 l 464 1338 l 465 1338 l 465 133 q 522 110 494 121 q 576 89 550 100 q 596 107 592 96 q 599 132 600 118 l 599 322 q 599 765 599 544 q 597 1207 599 985 q 643 1306 597 1269 q 747 1342 689 1342 q 776 1339 761 1342 q 807 1332 792 1336 q 781 1280 785 1307 q 776 1225 776 1253 l 776 193 q 799 128 776 157 q 857 89 821 99 q 872 85 861 88 q 849 51 867 75 q 811 1 832 28 q 770 -49 790 -25 q 738 -85 750 -74 q 681 -23 710 -54 q 625 40 653 8 q 576 -20 596 13 q 536 -86 557 -53 q 469 -61 506 -74 q 465 -100 463 -81 q 464 -137 467 -119 l 464 -139 q 499 -154 481 -143 q 528 -186 517 -165 q 498 -223 511 -199 q 486 -278 485 -247 q 374 -239 435 -239 q 246 -286 303 -239 q 258 -237 246 -262 q 295 -190 271 -211 q 355 -153 319 -168 q 435 -135 390 -137 l 435 22 q 382 -33 410 -4 q 326 -90 354 -62 q 256 -15 290 -51 q 185 61 221 22 q 219 121 213 89 q 226 188 226 153 q 226 333 226 250 q 225 503 225 415 q 225 675 225 590 q 225 828 225 760 q 225 940 225 896 q 225 989 225 985 q 111 1043 161 1006 q 42 1143 61 1081 q 33 1218 31 1179 q 54 1296 35 1257 m 93 1308 q 123 1377 93 1347 q 201 1407 153 1407 q 279 1376 247 1407 q 310 1301 311 1346 q 277 1225 310 1257 q 200 1194 244 1193 q 124 1228 156 1194 q 93 1308 92 1263 m 406 886 q 404 879 404 883 q 404 820 404 876 q 404 682 404 764 q 405 504 404 600 q 406 326 406 408 q 406 188 406 244 q 406 129 406 132 q 419 106 406 106 q 433 131 433 106 q 433 211 433 150 q 433 353 433 272 q 433 524 433 435 q 432 691 432 614 q 432 820 432 768 q 432 878 432 872 q 418 893 432 893 q 406 886 410 893 m 90 1157 q 176 1087 125 1104 q 290 1068 228 1069 q 290 1000 290 1064 q 290 842 290 936 q 289 639 289 749 q 288 433 289 529 q 288 266 288 336 q 288 182 288 196 q 297 171 288 171 q 307 183 307 171 q 308 633 307 407 q 308 1085 308 860 q 301 1092 308 1092 q 281 1089 290 1089 q 260 1089 271 1089 q 169 1106 213 1089 q 90 1157 126 1122 m 4 1215 q 60 1060 13 1125 q 201 976 108 994 q 201 639 203 801 q 200 304 200 476 q 192 293 200 293 q 183 304 183 293 q 183 396 183 336 q 183 527 183 456 q 183 674 183 599 q 182 810 182 749 q 182 913 182 872 q 182 956 182 953 q 76 1016 121 978 q 7 1117 31 1054 q -5 1165 -3 1140 q 4 1215 -7 1190 m 406 1253 l 406 1011 q 419 994 406 994 q 433 1010 433 994 l 433 1251 q 418 1267 433 1267 q 406 1253 406 1267 m 406 965 q 393 944 393 961 q 406 924 393 928 q 417 921 411 921 q 440 944 440 921 q 417 968 440 968 q 406 965 411 968 m 143 1254 q 188 1374 121 1340 q 149 1364 167 1374 q 124 1335 132 1354 q 122 1294 117 1318 q 143 1254 126 1269 m 190 163 q 211 142 211 163 q 190 122 211 122 q 177 128 183 122 q 171 142 171 133 q 177 156 171 150 q 190 163 183 163 m 171 251 q 177 266 171 260 q 190 272 183 272 q 211 251 211 272 q 205 238 211 244 q 190 232 199 232 q 177 238 183 232 q 171 251 171 244 m 190 218 q 210 197 210 218 q 190 178 210 178 q 171 197 171 178 q 190 218 171 218 z "},"V":{"ha":879,"x_min":-7,"x_max":851,"o":"m 54 1296 q 119 1197 85 1228 q 200 1167 153 1167 q 264 1180 238 1167 q 307 1215 290 1193 q 333 1267 324 1238 q 346 1331 342 1297 q 354 1339 346 1338 q 369 1340 363 1340 l 464 1340 l 464 157 q 501 143 483 150 q 535 129 518 136 q 566 117 551 122 q 593 107 581 111 q 599 113 596 110 q 604 119 601 117 l 614 129 l 614 1213 q 631 1267 614 1244 q 675 1306 649 1290 q 733 1331 701 1322 q 790 1342 764 1340 q 851 1326 829 1342 q 831 1315 839 1326 q 813 1272 815 1300 q 810 1224 810 1243 l 810 160 q 738 139 774 160 q 669 87 701 118 q 611 19 638 56 q 568 -47 585 -17 q 551 -77 557 -67 q 544 -89 546 -87 l 513 -74 q 490 -64 499 -68 q 477 -59 483 -61 q 464 -54 471 -57 l 464 -139 q 499 -154 481 -143 q 528 -186 517 -165 q 498 -223 511 -199 q 486 -278 485 -247 q 374 -239 435 -239 q 246 -286 303 -239 q 258 -237 246 -262 q 295 -190 271 -211 q 355 -153 319 -168 q 435 -135 390 -137 l 435 22 q 382 -33 410 -4 q 326 -90 354 -62 q 256 -15 290 -51 q 185 61 221 22 q 219 121 213 89 q 226 188 226 153 q 226 333 226 250 q 225 503 225 415 q 225 675 225 590 q 225 828 225 760 q 225 940 225 896 q 225 989 225 985 q 111 1043 161 1006 q 42 1143 61 1081 q 33 1218 31 1179 q 54 1296 35 1257 m 93 1308 q 123 1377 93 1347 q 201 1407 153 1407 q 279 1376 247 1407 q 310 1301 311 1346 q 277 1225 310 1257 q 200 1194 244 1193 q 124 1228 156 1194 q 93 1308 92 1263 m 406 886 q 404 879 404 883 q 404 820 404 876 q 404 682 404 764 q 405 504 404 600 q 406 326 406 408 q 406 188 406 244 q 406 129 406 132 q 419 106 406 106 q 433 131 433 106 q 433 211 433 150 q 433 353 433 272 q 433 524 433 435 q 432 691 432 614 q 432 820 432 768 q 432 878 432 872 q 418 893 432 893 q 406 886 410 893 m 90 1157 q 176 1087 125 1104 q 290 1068 228 1069 q 290 1000 290 1064 q 290 842 290 936 q 289 639 289 749 q 288 433 289 529 q 288 266 288 336 q 288 182 288 196 q 297 171 288 171 q 307 183 307 171 q 308 633 307 407 q 308 1085 308 860 q 301 1092 308 1092 q 281 1089 290 1089 q 260 1089 271 1089 q 169 1106 213 1089 q 90 1157 126 1122 m 4 1215 q 60 1060 13 1125 q 201 976 108 994 q 201 639 203 801 q 200 304 200 476 q 192 293 200 293 q 183 304 183 293 q 183 389 183 336 q 183 504 183 442 q 183 633 183 567 q 182 758 182 700 q 182 861 182 817 q 182 925 182 906 q 183 940 183 932 q 181 957 182 947 q 75 1016 119 978 q 7 1117 31 1054 q -5 1165 -3 1140 q 4 1215 -7 1190 m 433 1010 l 433 1251 q 418 1267 433 1267 q 406 1253 406 1267 l 406 1011 q 419 994 406 994 q 433 1010 433 994 m 406 965 q 393 944 393 961 q 406 924 393 928 q 417 921 411 921 q 440 944 440 921 q 417 968 440 968 q 406 965 411 968 m 143 1254 q 188 1374 121 1340 q 149 1364 167 1374 q 124 1335 132 1354 q 122 1294 117 1318 q 143 1254 126 1269 m 171 146 q 194 161 176 161 q 211 139 214 158 q 188 122 207 122 q 171 146 168 125 m 171 251 q 177 266 171 260 q 190 272 183 272 q 211 251 211 272 q 205 238 211 244 q 190 232 199 232 q 177 238 183 232 q 171 251 171 244 m 182 215 q 190 217 185 217 q 208 206 204 217 q 197 179 215 186 q 190 178 194 178 q 172 190 176 178 q 182 215 165 208 z "},"W":{"ha":1285,"x_min":-7,"x_max":1256,"o":"m 54 1289 q 119 1190 85 1221 q 200 1160 153 1160 q 264 1173 238 1160 q 307 1208 290 1186 q 333 1260 324 1231 q 346 1324 342 1290 q 354 1332 346 1331 q 369 1333 363 1333 l 464 1333 l 464 117 q 499 103 482 110 q 531 90 515 97 q 563 77 549 83 q 589 67 578 71 q 600 79 597 76 q 606 85 603 82 q 611 90 608 88 l 611 672 l 485 672 l 546 851 l 611 851 l 611 1206 q 628 1260 611 1236 q 672 1300 646 1283 q 729 1325 699 1317 q 786 1333 760 1333 q 846 1318 826 1333 q 826 1308 835 1318 q 811 1278 818 1300 q 807 1251 808 1267 q 806 1215 806 1235 l 806 851 l 932 851 l 874 672 l 806 672 l 806 142 q 903 105 854 124 q 1000 67 951 86 q 1010 79 1003 72 l 1021 90 l 1021 1206 q 1038 1258 1021 1235 q 1082 1299 1056 1282 q 1139 1324 1108 1315 q 1196 1333 1169 1333 q 1256 1318 1236 1333 q 1235 1308 1243 1318 q 1221 1278 1228 1301 q 1217 1251 1218 1267 q 1215 1215 1215 1235 l 1215 119 q 1143 99 1179 119 q 1074 47 1107 78 q 1016 -21 1042 15 q 974 -87 990 -57 q 951 -129 951 -126 l 919 -112 q 862 -90 894 -103 q 789 -62 829 -78 q 708 -31 749 -47 q 626 3 668 -14 l 624 1 q 590 -46 604 -24 q 564 -87 575 -68 q 540 -129 544 -125 l 510 -112 q 499 -109 504 -111 q 486 -104 493 -107 q 464 -94 472 -99 l 464 -146 q 499 -161 481 -150 q 528 -193 517 -172 q 498 -230 511 -206 q 486 -285 485 -254 q 374 -246 435 -246 q 246 -293 303 -246 q 258 -244 246 -269 q 295 -197 271 -218 q 355 -160 319 -175 q 435 -142 390 -144 l 435 15 q 382 -40 410 -11 q 326 -97 354 -69 q 256 -22 290 -58 q 185 54 221 15 q 219 114 213 82 q 226 181 226 146 q 226 326 226 243 q 225 496 225 408 q 225 668 225 583 q 225 821 225 753 q 225 933 225 889 q 225 982 225 978 q 111 1036 161 999 q 42 1136 61 1074 q 33 1211 31 1172 q 54 1289 35 1250 m 93 1301 q 123 1370 93 1340 q 201 1400 153 1400 q 279 1369 247 1400 q 310 1294 311 1339 q 277 1218 310 1250 q 200 1188 244 1186 q 124 1222 156 1188 q 93 1301 92 1256 m 406 879 q 404 872 404 876 q 404 813 404 869 q 404 675 404 757 q 405 497 404 593 q 406 319 406 401 q 406 181 406 238 q 406 122 406 125 q 419 99 406 99 q 433 124 433 99 q 433 204 433 143 q 433 347 433 265 q 433 517 433 428 q 432 684 432 607 q 432 813 432 761 q 432 871 432 865 q 418 886 432 886 q 406 879 410 886 m 90 1150 q 176 1080 125 1097 q 290 1061 228 1063 q 290 993 290 1057 q 290 835 290 929 q 289 632 289 742 q 288 426 289 522 q 288 259 288 329 q 288 175 288 189 q 297 164 288 164 q 307 176 307 164 q 308 626 307 400 q 308 1078 308 853 q 301 1085 308 1085 q 281 1082 290 1082 q 260 1082 271 1082 q 169 1099 213 1082 q 90 1150 126 1115 m 4 1208 q 60 1053 13 1118 q 201 969 108 988 q 201 632 203 794 q 200 297 200 469 q 192 286 200 286 q 183 297 183 286 q 183 382 183 329 q 183 497 183 435 q 183 626 183 560 q 182 751 182 693 q 182 854 182 810 q 182 918 182 899 q 183 933 183 925 q 181 950 182 940 q 75 1009 119 971 q 7 1110 31 1047 q -5 1158 -3 1133 q 4 1208 -7 1183 m 406 1004 q 419 988 406 988 q 433 1003 433 988 l 433 1244 q 418 1260 433 1260 q 406 1246 406 1260 l 406 1004 m 406 917 q 417 914 411 914 q 440 938 440 914 q 417 961 440 961 q 406 958 411 961 q 393 938 393 954 q 406 917 393 921 m 143 1247 q 188 1367 121 1333 q 149 1357 167 1367 q 124 1328 132 1347 q 122 1287 117 1311 q 143 1247 126 1263 m 171 139 q 194 154 176 154 q 211 132 214 151 q 188 115 207 115 q 171 139 168 118 m 190 265 q 211 244 211 265 q 205 231 211 238 q 190 225 199 225 q 177 231 183 225 q 171 244 171 238 q 177 259 171 253 q 190 265 183 265 m 182 208 q 190 210 185 210 q 208 199 204 210 q 197 172 215 179 q 190 171 194 171 q 172 183 176 171 q 182 208 165 201 z "},"X":{"ha":931,"x_min":-7,"x_max":915,"o":"m 54 1304 q 119 1206 85 1236 q 200 1175 153 1175 q 264 1188 238 1175 q 307 1224 290 1201 q 333 1276 324 1246 q 346 1339 342 1306 q 354 1347 346 1346 q 369 1349 363 1349 l 464 1349 l 464 703 q 533 678 499 690 q 572 663 567 665 q 615 646 593 653 q 621 651 618 649 q 626 657 624 654 q 636 668 629 661 l 636 1221 q 655 1276 636 1253 q 702 1316 674 1300 q 763 1340 731 1332 q 821 1349 794 1349 q 874 1335 853 1349 q 853 1324 861 1335 q 835 1280 838 1308 q 832 1232 832 1251 l 832 699 q 751 673 789 699 q 685 618 714 647 q 744 596 715 607 q 800 574 772 585 q 857 552 828 563 q 915 531 886 542 q 894 513 904 522 q 874 492 883 503 q 833 381 833 440 l 833 107 q 852 40 833 64 q 915 17 871 17 l 778 -137 q 707 -110 733 -132 q 660 -50 681 -87 q 639 72 639 -7 l 639 426 q 627 431 633 428 q 613 436 621 433 q 550 461 582 450 q 486 483 518 472 q 481 486 483 485 q 465 493 476 488 l 465 -131 q 499 -146 481 -135 q 529 -178 518 -157 q 498 -215 511 -190 q 488 -269 485 -239 q 374 -231 436 -231 q 246 -278 303 -231 q 258 -228 246 -254 q 295 -181 271 -203 q 355 -144 319 -160 q 436 -126 390 -129 l 436 31 q 383 -25 411 4 q 328 -82 356 -54 q 257 -6 292 -43 q 186 69 222 31 q 217 121 210 93 q 226 178 225 149 l 226 449 q 306 474 267 449 q 372 529 344 500 q 299 557 343 540 q 225 585 256 574 l 225 997 q 111 1051 161 1014 q 42 1151 61 1089 q 33 1226 31 1188 q 54 1304 35 1265 m 93 1317 q 123 1385 93 1356 q 201 1415 153 1415 q 279 1385 247 1415 q 310 1310 311 1354 q 277 1233 310 1265 q 200 1203 244 1201 q 124 1237 156 1203 q 93 1317 92 1271 m 4 1224 q 60 1068 13 1133 q 201 985 108 1003 q 201 647 203 810 q 200 313 200 485 q 192 301 200 301 q 183 313 183 301 q 183 397 183 344 q 183 513 183 450 q 183 642 183 575 q 182 767 182 708 q 182 869 182 825 q 182 933 182 914 q 183 948 183 940 q 181 965 182 956 q 75 1024 119 986 q 7 1125 31 1063 q -5 1174 -3 1149 q 4 1224 -7 1199 m 406 138 q 419 114 406 114 q 433 139 433 114 l 433 485 q 406 460 419 467 l 406 138 m 290 1076 q 290 1048 290 1074 q 290 981 290 1022 q 290 884 290 939 q 289 768 289 829 l 308 761 l 308 1093 q 301 1100 308 1100 q 281 1097 290 1097 q 260 1097 271 1097 q 169 1114 213 1097 q 90 1165 126 1131 q 176 1095 125 1113 q 290 1076 228 1078 m 433 1018 l 433 1260 q 418 1275 433 1275 q 406 1261 406 1275 l 406 1019 q 419 1003 406 1003 q 433 1018 433 1003 m 288 389 l 288 143 q 297 132 288 132 q 307 144 307 132 l 307 389 q 297 399 307 399 q 288 389 288 399 m 406 894 q 404 888 404 892 l 404 725 q 417 721 410 724 q 432 715 424 718 l 432 886 q 418 901 432 901 q 406 894 410 901 m 406 932 q 417 929 411 929 q 433 936 426 929 q 440 953 440 943 q 433 969 440 963 q 417 976 426 976 q 406 974 411 976 q 393 953 393 969 q 406 932 393 936 m 143 1263 q 188 1382 121 1349 q 149 1372 167 1382 q 124 1343 132 1363 q 122 1302 117 1326 q 143 1263 126 1278 m 171 260 q 177 274 171 268 q 190 281 183 281 q 211 260 211 281 q 205 247 211 253 q 190 240 199 240 q 177 247 183 240 q 171 260 171 253 m 172 154 q 181 167 174 165 q 196 169 188 169 q 210 146 214 164 q 201 133 208 135 q 186 131 194 131 q 174 140 178 133 q 172 154 169 147 m 171 206 q 190 226 171 226 q 210 206 210 226 q 190 186 210 186 q 171 206 171 186 z "},"Y":{"ha":951,"x_min":-7,"x_max":921,"o":"m 54 1296 q 119 1197 85 1228 q 200 1167 153 1167 q 264 1180 238 1167 q 307 1215 290 1193 q 333 1267 324 1238 q 346 1331 342 1297 q 354 1339 346 1338 q 369 1340 363 1340 l 464 1340 l 464 694 q 532 669 499 682 q 572 654 565 657 q 621 635 590 647 q 664 619 651 624 q 674 624 667 621 q 683 628 681 626 l 683 1203 q 702 1258 683 1235 q 749 1298 721 1282 q 810 1322 778 1314 q 868 1331 842 1331 q 921 1317 900 1331 q 900 1306 908 1317 q 882 1261 885 1290 q 879 1213 879 1232 l 879 68 q 799 43 835 68 q 732 -10 764 18 q 712 -31 721 -21 q 696 -53 703 -42 q 661 -98 676 -76 q 635 -139 646 -119 q 611 -179 613 -179 q 556 -150 582 -164 q 507 -126 532 -139 q 465 -107 482 -114 l 465 -139 q 499 -154 481 -143 q 529 -186 518 -165 q 498 -223 511 -199 q 488 -278 485 -247 q 374 -239 436 -239 q 246 -286 303 -239 q 258 -237 246 -262 q 295 -190 271 -211 q 355 -153 319 -168 q 436 -135 390 -137 l 436 22 q 383 -33 411 -4 q 328 -90 356 -62 q 257 -15 292 -51 q 186 61 222 22 q 217 113 210 85 q 226 169 225 140 l 226 440 q 304 465 267 440 q 332 485 319 474 l 406 447 l 406 129 q 419 106 406 106 q 433 131 433 106 l 433 433 l 465 415 l 465 104 q 516 83 485 97 q 578 55 547 69 q 633 29 608 40 q 663 15 657 18 q 667 22 665 18 q 672 28 669 25 l 683 39 l 683 519 q 669 500 679 514 q 649 470 660 486 q 629 442 638 454 q 618 425 621 429 q 599 432 608 429 q 584 438 592 435 q 572 443 576 442 q 554 450 567 446 q 528 460 542 454 q 502 469 514 465 q 486 475 490 474 q 481 478 483 476 q 465 485 476 479 l 372 521 q 299 549 343 532 q 225 576 256 565 l 225 989 q 111 1043 161 1006 q 42 1143 61 1081 q 33 1218 31 1179 q 54 1296 35 1257 m 93 1308 q 123 1377 93 1347 q 201 1407 153 1407 q 279 1376 247 1407 q 310 1301 311 1346 q 277 1225 310 1257 q 200 1194 244 1193 q 124 1228 156 1194 q 93 1308 92 1263 m 4 1215 q 60 1060 13 1125 q 201 976 108 994 q 201 639 203 801 q 200 304 200 476 q 192 293 200 293 q 183 304 183 293 q 183 389 183 336 q 183 504 183 442 q 183 633 183 567 q 182 758 182 700 q 182 861 182 817 q 182 925 182 906 q 183 940 183 932 q 181 957 182 947 q 75 1016 119 978 q 7 1117 31 1054 q -5 1165 -3 1140 q 4 1215 -7 1190 m 90 1157 q 176 1087 125 1104 q 290 1068 228 1069 q 290 1040 290 1065 q 290 972 290 1014 q 290 876 290 931 q 289 760 289 821 l 308 753 l 308 1085 q 301 1092 308 1092 q 281 1089 290 1089 q 260 1089 271 1089 q 169 1106 213 1089 q 90 1157 126 1122 m 433 1010 l 433 1251 q 418 1267 433 1267 q 406 1253 406 1267 l 406 1011 q 419 994 406 994 q 433 1010 433 994 m 288 381 l 288 135 q 297 124 288 124 q 307 136 307 124 l 307 381 q 297 390 307 390 q 288 381 288 390 m 404 717 q 417 713 410 715 q 432 707 424 710 l 432 878 q 418 893 432 893 q 406 886 410 893 q 404 879 404 883 l 404 717 m 406 924 q 417 921 411 921 q 433 928 426 921 q 440 944 440 935 q 433 961 440 954 q 417 968 426 968 q 406 965 411 968 q 393 944 393 961 q 406 924 393 928 m 143 1254 q 188 1374 121 1340 q 149 1364 167 1374 q 124 1335 132 1354 q 122 1294 117 1318 q 143 1254 126 1269 m 171 144 q 193 163 174 163 q 211 140 211 160 q 189 122 208 119 q 171 144 168 125 m 171 251 q 177 266 171 260 q 190 272 183 272 q 211 251 211 272 q 205 238 211 244 q 190 232 199 232 q 177 238 183 232 q 171 251 171 244 m 182 215 q 190 217 185 217 q 208 206 204 217 q 197 179 215 186 q 190 178 194 178 q 172 190 176 178 q 182 215 165 208 z "},"Z":{"ha":842,"x_min":24,"x_max":847,"o":"m 79 1078 q 94 1074 86 1076 q 108 1069 101 1072 l 110 1069 q 90 1095 103 1085 q 65 1115 78 1106 q 65 1177 65 1147 q 65 1236 64 1207 q 91 1312 68 1290 q 168 1333 114 1333 l 238 1333 l 376 1333 l 471 1333 l 478 1333 q 494 1325 494 1333 q 509 1260 500 1290 q 535 1208 518 1231 q 578 1174 553 1186 q 643 1161 604 1161 q 723 1191 689 1161 q 786 1289 757 1221 q 799 1138 825 1213 q 729 1038 779 1075 q 615 982 679 1000 l 615 738 q 407 675 511 708 l 407 124 q 421 100 407 100 q 435 122 435 100 q 435 196 435 128 q 436 399 435 264 l 532 440 q 533 371 532 403 q 533 308 533 339 q 533 246 533 278 q 533 176 533 214 q 542 164 533 164 q 551 176 551 164 l 551 447 l 614 481 l 614 181 q 620 114 614 146 q 654 54 626 82 q 583 -21 618 17 q 513 -97 549 -58 q 457 -39 485 -68 q 404 17 429 -10 q 405 -64 404 -24 q 406 -142 406 -104 q 485 -160 450 -144 q 545 -197 521 -175 q 582 -244 569 -218 q 594 -293 594 -269 q 467 -246 538 -246 q 353 -285 404 -246 q 342 -229 356 -254 q 311 -192 329 -204 q 341 -160 322 -171 q 376 -146 360 -149 l 376 -69 q 340 -80 356 -71 q 306 -92 324 -89 q 260 -20 283 -56 q 210 45 238 15 q 147 98 182 75 q 67 132 113 121 q 66 142 67 138 q 65 151 65 146 l 65 631 q 66 648 65 639 q 68 665 67 657 q 150 776 72 747 q 185 789 160 781 q 243 808 211 797 q 319 833 282 821 q 375 853 356 846 l 375 854 l 376 854 l 376 1260 l 288 1260 q 256 1246 268 1258 q 243 1214 243 1233 l 243 1025 q 242 1001 243 1014 q 243 978 242 989 q 250 940 244 958 q 271 907 256 922 q 248 899 261 903 q 224 896 235 896 q 178 917 203 896 q 149 944 163 931 q 119 972 135 957 q 76 1010 99 992 q 24 1033 54 1028 q 67 1079 35 1079 q 79 1078 75 1079 m 267 83 q 320 103 293 93 q 376 125 347 114 l 376 661 q 269 615 294 651 q 243 504 243 578 l 243 129 q 246 103 243 115 q 267 83 249 90 m 531 1294 q 562 1370 531 1339 q 640 1401 593 1401 q 717 1371 688 1401 q 749 1301 747 1340 q 717 1222 749 1256 q 640 1188 685 1189 q 564 1219 596 1188 q 531 1294 532 1250 m 639 969 q 780 1053 731 989 q 836 1210 829 1118 q 845 1159 847 1185 q 833 1110 843 1133 q 765 1009 810 1047 q 658 950 719 971 q 658 907 658 947 q 658 804 658 867 q 658 667 658 742 q 657 521 657 593 q 657 389 657 449 q 657 297 657 329 q 649 286 657 286 q 640 297 640 286 q 639 633 640 471 q 639 969 638 796 m 532 792 l 551 785 l 551 1061 q 665 1080 614 1063 q 750 1150 715 1097 q 578 1082 675 1082 q 558 1083 568 1082 q 539 1085 549 1083 q 532 1078 532 1088 l 532 792 m 407 1244 l 407 1004 q 421 989 407 989 q 435 1004 435 989 l 435 1246 q 426 1260 435 1254 l 417 1260 q 407 1244 407 1256 m 400 938 q 407 921 400 928 q 424 914 414 914 q 442 921 435 914 q 449 938 449 928 q 424 963 449 963 q 407 956 414 963 q 400 938 400 946 m 653 1367 q 697 1322 685 1351 q 697 1249 708 1292 q 719 1287 715 1263 q 717 1329 724 1311 q 691 1358 708 1349 q 653 1367 674 1367 m 631 192 q 637 206 631 200 q 650 211 643 211 q 671 192 671 211 q 650 171 671 171 q 637 177 643 171 q 631 192 631 183 m 650 156 q 669 136 669 156 q 650 115 669 115 q 631 136 631 115 q 650 156 631 156 m 631 246 q 650 265 631 265 q 669 246 669 265 q 650 226 669 226 q 631 246 631 226 m 438 854 l 438 872 q 424 886 438 886 q 410 871 410 886 l 410 854 l 438 854 z "},"[":{"ha":467,"x_min":61,"x_max":396,"o":"m 396 1347 l 396 1174 l 222 1174 l 222 -156 l 396 -156 l 396 -329 l 61 -329 l 61 1347 l 396 1347 z "},"\\":{"ha":583,"x_min":69,"x_max":514,"o":"m 514 21 l 354 21 l 69 1347 l 231 1347 l 514 21 z "},"]":{"ha":467,"x_min":69,"x_max":404,"o":"m 69 1174 l 69 1347 l 404 1347 l 404 -329 l 69 -329 l 69 -156 l 244 -156 l 244 1174 l 69 1174 z "},"^":{"ha":746,"x_min":14,"x_max":732,"o":"m 732 1024 l 568 843 l 365 1094 l 182 846 l 14 1022 l 361 1442 l 365 1442 l 732 1024 z "},"_":{"ha":832,"x_min":6,"x_max":826,"o":"m 6 -179 l 6 14 l 826 14 l 826 -179 l 6 -179 z "},"a":{"ha":488,"x_min":32,"x_max":465,"o":"m 39 107 q 56 140 53 122 q 60 176 60 157 l 60 701 q 59 749 60 725 q 60 796 58 772 q 57 830 60 814 q 36 858 54 846 q 106 913 72 886 q 175 967 139 940 q 188 972 181 971 q 199 972 194 972 l 203 972 l 347 972 q 400 958 386 972 q 417 906 414 944 q 418 893 418 899 q 418 882 418 888 q 418 554 418 718 q 419 226 418 390 l 419 219 q 428 176 419 188 q 465 154 436 165 q 427 111 446 132 q 389 69 408 90 q 376 64 383 64 q 369 65 372 64 q 315 110 332 76 q 299 179 299 143 q 298 308 299 244 q 297 438 297 372 q 292 475 297 469 q 256 481 288 481 l 251 481 q 239 482 244 481 q 226 483 233 483 q 223 483 224 483 q 219 482 222 482 l 219 96 q 189 61 203 78 q 164 33 176 47 q 144 13 151 19 q 129 0 135 0 q 113 13 125 0 l 42 88 q 35 96 38 92 q 39 107 32 100 m 219 921 l 219 590 l 279 590 q 295 592 293 590 q 297 610 297 594 q 298 683 299 646 q 297 756 297 719 l 297 900 q 295 918 297 915 q 278 922 293 921 l 225 922 q 219 921 221 922 m 181 914 l 181 172 q 181 159 181 165 q 182 146 181 153 q 197 119 182 128 q 203 126 203 122 q 203 132 203 129 l 203 903 q 201 914 203 910 q 192 924 201 921 q 181 914 182 924 m 356 190 q 365 199 365 190 q 364 214 364 207 l 364 899 q 363 912 364 906 q 356 925 363 918 q 350 911 350 918 q 350 897 350 904 l 350 214 q 349 199 350 207 q 356 190 349 192 z "},"b":{"ha":510,"x_min":19,"x_max":492,"o":"m 26 118 q 43 153 33 136 q 68 182 53 169 q 79 207 79 192 q 80 285 79 247 q 78 363 81 324 q 77 395 76 379 q 78 426 78 411 q 78 799 75 613 q 75 830 78 815 q 54 856 72 844 q 82 876 69 867 q 108 897 94 886 q 148 928 128 913 q 188 958 168 943 q 200 965 194 963 q 214 968 206 968 q 299 969 257 968 q 383 969 340 969 q 435 953 419 968 q 451 901 450 938 l 451 811 q 449 790 451 800 q 436 774 447 781 q 425 756 429 771 q 449 761 442 761 q 471 753 461 761 q 467 726 492 735 q 431 704 447 718 q 392 663 410 685 q 356 619 374 640 q 357 599 344 608 q 394 574 375 585 q 438 561 414 563 q 453 544 453 561 q 452 522 451 533 q 453 497 453 510 l 453 175 q 451 151 453 156 q 429 143 449 147 q 392 126 411 140 q 356 92 374 111 q 325 52 339 72 q 303 18 311 32 q 286 0 294 0 q 268 6 279 0 q 236 18 265 7 q 169 44 207 29 q 94 72 132 58 q 36 94 57 86 q 21 103 22 100 q 26 118 19 106 m 239 517 l 239 508 l 239 157 q 250 142 239 146 q 278 131 264 136 q 306 119 292 125 q 315 118 308 118 q 331 135 326 118 q 331 145 332 140 q 331 156 331 150 l 331 529 q 331 540 331 535 q 331 551 332 546 q 313 569 326 569 q 297 564 304 569 q 281 553 289 558 q 263 544 272 547 q 239 517 240 539 m 239 594 q 242 583 239 592 q 304 628 278 599 q 331 699 331 657 l 331 901 q 314 918 331 918 l 253 918 q 239 904 239 918 l 239 607 l 239 594 m 199 518 l 199 175 q 204 160 200 167 q 215 156 208 154 q 222 163 222 158 q 222 174 222 168 l 222 517 q 211 528 222 528 q 199 518 200 528 m 199 576 q 207 572 201 575 q 222 600 222 571 l 222 893 q 221 908 222 904 q 211 918 221 918 q 199 910 200 918 l 199 599 q 197 587 199 593 q 199 576 196 581 z "},"c":{"ha":499,"x_min":17,"x_max":483,"o":"m 24 117 q 41 151 32 135 q 65 181 50 168 q 76 211 76 190 l 76 807 q 73 835 76 822 q 50 858 69 849 q 119 913 86 886 q 186 967 153 939 q 208 972 196 972 l 382 972 q 434 957 418 972 q 451 906 450 942 q 451 875 451 890 q 451 844 450 860 q 449 825 451 833 q 436 811 447 817 q 426 794 428 806 q 449 799 440 797 q 479 778 469 799 q 474 764 483 767 q 438 746 453 758 q 407 718 422 733 q 393 704 400 711 q 379 690 386 697 q 340 672 361 672 q 335 673 338 672 q 331 674 333 674 q 322 676 326 675 q 311 679 317 676 q 327 708 324 693 q 331 740 331 724 l 331 754 l 331 901 q 328 919 331 917 q 311 921 325 921 l 292 921 l 253 921 q 239 907 239 921 l 239 160 q 253 140 238 147 q 277 131 265 136 q 301 122 289 126 q 315 119 313 119 q 331 142 329 119 l 331 244 q 331 258 329 253 q 351 278 333 272 q 394 303 375 288 q 432 336 414 318 q 438 343 435 339 q 447 349 442 347 q 451 342 451 346 q 451 336 451 339 l 451 171 q 449 154 451 160 q 433 146 446 149 q 392 127 413 142 q 355 93 372 113 q 323 52 338 74 q 299 14 308 31 q 286 0 292 0 q 271 4 282 0 q 240 17 267 6 q 177 41 213 28 q 107 68 142 54 q 53 89 72 82 q 33 96 43 94 q 24 117 17 103 m 213 158 q 220 162 219 157 q 221 171 221 167 l 221 913 q 210 921 219 921 q 199 913 199 921 l 199 171 q 213 158 199 158 z "},"d":{"ha":499,"x_min":18,"x_max":451,"o":"m 78 801 q 74 834 78 819 q 50 860 69 849 q 122 913 88 888 q 192 963 157 938 q 224 972 206 972 l 382 972 q 433 957 418 972 q 450 906 447 942 q 451 893 451 899 q 451 882 451 888 l 451 183 q 451 176 451 181 q 451 168 450 172 q 438 150 451 154 q 386 126 408 143 q 344 88 364 110 q 318 51 331 69 q 294 13 306 32 q 283 3 290 3 q 246 17 282 3 q 166 48 210 31 q 83 81 122 65 q 36 99 44 96 q 19 108 21 104 q 25 125 18 111 q 42 158 33 142 q 67 185 51 174 q 78 213 78 194 l 78 385 l 78 801 m 329 164 l 329 524 l 329 886 l 329 907 q 315 921 329 921 l 271 921 l 263 921 q 239 917 240 921 q 238 889 238 913 l 238 361 q 238 265 238 313 q 236 171 238 218 q 254 143 236 149 q 278 135 267 140 q 301 125 290 129 q 314 122 310 122 q 329 143 328 122 q 330 153 331 149 q 329 164 329 158 m 140 190 q 178 172 160 179 q 217 160 197 165 q 221 172 221 167 q 221 185 221 178 l 221 894 l 221 911 q 208 921 221 921 q 197 911 197 921 l 197 888 l 197 260 l 197 239 q 183 215 199 224 q 163 203 172 210 q 140 190 153 197 z "},"e":{"ha":497,"x_min":15,"x_max":489,"o":"m 21 115 q 38 150 29 133 q 63 179 47 167 q 78 213 78 192 q 76 366 76 290 q 76 519 76 442 q 76 663 76 592 q 78 807 76 735 q 74 835 78 822 q 54 858 69 847 q 122 913 89 886 q 186 965 154 939 q 206 972 193 972 l 385 972 q 433 958 418 972 q 450 910 447 943 q 451 888 451 899 q 450 867 450 878 q 450 831 453 849 q 428 803 447 814 q 424 794 426 801 q 426 794 425 794 q 428 793 426 793 q 435 795 432 793 q 443 797 439 797 q 457 797 450 797 q 471 789 464 796 q 465 763 489 771 q 426 738 446 757 q 400 713 413 725 q 375 688 388 700 q 342 672 360 672 q 331 674 335 672 q 311 682 321 676 q 328 710 325 694 q 331 743 331 726 l 331 899 q 328 918 331 915 q 310 921 325 921 l 290 921 l 254 921 q 238 904 238 921 l 238 618 q 240 598 238 601 q 260 594 243 594 l 365 594 q 368 585 369 589 q 364 576 367 581 q 349 533 357 554 q 333 489 340 511 q 332 485 332 486 q 331 482 332 485 q 310 474 326 474 l 251 474 q 238 460 238 474 l 238 175 q 240 150 238 153 q 264 138 242 147 q 281 130 272 133 q 300 122 290 126 q 314 119 311 119 q 331 143 331 119 l 331 260 q 340 274 331 269 q 393 303 369 285 q 438 344 417 321 q 441 347 440 346 q 444 349 442 347 l 447 349 q 451 340 451 344 q 450 329 450 335 l 450 174 q 448 153 450 157 q 431 146 446 150 q 355 94 386 131 q 300 19 324 58 q 283 -1 289 -1 q 265 7 281 -1 q 235 18 263 8 q 174 42 208 28 q 104 69 139 56 q 50 90 69 82 q 40 94 44 92 q 29 97 35 96 q 21 115 15 101 m 199 913 l 199 176 q 218 158 199 158 q 221 169 221 164 q 221 179 221 174 l 221 913 q 210 921 219 921 q 199 913 199 921 z "},"f":{"ha":458,"x_min":31,"x_max":465,"o":"m 40 113 q 56 142 53 126 q 58 175 58 157 l 58 806 q 55 835 60 822 q 35 858 50 849 q 49 872 42 867 q 64 883 57 876 q 113 920 88 903 q 163 957 138 938 q 210 972 182 972 l 256 972 l 350 972 l 378 972 q 429 926 421 968 q 433 878 433 903 q 432 829 432 853 q 424 817 432 821 q 406 793 411 808 q 429 799 415 796 q 460 778 453 799 q 454 764 465 768 q 417 745 433 758 q 386 717 401 732 q 372 703 379 710 q 358 689 365 696 q 322 672 342 672 q 292 681 308 672 q 310 713 308 696 q 313 749 313 731 l 313 900 q 310 918 313 915 q 290 921 307 921 l 272 921 l 238 921 l 233 921 q 219 903 218 921 l 219 618 q 222 598 219 601 q 243 594 225 594 l 349 594 q 347 575 351 583 q 340 558 343 567 q 327 523 333 540 q 315 489 321 506 q 297 474 308 474 l 294 474 l 236 474 q 219 464 221 474 l 219 457 l 219 94 q 203 76 217 90 q 173 44 189 61 q 144 15 157 28 q 128 1 131 1 q 115 13 126 1 q 78 51 96 32 q 42 89 61 69 q 40 113 31 100 m 181 910 l 181 150 q 199 121 183 129 q 203 133 203 128 q 203 143 203 138 l 203 896 q 201 911 203 906 q 192 921 201 921 q 181 910 181 921 z "},"g":{"ha":508,"x_min":18,"x_max":482,"o":"m 22 115 q 38 150 29 133 q 63 178 47 167 q 74 194 72 185 q 76 214 76 203 l 76 803 q 74 834 78 819 q 51 858 71 849 q 121 912 88 886 q 186 964 154 938 q 213 972 199 972 l 385 972 q 451 907 447 972 q 451 873 451 890 q 451 839 450 856 q 439 813 451 821 q 431 806 435 810 q 425 797 428 801 q 432 796 428 796 q 438 797 435 796 q 446 799 442 799 q 478 782 467 799 q 481 771 481 775 q 471 764 482 767 q 440 748 453 758 q 414 725 426 738 q 396 707 404 717 q 376 689 388 697 q 342 672 360 672 q 331 674 335 672 q 313 681 319 676 q 323 694 318 688 q 329 710 328 701 q 331 727 331 718 q 331 744 331 736 l 331 900 q 328 918 331 915 q 310 921 325 921 l 292 921 l 254 921 l 251 921 q 239 907 238 921 l 239 542 l 239 532 q 243 521 239 528 q 257 549 250 536 q 271 578 264 563 q 282 594 276 590 q 301 599 288 599 l 428 599 q 448 596 444 599 q 451 578 451 593 l 451 171 q 448 154 451 160 q 432 146 444 149 q 394 128 414 143 q 356 94 374 114 q 324 54 339 75 q 301 18 310 33 q 285 1 292 1 q 247 15 282 1 q 171 44 213 28 q 92 76 129 61 q 46 93 54 90 q 38 96 42 94 q 31 99 35 97 q 22 115 18 103 m 239 465 l 239 160 q 249 143 239 147 q 278 132 264 138 q 308 121 293 126 q 315 119 311 119 q 329 133 326 119 q 331 153 331 140 l 331 464 q 317 479 331 479 l 296 479 l 251 479 q 239 465 239 479 m 199 907 l 199 171 q 214 158 201 158 q 221 163 221 158 q 221 172 221 168 l 221 908 q 210 921 221 921 q 199 907 196 921 z "},"h":{"ha":504,"x_min":32,"x_max":483,"o":"m 42 113 q 56 139 53 124 q 60 171 60 154 q 60 494 60 333 q 61 818 60 656 q 53 843 61 833 q 35 861 46 853 q 99 914 67 889 q 163 963 131 939 q 168 967 165 965 q 174 971 171 968 q 194 976 183 976 q 214 972 206 976 q 221 960 222 969 q 219 944 219 951 l 219 622 q 223 599 219 603 q 246 596 226 596 l 279 596 l 296 596 q 314 615 314 596 l 314 889 q 342 946 314 925 q 380 966 361 958 q 421 974 399 974 q 454 969 438 974 q 435 929 438 950 q 433 886 433 908 q 435 573 435 729 q 435 260 435 417 q 435 257 436 258 q 443 215 433 232 q 483 190 453 197 q 443 146 463 167 q 404 104 424 125 q 394 100 400 100 q 390 101 392 100 q 385 101 388 101 q 331 145 349 113 q 314 214 314 178 l 314 461 q 301 475 314 475 l 299 475 l 233 475 q 219 461 219 475 q 220 451 221 456 q 219 439 219 446 l 219 104 q 192 71 204 86 q 153 25 168 40 q 129 6 136 6 q 106 25 125 6 q 74 58 90 42 q 42 92 58 75 q 42 113 32 103 m 182 915 l 182 150 q 199 124 185 131 q 203 132 203 128 q 203 140 203 136 l 203 915 q 190 922 201 922 q 182 915 182 922 z "},"i":{"ha":272,"x_min":32,"x_max":219,"o":"m 219 100 q 189 65 203 82 q 164 36 176 50 q 144 15 151 22 q 129 3 135 3 q 113 15 125 3 l 42 90 q 35 99 38 96 q 39 110 32 103 q 56 142 53 125 q 60 179 60 160 l 60 704 q 59 752 60 728 q 60 800 58 776 q 57 834 60 818 q 36 861 54 850 q 106 916 72 889 q 175 969 140 943 q 192 975 182 975 q 213 972 199 975 q 219 963 219 972 l 219 943 l 219 100 m 182 149 q 197 122 182 131 q 203 129 203 125 q 203 136 203 133 l 203 907 q 201 917 203 914 q 192 926 201 926 q 181 918 183 926 l 181 896 l 181 175 q 181 162 181 168 q 182 149 181 156 z "},"j":{"ha":499,"x_min":18,"x_max":450,"o":"m 63 181 q 75 213 76 194 l 75 431 q 122 393 99 410 q 175 365 146 376 q 194 356 192 360 q 197 335 197 353 l 197 186 q 200 167 197 171 q 218 157 203 163 q 251 144 235 150 q 283 132 268 139 q 289 144 289 139 q 289 156 289 150 l 289 906 q 272 924 289 924 l 214 924 q 197 907 196 924 q 197 874 197 890 q 197 843 196 858 q 195 826 197 833 q 183 815 193 819 q 169 793 171 808 q 197 799 185 799 q 221 786 213 799 q 215 765 232 771 q 192 756 201 763 q 172 739 182 749 q 147 714 160 726 q 121 690 135 701 q 85 674 104 674 q 80 674 82 674 q 75 675 78 675 q 65 678 69 676 q 56 682 61 679 q 70 703 67 692 q 75 725 74 714 l 75 746 l 75 807 q 73 836 76 822 q 54 860 69 850 q 60 869 56 867 q 69 875 65 872 q 130 919 100 897 q 190 964 160 940 q 226 975 206 975 l 383 975 q 433 958 418 974 q 450 908 447 943 l 450 163 q 440 150 450 151 q 395 128 418 144 q 353 90 372 113 q 321 41 335 67 q 301 -8 307 15 q 167 46 233 19 q 32 99 100 72 q 18 104 24 101 q 35 146 25 126 q 63 181 44 165 m 307 131 q 313 121 307 122 q 324 126 317 119 q 330 140 331 133 q 329 154 329 147 l 329 914 q 318 922 328 922 q 307 915 307 922 l 307 893 q 306 708 306 800 q 306 521 306 615 l 306 151 q 307 131 306 138 z "},"k":{"ha":503,"x_min":32,"x_max":481,"o":"m 39 111 q 56 143 53 126 q 58 178 58 160 l 58 799 q 56 835 58 826 q 36 863 53 843 q 104 916 69 890 q 174 968 139 942 q 196 975 182 975 q 204 974 200 975 q 213 974 208 974 q 219 964 219 974 q 221 943 221 957 l 221 597 q 229 601 228 597 q 233 610 231 606 q 260 646 246 629 q 293 675 274 663 q 313 718 313 689 q 312 799 311 758 q 311 882 313 840 q 345 949 311 926 q 419 972 379 972 q 453 968 436 972 q 434 928 435 950 q 433 885 433 907 q 433 809 433 847 q 432 733 433 771 q 436 719 432 726 q 433 704 440 711 q 420 697 428 699 q 406 693 413 696 q 340 656 367 678 q 285 607 313 635 q 282 596 285 607 l 411 596 q 430 593 426 596 q 433 574 433 590 l 433 219 q 442 178 433 190 q 481 156 450 167 q 467 141 474 149 q 454 126 461 133 q 433 103 443 115 q 411 79 422 90 q 390 65 399 65 q 383 67 388 65 q 372 71 379 68 q 323 126 333 90 q 313 201 313 163 l 313 465 q 301 475 311 475 l 231 475 q 221 465 221 475 l 221 96 q 179 53 199 72 q 149 21 164 36 q 129 0 135 6 q 83 49 106 25 q 39 96 61 72 q 39 111 32 104 m 181 153 q 199 125 183 132 q 203 138 203 132 q 203 151 203 144 l 203 910 q 190 922 203 922 q 181 911 181 922 l 181 176 q 180 164 181 169 q 181 153 179 158 z "},"l":{"ha":453,"x_min":17,"x_max":451,"o":"m 269 7 q 239 19 267 8 q 175 44 211 29 q 103 72 139 58 q 47 93 67 86 q 40 96 43 94 q 32 99 36 97 q 24 118 17 103 q 39 151 31 135 q 63 181 47 168 q 74 197 72 188 q 76 217 76 206 l 76 560 l 76 803 q 74 836 78 821 q 53 861 71 851 q 84 888 63 869 q 130 924 106 906 q 177 958 154 943 q 210 975 200 974 q 216 976 213 975 q 222 976 219 976 q 239 949 239 976 l 239 181 q 239 160 239 167 q 241 150 239 153 q 249 145 243 147 q 268 138 256 143 q 291 128 272 135 q 314 121 310 121 q 331 139 328 121 l 331 168 l 331 256 q 331 267 331 261 q 340 275 332 272 q 393 305 369 286 q 439 346 417 324 q 449 351 446 353 q 451 345 451 349 q 451 339 451 342 l 451 171 q 449 156 451 161 q 436 149 447 150 q 394 130 414 144 q 356 97 374 115 q 324 56 338 78 q 299 17 310 35 q 285 0 289 0 q 269 7 281 0 m 199 181 q 218 160 197 160 q 220 226 219 168 q 222 369 221 285 q 222 549 222 453 q 220 727 221 644 q 218 866 219 810 q 215 926 217 922 q 199 907 194 924 l 199 893 l 199 193 l 199 181 z "},"m":{"ha":761,"x_min":33,"x_max":736,"o":"m 33 101 q 57 140 53 119 q 61 185 61 161 l 61 800 q 58 835 61 819 q 35 861 54 850 q 102 916 69 889 q 168 969 135 943 q 189 976 176 976 q 214 974 197 976 q 221 968 221 974 q 221 958 221 963 l 221 899 l 225 899 q 231 902 229 899 q 236 908 233 906 q 330 962 279 949 q 436 979 381 975 q 454 977 443 979 q 465 964 465 975 q 457 958 465 961 q 436 935 440 954 q 434 895 433 915 q 435 856 435 875 q 447 863 443 858 q 453 871 450 867 q 690 979 549 979 q 708 977 704 979 q 721 963 713 975 q 692 944 697 958 q 688 911 688 929 q 689 565 689 738 q 689 218 689 392 q 699 178 689 194 q 736 156 710 163 q 661 72 697 113 q 649 65 654 65 q 639 68 644 65 q 600 90 614 74 q 578 126 586 106 q 569 170 571 147 q 568 214 568 193 l 568 903 q 561 906 563 906 q 556 903 558 906 q 550 900 553 901 q 467 809 499 860 q 435 689 435 758 l 435 619 l 435 613 q 453 601 438 601 l 488 601 q 504 601 496 601 q 521 600 513 601 q 522 590 524 594 q 518 582 519 586 q 506 555 511 568 q 496 528 500 542 q 483 501 490 513 q 458 489 476 489 q 447 490 451 489 q 435 478 435 493 l 435 469 q 435 345 435 407 q 436 221 435 283 q 444 189 436 197 q 476 174 453 181 q 479 172 478 172 q 477 163 481 165 q 471 157 474 160 q 433 117 451 138 q 397 78 415 97 q 383 68 388 68 q 372 76 381 68 q 334 117 353 97 q 296 158 315 138 q 296 178 286 168 q 310 205 307 190 q 314 236 314 219 q 315 352 314 294 q 314 468 315 410 q 311 488 314 485 q 293 490 308 490 l 242 490 q 260 543 251 518 q 276 593 268 568 q 292 601 279 601 l 296 601 q 311 605 307 601 q 315 619 315 608 q 314 757 314 689 q 313 894 314 825 q 308 906 313 901 q 238 835 254 881 q 221 735 221 789 l 221 99 l 179 53 q 149 19 164 35 q 129 -3 135 3 q 81 50 104 25 q 33 101 57 75 m 182 175 q 183 149 182 157 q 203 121 183 129 q 203 133 203 128 q 204 142 204 138 l 204 899 q 203 914 204 910 q 192 922 203 922 q 182 914 185 924 l 182 175 z "},"n":{"ha":506,"x_min":32,"x_max":481,"o":"m 433 219 q 443 179 435 192 q 481 156 451 167 q 443 114 461 135 q 407 74 425 93 q 389 67 400 67 l 383 67 q 339 99 356 75 q 319 137 324 117 q 313 179 314 157 q 312 198 311 189 q 313 217 313 207 l 313 872 l 313 906 q 265 880 283 899 q 238 836 247 861 q 224 783 228 811 q 221 729 221 754 l 221 96 q 183 57 201 75 q 153 26 168 42 q 128 0 138 10 q 83 49 104 25 q 39 96 61 72 q 39 111 32 104 q 56 142 53 126 q 58 178 58 158 l 58 799 q 57 833 58 817 q 33 860 56 850 q 103 915 68 890 q 172 968 139 940 q 193 975 181 975 q 203 974 199 975 q 213 974 207 974 q 220 969 219 974 q 221 960 221 964 l 221 901 q 226 899 226 899 q 229 901 226 899 q 327 961 274 946 q 439 979 381 976 q 460 974 450 979 q 465 967 465 971 q 457 960 464 963 q 439 944 443 954 q 433 922 435 935 l 433 904 l 433 233 l 433 219 m 181 151 q 199 125 183 132 q 203 138 203 132 q 203 150 203 143 l 203 897 q 201 915 203 910 q 193 922 201 922 q 181 915 181 922 q 179 892 179 907 l 179 178 q 179 165 179 171 q 181 151 179 158 z "},"o":{"ha":500,"x_min":15,"x_max":451,"o":"m 269 7 q 239 19 267 8 q 176 43 211 29 q 105 71 140 57 q 50 92 69 85 q 40 96 44 94 q 32 99 36 97 q 22 119 15 103 q 40 153 31 136 q 64 183 49 169 q 74 197 72 190 q 76 213 76 203 l 76 426 l 76 810 q 74 838 76 825 q 56 858 71 851 q 63 866 58 865 q 71 869 67 867 q 124 904 103 882 q 160 956 144 926 q 189 975 169 975 l 251 975 l 376 975 q 397 974 390 975 q 447 933 436 969 q 451 897 451 915 l 451 175 q 449 156 451 160 q 431 147 446 153 q 352 95 386 135 q 296 15 318 56 q 285 1 290 1 q 279 3 282 1 q 269 7 276 4 m 331 157 l 331 524 l 331 888 l 331 904 q 327 922 329 919 q 311 924 325 924 l 272 924 l 258 924 q 240 919 242 924 q 239 892 239 915 l 239 179 l 239 161 q 250 144 238 149 q 278 133 264 139 q 306 124 292 128 q 314 121 311 121 q 329 136 326 121 q 331 157 331 143 m 221 194 l 221 540 l 221 894 q 219 915 221 908 q 208 924 219 924 q 199 914 199 924 q 197 901 197 910 l 197 186 q 199 172 197 178 q 213 160 199 163 q 219 165 219 160 q 221 174 219 169 l 221 194 z "},"p":{"ha":467,"x_min":33,"x_max":464,"o":"m 218 101 q 183 61 199 79 q 156 30 169 44 q 138 8 143 15 q 128 3 132 3 q 121 8 125 3 q 80 51 100 31 q 39 94 60 72 q 35 103 33 100 q 40 113 36 107 q 55 140 51 125 q 58 171 58 156 q 58 494 58 333 q 60 818 58 656 q 38 860 60 844 q 42 869 38 867 q 51 875 47 872 q 112 919 82 897 q 172 964 142 940 q 207 975 190 975 l 363 975 q 415 959 400 974 q 432 906 431 944 q 433 836 433 871 q 432 767 432 801 l 432 692 q 431 654 432 672 q 410 625 431 636 q 408 622 408 624 q 406 617 408 619 q 429 621 422 619 q 461 601 451 621 q 456 586 464 589 q 414 564 431 581 q 381 529 397 547 q 346 492 363 510 q 311 454 329 474 q 275 422 294 436 q 232 399 256 407 q 218 379 218 393 q 219 357 219 368 q 218 335 218 346 l 218 101 m 218 469 l 218 443 q 313 567 313 475 l 313 896 l 313 910 q 299 924 313 924 l 233 924 q 218 910 218 924 q 219 901 219 906 q 218 894 218 897 l 218 469 m 201 461 l 201 678 l 201 894 l 201 915 q 190 924 201 924 q 181 915 183 924 l 181 894 l 181 458 l 181 443 q 181 435 181 439 q 188 431 181 432 q 201 443 201 431 l 201 461 m 181 151 q 201 122 181 133 l 201 375 q 200 384 201 381 q 192 388 199 388 q 181 374 181 388 l 181 151 z "},"q":{"ha":500,"x_min":19,"x_max":511,"o":"m 26 125 q 42 155 33 140 q 63 181 50 169 q 78 219 78 194 l 78 439 q 77 622 78 531 q 78 806 76 714 q 74 837 78 822 q 51 863 69 851 q 119 900 93 875 q 163 961 146 925 q 185 975 168 975 q 288 975 236 975 q 390 974 339 975 q 432 960 418 974 q 450 919 446 947 q 451 904 450 913 q 451 889 451 896 l 451 181 q 450 163 451 168 q 440 150 450 151 q 360 102 397 140 q 303 24 322 64 q 367 -1 336 13 q 431 -22 399 -14 q 451 -25 444 -25 q 511 -1 481 -25 q 497 -39 504 -22 q 481 -71 490 -56 q 449 -97 467 -92 q 407 -101 431 -101 q 384 -97 396 -100 q 361 -89 372 -93 q 301 -66 331 -78 q 239 -47 271 -54 q 225 -39 228 -44 q 221 -24 222 -33 q 224 3 221 -11 q 218 25 226 17 q 199 37 211 33 q 175 44 186 40 q 106 71 140 58 q 36 97 72 83 q 20 107 21 104 q 26 125 19 110 m 239 892 l 239 165 q 256 143 238 147 q 278 134 267 139 q 301 125 290 129 q 315 122 313 122 q 331 144 329 122 q 331 153 332 149 q 331 163 331 158 l 331 910 q 317 924 332 924 l 272 924 l 264 924 q 240 919 242 924 q 239 892 239 915 m 221 160 q 222 170 221 165 q 222 181 222 175 l 222 913 q 211 924 222 924 q 199 913 199 924 l 199 179 q 217 160 197 160 l 221 160 z "},"r":{"ha":504,"x_min":32,"x_max":482,"o":"m 60 185 q 60 806 58 496 q 56 837 60 822 q 33 861 53 851 q 102 917 69 889 q 171 969 135 946 q 193 975 181 975 l 365 975 q 417 958 401 974 q 433 907 432 943 q 434 820 435 863 q 433 733 433 778 q 424 711 433 718 q 408 690 411 704 q 421 693 415 692 q 433 694 426 694 q 454 685 446 694 q 464 664 463 676 q 421 643 439 658 q 388 610 403 628 q 353 572 369 590 q 319 533 336 553 q 313 522 313 526 q 322 510 313 517 q 359 495 338 499 q 400 492 381 492 l 435 492 l 447 492 q 435 453 436 472 q 435 414 433 433 l 435 214 q 482 157 435 167 q 443 113 463 133 q 404 71 424 92 q 393 65 399 65 q 383 68 389 65 q 326 123 339 83 q 313 203 313 163 l 313 446 q 313 454 313 450 q 313 463 314 458 q 310 467 313 464 l 276 492 q 268 490 275 493 q 228 471 247 476 q 219 458 222 468 l 219 438 q 219 322 219 382 q 219 213 219 263 q 219 129 219 163 q 219 93 219 96 q 183 56 201 72 q 153 24 168 40 q 128 0 139 8 q 81 51 104 26 q 32 103 57 76 q 56 140 51 119 q 60 185 60 161 m 219 533 q 224 518 219 526 q 245 527 236 521 q 263 540 254 533 q 313 617 307 569 q 314 628 314 622 q 314 642 314 635 q 313 672 314 657 q 313 701 313 686 q 312 790 311 746 q 313 879 313 835 l 313 908 q 299 924 315 924 l 235 924 q 219 907 219 924 l 219 546 l 219 533 m 181 915 l 181 515 q 183 507 181 508 q 192 506 185 506 q 200 511 199 506 q 201 515 201 513 q 202 522 203 518 q 201 529 201 526 l 201 915 q 193 924 201 924 q 181 915 182 924 m 200 122 q 201 136 201 129 l 201 450 q 193 461 201 461 q 181 450 182 461 l 181 165 q 183 143 181 154 q 200 122 186 132 z "},"s":{"ha":507,"x_min":19,"x_max":485,"o":"m 29 131 q 44 160 36 146 q 68 186 53 175 q 77 200 76 193 q 76 214 78 207 q 74 267 75 242 q 76 319 74 293 q 77 334 76 326 q 78 349 78 342 q 88 361 81 357 q 140 386 115 371 q 188 418 164 401 q 192 421 190 421 q 197 418 192 421 q 199 413 199 417 q 199 403 200 408 q 199 393 199 399 l 199 171 q 215 160 203 160 q 221 165 221 161 q 221 172 221 169 q 222 178 222 175 q 221 186 221 182 l 221 500 l 221 515 q 217 525 221 522 q 197 532 213 528 l 135 553 q 103 564 119 560 q 69 568 88 568 q 46 565 63 568 q 65 618 46 594 q 78 660 78 635 q 78 804 75 731 q 74 837 78 822 q 51 863 69 851 q 119 915 86 890 q 183 963 151 939 q 217 975 199 975 l 272 975 l 383 975 q 434 960 419 974 q 451 910 449 946 q 452 876 453 893 q 453 843 451 860 q 439 815 453 824 q 424 796 428 808 q 435 799 431 797 q 446 800 440 800 q 464 798 457 800 q 476 785 471 796 q 471 767 485 772 q 426 739 447 760 q 401 714 414 726 q 375 690 388 701 q 340 675 357 675 q 335 676 338 675 q 331 676 333 676 q 310 683 317 679 q 326 707 322 694 q 331 735 331 719 l 331 757 l 331 904 q 328 922 331 919 q 311 924 325 924 l 256 924 q 238 907 238 924 q 238 663 240 783 q 242 647 238 651 q 256 640 247 643 l 393 594 q 450 517 447 574 q 451 504 451 510 q 451 493 451 499 q 451 333 451 413 q 453 174 451 253 q 432 147 453 153 q 386 125 406 140 q 350 90 367 110 q 297 15 317 56 q 282 3 292 3 q 244 16 278 3 q 168 46 210 29 q 90 77 126 63 q 43 96 53 92 q 22 107 24 103 q 29 131 19 111 m 242 151 q 270 135 253 139 q 303 124 288 131 l 306 124 q 314 122 308 122 q 329 136 328 122 q 331 154 331 142 l 331 401 q 330 426 331 414 q 328 449 329 438 q 296 498 322 485 q 238 517 269 511 l 238 488 q 238 350 238 418 q 239 214 238 282 q 235 181 239 199 q 242 151 232 163 m 199 675 q 203 659 199 663 q 219 656 208 656 q 221 658 221 658 l 221 910 q 210 924 221 924 q 200 919 201 924 q 199 907 199 914 l 199 675 z "},"t":{"ha":564,"x_min":-8,"x_max":575,"o":"m 533 818 q 515 796 519 811 q 526 799 521 797 q 538 800 532 800 q 569 781 558 800 q 564 767 575 771 q 528 747 543 760 q 497 721 513 735 l 469 693 q 431 675 451 675 q 401 682 418 675 q 419 718 417 699 q 421 757 421 738 l 421 904 q 417 922 421 918 q 399 925 413 925 q 383 921 392 925 q 381 911 381 919 l 381 888 l 381 100 q 343 60 361 79 q 313 26 328 43 q 289 0 299 10 q 244 47 265 24 q 200 93 222 69 q 199 111 192 101 q 215 140 211 124 q 218 172 218 156 l 218 817 q 193 861 218 846 q 228 890 213 876 q 261 918 244 904 q 251 924 258 924 l 247 924 l 158 924 q 142 908 142 924 q 143 815 143 861 q 143 724 143 769 q 149 702 143 711 q 161 682 154 693 q 132 675 144 675 q 97 689 111 675 q 85 701 90 696 q 72 713 79 706 q 35 747 54 732 q -8 769 17 763 q 3 793 -3 786 q 22 800 8 800 q 33 799 26 800 q 46 797 39 799 q 42 808 46 804 q 36 814 39 811 q 26 822 32 819 q 21 831 21 824 q 22 859 22 846 q 22 886 21 872 q 32 894 22 892 q 81 928 57 911 q 126 967 104 946 q 150 975 135 975 q 315 975 233 975 q 478 974 396 975 q 540 918 535 974 q 542 876 543 897 q 543 836 542 856 q 533 818 543 824 m 342 147 q 360 124 344 129 q 363 137 364 131 q 363 150 363 143 l 363 896 l 363 915 q 351 924 363 924 q 340 915 340 924 q 339 894 339 908 q 339 535 339 714 q 340 176 339 357 q 340 162 340 169 q 342 147 340 154 z "},"u":{"ha":533,"x_min":18,"x_max":519,"o":"m 513 118 q 519 115 511 118 q 473 58 496 86 q 426 0 450 29 q 388 43 407 22 q 349 86 368 64 q 319 53 336 76 q 296 14 303 29 q 282 1 290 1 q 245 15 281 1 q 167 47 210 29 q 85 79 124 64 q 39 97 46 94 q 20 108 22 104 q 26 126 18 111 q 44 158 35 142 q 68 186 53 175 q 76 199 75 192 q 76 213 76 206 l 76 381 l 76 806 q 74 837 78 822 q 51 863 69 851 q 119 917 86 890 q 185 969 151 943 q 206 975 194 975 q 218 974 213 975 q 231 974 224 974 q 239 965 239 974 l 239 942 l 239 188 l 239 169 q 257 142 238 149 q 281 133 269 139 q 306 124 293 128 q 315 121 314 121 q 331 138 328 121 l 331 161 q 331 514 331 339 q 329 867 331 689 q 331 903 329 886 q 347 936 332 921 q 392 965 367 954 q 443 975 417 975 q 471 968 454 975 q 453 930 456 950 q 451 889 451 910 l 451 197 q 513 118 451 135 m 221 194 l 221 540 l 221 893 l 221 914 q 210 924 219 924 q 199 915 199 924 l 199 897 l 199 189 q 198 181 199 185 q 199 171 197 176 q 204 163 200 164 q 215 161 208 161 q 221 165 221 161 q 221 174 221 169 l 221 194 z "},"v":{"ha":503,"x_min":32,"x_max":476,"o":"m 435 1007 q 476 996 461 1007 q 461 989 467 996 q 449 958 451 979 q 447 926 447 938 l 447 200 q 411 192 431 200 q 394 184 403 189 q 378 174 386 179 q 325 121 350 150 q 282 58 300 92 q 267 31 267 31 q 233 51 250 40 q 205 68 219 60 q 179 83 190 76 q 159 62 168 72 q 144 46 150 51 q 129 33 135 33 q 113 46 125 33 l 42 121 q 35 129 38 125 q 39 140 32 133 q 56 173 53 156 q 60 210 60 190 l 60 735 q 59 782 60 758 q 60 829 58 806 q 57 863 60 847 q 36 892 54 879 q 106 946 72 919 q 175 1000 140 972 q 192 1006 182 1006 q 210 1004 200 1006 q 219 992 219 1003 l 219 974 l 219 207 l 300 164 q 306 172 301 167 q 314 179 311 178 l 314 919 q 333 965 314 943 q 381 994 354 985 q 406 1003 393 1001 q 435 1007 419 1006 m 203 215 l 203 936 q 201 947 203 943 q 192 957 201 954 q 181 947 182 957 l 181 926 l 181 226 l 203 215 z "},"w":{"ha":775,"x_min":32,"x_max":747,"o":"m 39 140 q 56 173 53 156 q 60 210 60 190 l 60 735 q 59 782 60 758 q 60 829 58 806 q 57 863 60 847 q 36 892 54 879 q 106 946 72 919 q 175 1000 140 972 q 192 1006 182 1006 q 210 1004 200 1006 q 219 992 219 1003 l 219 178 l 289 136 q 294 143 292 139 q 300 150 297 147 q 307 157 300 150 l 307 554 l 221 554 l 263 678 l 307 678 l 307 918 q 326 964 307 944 q 372 994 344 983 q 426 1006 400 1006 q 468 996 454 1006 q 453 988 458 996 q 444 967 447 979 q 441 944 442 956 q 440 925 440 932 l 440 678 l 526 678 l 486 554 l 440 554 l 440 193 q 507 169 474 182 q 572 142 540 157 q 580 149 574 143 q 586 157 586 156 l 586 918 q 607 964 586 946 q 653 994 625 983 q 707 1006 681 1006 q 747 996 733 1006 q 732 988 738 996 q 724 967 726 979 q 720 944 721 956 q 719 925 719 932 l 719 178 q 666 160 694 178 q 619 125 638 143 l 594 96 q 583 80 592 93 q 564 52 574 67 q 547 24 554 38 q 539 8 539 11 l 518 19 q 478 35 500 26 q 429 54 457 43 q 374 76 401 65 q 317 97 346 86 l 315 96 q 292 65 303 79 q 275 36 282 50 q 258 8 263 13 l 164 69 q 153 56 160 64 q 144 46 147 49 q 129 33 135 33 q 113 46 125 33 l 42 121 q 35 129 38 125 q 39 140 32 133 m 181 947 l 181 201 l 203 188 l 203 936 q 201 947 203 943 q 192 957 201 954 q 181 947 182 957 z "},"x":{"ha":547,"x_min":32,"x_max":524,"o":"m 39 140 q 56 173 53 156 q 60 210 60 190 l 60 365 q 95 382 81 369 q 119 408 110 394 q 139 442 131 424 l 60 478 l 60 735 q 59 782 60 758 q 60 829 58 806 q 57 863 60 847 q 36 892 54 879 q 106 946 72 919 q 175 1000 140 972 q 192 1006 182 1006 q 210 1004 200 1006 q 219 992 219 1003 l 219 564 q 265 547 243 556 q 289 538 286 539 q 303 532 296 535 q 319 526 311 529 l 326 533 q 330 538 329 536 q 333 542 331 539 l 333 918 q 347 957 333 940 q 379 984 360 974 q 421 1000 399 994 q 461 1006 443 1006 q 496 996 482 1006 q 481 989 488 996 q 469 958 471 974 q 467 926 467 943 l 467 563 q 411 544 436 563 q 367 507 386 526 q 407 492 388 500 q 446 476 426 483 q 485 462 465 469 q 524 447 504 454 q 483 403 499 425 q 468 346 468 381 l 468 158 q 474 126 468 139 q 496 101 479 113 q 524 96 507 96 l 431 -8 q 384 7 403 -7 q 354 42 365 21 q 339 87 343 63 q 335 135 335 111 l 335 376 q 328 379 332 378 q 317 383 324 381 q 303 388 310 386 q 290 393 297 390 q 260 404 283 396 q 231 415 238 413 l 219 421 l 219 129 q 189 94 203 111 q 164 67 176 81 q 144 46 151 53 q 129 33 135 33 q 113 46 125 33 l 42 121 q 35 129 38 125 q 39 140 32 133 m 181 947 l 181 206 q 181 192 181 199 q 182 179 181 186 q 197 153 182 161 q 203 159 203 156 q 203 165 203 163 l 203 936 q 201 947 203 943 q 192 957 201 954 q 181 947 182 957 z "},"y":{"ha":553,"x_min":32,"x_max":522,"o":"m 39 140 q 56 173 53 156 q 60 210 60 190 l 60 379 q 74 393 60 393 q 79 392 78 393 l 219 329 l 219 160 q 255 144 235 154 q 294 126 275 135 q 327 110 313 117 q 346 103 342 104 q 354 110 349 104 q 361 118 356 113 l 361 446 q 351 432 358 442 q 338 412 344 422 q 324 393 331 401 q 317 382 318 385 l 60 485 l 60 735 q 59 782 60 758 q 60 829 58 806 q 57 863 60 847 q 36 892 54 879 q 106 946 72 919 q 175 1000 140 972 q 192 1006 182 1006 q 210 1004 200 1006 q 219 992 219 1003 l 219 563 q 262 547 242 554 q 285 538 282 539 q 318 525 297 533 q 347 514 339 517 q 354 517 350 515 q 361 519 358 518 l 361 913 q 381 958 361 936 q 426 988 400 978 q 481 1000 453 997 q 522 989 508 1000 q 508 982 514 989 q 497 951 499 972 q 494 919 494 931 l 494 138 q 458 131 476 138 q 409 99 432 118 q 369 56 386 79 q 328 -4 344 26 q 311 -32 313 -32 q 272 -11 292 -21 q 240 6 257 -3 q 211 18 222 14 l 211 121 q 197 103 206 114 q 178 82 188 93 q 159 61 168 71 q 144 46 150 51 q 129 33 135 33 q 113 46 125 33 l 42 121 q 35 129 38 125 q 39 140 32 133 m 201 568 q 202 752 201 660 q 203 936 203 844 q 201 947 203 943 q 192 957 201 954 q 181 947 182 957 l 181 576 l 201 568 m 181 206 q 181 192 181 199 q 182 179 181 186 q 197 153 182 161 q 203 159 203 156 q 203 165 203 163 l 203 317 l 181 326 l 181 206 z "},"z":{"ha":469,"x_min":25,"x_max":438,"o":"m 25 800 q 36 825 29 818 q 63 832 43 832 q 73 829 68 831 q 83 826 78 828 q 70 844 78 838 q 54 857 63 850 q 53 899 54 878 q 54 940 53 919 q 72 991 57 976 q 124 1006 88 1006 l 171 1006 l 267 1006 l 267 1004 q 273 1005 269 1004 q 279 1006 276 1006 q 294 1000 288 1006 q 363 946 329 972 q 433 892 397 919 q 413 863 417 879 q 410 829 410 847 q 410 782 411 806 q 410 735 410 758 l 410 601 q 371 588 392 594 q 332 574 353 581 q 289 558 311 567 q 268 551 275 553 q 258 547 263 549 q 250 544 254 546 q 223 534 235 538 q 207 528 211 531 q 186 508 192 521 q 178 482 181 496 q 176 461 176 471 q 175 440 175 451 l 175 185 q 177 167 175 175 q 192 153 179 158 q 220 164 206 158 q 250 176 235 169 l 250 426 q 256 426 253 426 q 261 428 258 428 q 268 429 264 428 q 305 434 283 429 q 347 448 326 439 q 385 469 368 457 q 410 493 401 481 l 410 210 q 413 173 410 190 q 431 140 417 156 q 435 129 438 133 q 428 121 432 125 l 357 46 q 342 33 347 33 q 325 46 338 33 q 316 56 322 50 q 303 69 310 63 l 217 33 q 186 82 201 58 q 152 126 171 106 q 110 163 133 147 q 54 186 86 179 q 53 192 54 189 q 53 199 53 196 l 53 526 q 53 538 53 533 q 56 550 54 543 q 111 625 60 607 q 135 634 118 628 q 175 647 153 640 q 215 661 194 654 q 250 674 235 668 l 250 956 l 206 956 q 184 947 193 956 q 175 925 175 938 l 175 796 l 175 763 q 180 738 176 749 q 194 715 183 726 q 175 708 181 710 q 163 707 171 707 q 122 726 143 707 q 90 760 101 746 q 60 785 75 774 q 25 800 46 797 m 268 678 l 289 685 l 289 947 q 278 957 288 957 q 268 947 268 954 l 268 678 m 268 185 l 289 196 l 289 363 l 268 358 l 268 185 z "},"{":{"ha":481,"x_min":31,"x_max":410,"o":"m 31 660 q 80 704 63 671 q 97 769 97 738 l 97 1056 q 103 1169 93 1128 q 117 1217 110 1199 q 157 1278 136 1253 q 214 1321 178 1303 q 228 1328 221 1325 q 244 1335 236 1332 q 344 1350 293 1350 q 376 1349 360 1350 q 410 1344 393 1347 q 343 1315 371 1335 q 292 1263 315 1294 q 272 1179 272 1231 l 272 818 q 260 735 272 768 q 246 706 253 718 q 232 686 239 693 q 192 660 214 664 q 232 632 214 654 q 256 590 247 617 q 269 542 265 563 q 272 518 271 531 q 272 490 272 506 l 272 92 q 276 -22 272 36 q 288 -98 276 -64 q 343 -150 300 -132 q 379 -157 357 -157 q 394 -156 386 -157 q 410 -154 403 -156 q 310 -192 368 -186 q 211 -177 257 -192 q 129 -119 165 -162 q 97 -35 97 -83 l 97 533 q 63 629 97 590 q 46 644 51 640 l 31 660 z "},"|":{"ha":283,"x_min":61,"x_max":222,"o":"m 61 -329 l 61 1347 l 222 1347 l 222 -329 l 61 -329 z "},"}":{"ha":481,"x_min":69,"x_max":449,"o":"m 69 -154 q 85 -156 78 -156 q 100 -157 93 -157 q 136 -150 122 -157 q 185 -112 163 -139 q 204 -22 204 -85 q 206 35 206 7 q 207 92 207 64 l 207 490 q 211 542 207 519 q 215 563 213 553 q 219 581 217 572 q 245 629 229 606 q 289 660 261 653 q 246 688 261 664 q 219 735 231 711 q 207 818 207 768 l 207 1179 q 188 1263 207 1231 q 137 1315 164 1296 q 69 1344 110 1335 q 103 1349 86 1347 q 135 1350 119 1350 q 235 1335 186 1350 q 267 1322 249 1332 q 296 1303 285 1311 q 348 1243 326 1276 q 376 1169 369 1210 q 382 1056 386 1128 l 382 769 q 399 705 382 738 q 449 660 417 672 l 433 644 q 426 638 429 642 q 417 629 422 633 q 404 611 410 621 q 393 589 399 601 q 382 533 382 568 l 382 -35 q 349 -122 382 -83 q 272 -175 317 -160 q 222 -189 244 -186 q 169 -192 199 -192 q 69 -154 111 -185 z "},"~":{"ha":799,"x_min":19,"x_max":775,"o":"m 775 696 q 774 681 775 692 q 774 653 774 671 q 769 615 772 635 q 763 574 767 596 q 694 442 743 497 q 561 388 646 388 q 462 413 504 388 q 376 471 419 438 q 351 491 364 482 q 326 510 339 500 q 275 533 297 528 q 258 533 268 533 q 233 531 247 532 q 178 490 210 526 q 169 478 174 483 q 161 465 165 472 q 155 455 158 460 q 149 444 151 450 q 142 433 144 439 q 138 422 140 428 l 19 481 q 54 552 32 517 q 106 617 76 588 q 173 664 136 646 q 250 682 210 682 q 297 676 275 682 q 381 644 347 669 q 416 619 399 632 q 449 596 433 607 q 524 542 494 558 q 563 532 542 532 q 594 538 579 532 q 618 564 608 547 q 638 610 628 579 q 640 624 639 617 q 640 639 640 632 q 641 652 640 646 q 643 665 642 658 q 644 689 643 682 l 775 696 z "},"":{"ha":294,"x_min":0,"x_max":0,"o":""},"":{"ha":0,"x_min":0,"x_max":0,"o":""},"":{"ha":865,"x_min":-7,"x_max":850,"o":"m 58 1196 q 122 1098 88 1128 q 201 1068 156 1068 q 310 1115 279 1068 q 351 1232 342 1161 q 368 1240 351 1240 l 375 1240 l 672 1240 q 755 1217 731 1240 q 782 1135 779 1193 q 782 1080 782 1132 q 782 944 782 1028 q 781 753 782 860 q 781 538 781 647 q 781 324 781 428 q 781 140 781 219 q 794 74 781 100 q 850 33 807 47 q 788 -35 818 -1 q 728 -101 757 -68 q 635 -47 669 -90 q 601 97 601 -3 l 601 517 l 468 517 l 468 -239 q 503 -253 485 -242 q 533 -286 522 -264 q 502 -323 515 -299 q 492 -378 489 -347 q 378 -339 440 -339 q 250 -386 307 -339 q 263 -337 250 -362 q 299 -290 275 -311 q 359 -253 324 -268 q 440 -235 394 -237 q 441 -157 440 -197 q 442 -76 442 -117 q 388 -132 417 -103 q 332 -190 360 -161 q 261 -115 296 -151 q 190 -39 226 -78 q 224 21 218 -11 q 231 88 231 53 l 231 889 q 117 944 167 907 q 47 1044 67 982 q 37 1119 35 1081 q 58 1196 39 1157 m 600 681 l 600 1139 q 579 1172 600 1161 q 533 1183 558 1183 q 488 1173 508 1183 q 468 1139 468 1163 l 468 681 l 600 681 m 97 1208 q 128 1278 99 1247 q 206 1308 158 1308 q 284 1276 253 1307 q 315 1201 315 1246 q 282 1125 314 1157 q 206 1094 250 1093 q 129 1128 161 1094 q 97 1208 97 1163 m 450 1592 l 563 1368 l 454 1368 l 282 1592 l 450 1592 m 408 779 q 408 720 408 776 q 408 582 408 664 q 409 404 408 500 q 410 226 410 308 q 410 88 410 144 q 410 29 410 32 q 424 6 410 6 q 438 31 438 6 q 438 111 438 50 q 438 253 438 172 q 437 425 438 335 q 436 592 436 515 q 436 720 436 668 q 436 778 436 772 q 422 793 436 793 q 408 779 408 793 m 294 968 q 294 900 294 964 q 294 742 294 836 q 294 539 294 649 q 293 333 293 429 q 293 167 293 236 q 293 83 293 97 q 303 71 293 71 q 311 83 311 71 q 313 534 311 307 q 314 985 314 761 q 307 992 314 994 q 286 989 296 989 q 265 989 276 989 q 175 1006 218 989 q 96 1057 132 1022 q 181 987 131 1004 q 294 968 232 969 m 696 103 q 697 628 696 367 q 697 1154 697 890 q 688 1167 697 1167 q 679 1154 679 1167 q 679 995 679 1092 q 679 788 679 899 q 678 565 679 678 q 678 356 678 451 q 678 191 678 260 q 678 103 678 122 q 688 92 678 92 q 696 103 696 92 m 4 1117 q 60 960 13 1025 q 201 876 107 896 q 201 539 203 701 q 200 204 200 376 q 192 193 200 193 q 183 204 183 193 q 183 289 183 236 q 183 405 183 342 q 183 534 183 468 q 182 658 182 600 q 182 761 182 717 q 182 825 182 806 q 183 840 183 832 q 181 857 182 849 q 75 917 119 879 q 7 1017 31 954 q -5 1065 -3 1040 q 4 1117 -7 1090 m 411 1153 l 411 911 q 425 894 411 894 q 439 911 439 894 l 439 1151 q 434 1163 439 1158 q 424 1167 429 1167 q 411 1153 411 1167 m 397 844 q 404 828 397 835 q 422 821 411 821 q 439 828 432 821 q 446 844 446 835 q 439 862 446 856 q 422 868 432 868 q 397 844 397 868 m 149 1156 q 193 1274 126 1240 q 154 1265 171 1274 q 129 1235 138 1256 q 126 1194 122 1218 q 149 1156 131 1169 m 176 57 q 192 63 182 63 q 206 57 200 63 q 206 28 218 43 q 192 22 197 22 q 176 28 185 22 q 176 57 164 43 m 190 118 q 210 97 210 118 q 190 78 210 78 q 171 97 171 78 q 190 118 171 118 m 176 167 q 192 172 182 172 q 206 167 200 172 q 206 139 218 151 q 192 133 200 133 q 176 139 182 133 q 176 167 164 151 z "},"":{"ha":867,"x_min":-6,"x_max":851,"o":"m 60 1203 q 123 1105 89 1135 q 203 1075 157 1075 q 312 1122 281 1075 q 353 1239 343 1168 q 369 1247 353 1247 l 376 1247 l 674 1247 q 756 1224 732 1247 q 783 1142 781 1200 q 783 1087 783 1139 q 783 951 783 1035 q 783 760 783 867 q 782 544 782 654 q 782 331 782 435 q 782 147 782 226 q 795 81 782 107 q 851 40 808 54 q 789 -28 819 6 q 729 -94 758 -61 q 637 -40 671 -83 q 603 104 603 4 l 603 524 l 469 524 l 469 -232 q 505 -246 486 -235 q 535 -279 524 -257 q 503 -316 517 -292 q 493 -371 490 -340 q 379 -332 442 -332 q 251 -379 308 -332 q 264 -330 251 -356 q 301 -283 276 -304 q 360 -246 325 -261 q 442 -228 396 -231 q 442 -150 442 -190 q 443 -69 443 -110 q 390 -125 418 -96 q 333 -183 361 -154 q 263 -108 297 -144 q 192 -32 228 -71 q 226 28 219 -4 q 232 94 232 60 l 232 896 q 118 951 168 914 q 49 1051 68 989 q 38 1126 36 1088 q 60 1203 40 1164 m 601 688 l 601 1146 q 581 1179 601 1168 q 535 1190 560 1190 q 490 1180 510 1190 q 469 1146 469 1169 l 469 688 l 601 688 m 99 1215 q 130 1285 100 1254 q 207 1315 160 1315 q 285 1283 254 1314 q 317 1208 317 1253 q 283 1132 315 1164 q 207 1101 251 1100 q 131 1135 163 1101 q 99 1215 99 1169 m 461 1375 l 574 1599 l 742 1599 l 569 1375 l 461 1375 m 411 36 q 425 13 411 13 q 439 38 439 13 q 439 118 439 57 q 439 260 439 179 q 438 432 439 342 q 438 599 438 522 q 438 727 438 675 q 438 785 438 779 q 424 800 438 800 q 410 786 410 800 q 410 727 410 783 q 410 589 410 671 q 410 411 410 507 q 411 233 411 315 q 411 95 411 151 q 411 36 411 39 m 97 1064 q 183 994 132 1011 q 296 975 233 976 q 296 907 296 971 q 296 749 296 843 q 295 546 296 656 q 294 340 294 436 q 294 174 294 243 q 294 90 294 104 q 304 78 294 78 q 313 90 313 78 q 314 541 313 314 q 315 992 315 768 q 308 999 315 1001 q 288 996 297 996 q 267 996 278 996 q 176 1013 219 996 q 97 1064 133 1029 m 679 110 q 689 99 679 99 q 697 110 697 99 q 698 635 697 374 q 699 1161 699 897 q 689 1174 699 1174 q 681 1161 681 1174 q 681 1002 681 1099 q 681 795 681 906 q 680 572 681 685 q 679 363 679 458 q 679 199 679 267 q 679 110 679 131 m 6 1124 q 61 967 14 1032 q 203 883 108 903 q 203 546 204 708 q 201 211 201 383 q 193 200 201 200 q 185 211 185 200 q 185 296 185 243 q 185 412 185 349 q 184 541 185 475 q 183 665 183 607 q 183 768 183 724 q 183 832 183 813 q 184 847 185 839 q 182 864 183 856 q 76 924 121 886 q 8 1024 32 961 q -3 1072 -1 1047 q 6 1124 -6 1097 m 440 918 l 440 1158 q 435 1169 440 1165 q 425 1174 431 1174 q 413 1160 413 1174 l 413 918 q 426 901 413 901 q 440 918 440 901 m 399 851 q 406 835 399 842 q 424 828 413 828 q 440 835 433 828 q 447 851 447 842 q 440 869 447 863 q 424 875 433 875 q 399 851 399 875 m 150 1163 q 194 1281 128 1247 q 156 1272 172 1281 q 131 1242 139 1263 q 128 1201 124 1225 q 150 1163 132 1176 m 174 167 q 193 179 179 179 q 200 178 197 179 q 211 151 218 169 q 192 139 206 139 q 185 140 188 139 q 174 151 178 143 q 174 167 171 160 m 189 69 q 213 53 208 69 q 196 29 215 33 q 172 46 176 29 q 189 69 169 65 m 172 104 q 192 125 172 125 q 211 104 211 125 q 192 85 211 85 q 172 104 172 85 z "},"":{"ha":867,"x_min":-6,"x_max":851,"o":"m 60 1203 q 123 1105 89 1135 q 203 1075 157 1075 q 312 1122 281 1075 q 353 1239 343 1168 q 369 1247 353 1247 l 376 1247 l 674 1247 q 756 1224 732 1247 q 783 1142 781 1200 q 783 1087 783 1139 q 783 951 783 1035 q 783 760 783 867 q 782 544 782 654 q 782 331 782 435 q 782 147 782 226 q 795 81 782 107 q 851 40 808 54 q 789 -28 819 6 q 729 -94 758 -61 q 637 -40 671 -83 q 603 104 603 4 l 603 524 l 469 524 l 469 -232 q 505 -246 486 -235 q 535 -279 524 -257 q 503 -316 517 -292 q 493 -371 490 -340 q 379 -332 442 -332 q 251 -379 308 -332 q 264 -330 251 -356 q 301 -283 276 -304 q 360 -246 325 -261 q 442 -228 396 -231 q 442 -150 442 -190 q 443 -69 443 -110 q 390 -125 418 -96 q 333 -183 361 -154 q 263 -108 297 -144 q 192 -32 228 -71 q 226 28 219 -4 q 232 94 232 60 l 232 896 q 118 951 168 914 q 49 1051 68 989 q 38 1126 36 1088 q 60 1203 40 1164 m 601 688 l 601 1146 q 581 1179 601 1168 q 535 1190 560 1190 q 490 1180 510 1190 q 469 1146 469 1169 l 469 688 l 601 688 m 433 1599 l 621 1599 l 733 1375 l 625 1375 l 528 1503 l 431 1375 l 322 1375 l 433 1599 m 207 1315 q 285 1283 254 1314 q 317 1208 317 1253 q 283 1132 315 1164 q 207 1101 251 1100 q 131 1135 163 1101 q 99 1215 99 1169 q 130 1285 100 1254 q 207 1315 160 1315 m 411 36 q 425 13 411 13 q 439 38 439 13 q 439 118 439 57 q 439 260 439 179 q 438 432 439 342 q 438 599 438 522 q 438 727 438 675 q 438 785 438 779 q 424 800 438 800 q 410 786 410 800 q 410 727 410 783 q 410 589 410 671 q 410 411 410 507 q 411 233 411 315 q 411 95 411 151 q 411 36 411 39 m 97 1064 q 183 994 132 1011 q 296 975 233 976 q 296 907 296 971 q 296 749 296 843 q 295 546 296 656 q 294 340 294 436 q 294 174 294 243 q 294 90 294 104 q 304 78 294 78 q 313 90 313 78 q 314 541 313 314 q 315 992 315 768 q 308 999 315 1001 q 288 996 297 996 q 267 996 278 996 q 176 1013 219 996 q 97 1064 133 1029 m 679 110 q 689 99 679 99 q 697 110 697 99 q 698 635 697 374 q 699 1161 699 897 q 689 1174 699 1174 q 681 1161 681 1174 q 681 1002 681 1099 q 681 795 681 906 q 680 572 681 685 q 679 363 679 458 q 679 199 679 267 q 679 110 679 131 m 6 1124 q 61 967 14 1032 q 203 883 108 903 q 203 546 204 708 q 201 211 201 383 q 193 200 201 200 q 185 211 185 200 q 185 296 185 243 q 185 412 185 349 q 184 541 185 475 q 183 665 183 607 q 183 768 183 724 q 183 832 183 813 q 184 847 185 839 q 182 864 183 856 q 76 924 121 886 q 8 1024 32 961 q -3 1072 -1 1047 q 6 1124 -6 1097 m 413 1160 l 413 918 q 426 901 413 901 q 440 918 440 901 l 440 1158 q 435 1169 440 1165 q 425 1174 431 1174 q 413 1160 413 1174 m 424 828 q 440 835 433 828 q 447 851 447 842 q 440 869 447 863 q 424 875 433 875 q 399 851 399 875 q 406 835 399 842 q 424 828 413 828 m 150 1163 q 194 1281 128 1247 q 156 1272 172 1281 q 131 1242 139 1263 q 128 1201 124 1225 q 150 1163 132 1176 m 174 57 q 193 69 179 69 q 200 68 197 69 q 210 57 207 65 q 211 42 214 49 q 192 29 206 29 q 185 31 188 29 q 174 42 178 33 q 174 57 171 50 m 189 179 q 213 163 208 179 q 196 140 215 143 q 172 156 178 140 q 189 179 169 176 m 189 125 q 203 122 196 126 q 211 108 210 117 q 194 85 214 89 q 172 101 174 85 q 189 125 169 121 z "},"":{"ha":867,"x_min":-7,"x_max":850,"o":"m 58 1258 q 122 1160 88 1190 q 201 1131 156 1131 q 310 1177 279 1131 q 351 1294 342 1224 q 368 1303 351 1303 l 375 1303 l 672 1303 q 755 1279 731 1303 q 782 1197 779 1256 q 782 1142 782 1194 q 782 1006 782 1090 q 781 816 782 922 q 781 600 781 710 q 781 386 781 490 q 781 203 781 282 q 794 136 781 163 q 850 96 807 110 q 788 28 818 61 q 728 -39 757 -6 q 635 16 669 -28 q 601 160 601 60 l 601 579 l 468 579 l 468 -176 q 503 -190 485 -179 q 533 -224 522 -201 q 502 -260 515 -236 q 492 -315 489 -285 q 378 -276 440 -276 q 250 -324 307 -276 q 263 -274 250 -300 q 299 -227 275 -249 q 359 -190 324 -206 q 440 -172 394 -175 q 441 -94 440 -135 q 442 -14 442 -54 q 388 -69 417 -40 q 332 -128 360 -99 q 261 -52 296 -89 q 190 24 226 -15 q 224 83 218 51 q 231 150 231 115 l 231 951 q 117 1007 167 969 q 47 1107 67 1044 q 37 1181 35 1143 q 58 1258 39 1219 m 468 743 l 600 743 l 600 1201 q 579 1235 600 1224 q 533 1246 558 1246 q 488 1235 508 1246 q 468 1201 468 1225 l 468 743 m 308 1503 q 343 1549 324 1528 q 385 1581 361 1567 q 436 1594 408 1594 q 460 1592 447 1594 q 485 1582 472 1589 q 547 1551 521 1563 q 592 1540 572 1540 q 631 1553 614 1540 q 671 1594 649 1567 l 729 1510 q 694 1471 714 1488 q 656 1444 679 1456 q 604 1432 632 1432 q 540 1451 571 1432 q 467 1475 501 1475 q 425 1467 443 1475 q 394 1449 407 1460 q 369 1422 381 1438 l 308 1503 m 97 1271 q 128 1340 99 1310 q 206 1371 158 1371 q 284 1339 253 1369 q 315 1264 315 1308 q 282 1188 314 1219 q 206 1157 250 1156 q 129 1191 161 1157 q 97 1271 97 1225 m 410 92 q 424 68 410 68 q 438 93 438 68 q 438 174 438 113 q 438 316 438 235 q 437 488 438 397 q 436 654 436 578 q 436 783 436 731 q 436 840 436 835 q 422 856 436 856 q 408 842 408 856 q 408 783 408 839 q 408 644 408 726 q 409 467 408 563 q 410 289 410 371 q 410 151 410 207 q 410 92 410 94 m 96 1119 q 181 1049 131 1067 q 294 1031 232 1032 q 294 963 294 1026 q 294 805 294 899 q 294 601 294 711 q 293 395 293 492 q 293 229 293 299 q 293 146 293 160 q 303 133 293 133 q 311 146 311 133 q 313 597 311 369 q 314 1047 314 824 q 307 1054 314 1057 q 286 1051 296 1051 q 265 1051 276 1051 q 175 1068 218 1051 q 96 1119 132 1085 m 678 165 q 688 154 678 154 q 696 165 696 154 q 697 691 696 429 q 697 1217 697 953 q 688 1229 697 1229 q 679 1217 679 1229 q 679 1058 679 1154 q 679 851 679 961 q 678 627 679 740 q 678 418 678 514 q 678 254 678 322 q 678 165 678 186 m 4 1179 q 60 1023 13 1088 q 201 939 107 958 q 201 601 203 764 q 200 267 200 439 q 192 256 200 256 q 183 267 183 256 q 183 351 183 299 q 183 467 183 404 q 183 597 183 531 q 182 721 182 663 q 182 824 182 779 q 182 888 182 868 q 183 903 183 894 q 181 919 182 911 q 75 979 119 942 q 7 1079 31 1017 q -5 1128 -3 1103 q 4 1179 -7 1153 m 411 1215 l 411 974 q 425 957 411 957 q 439 974 439 957 l 439 1214 q 434 1225 439 1221 q 424 1229 429 1229 q 411 1215 411 1229 m 422 883 q 439 890 432 883 q 446 907 446 897 q 439 924 446 918 q 422 931 432 931 q 397 907 397 931 q 404 890 397 897 q 422 883 411 883 m 149 1218 q 193 1336 126 1303 q 154 1327 171 1336 q 129 1297 138 1318 q 126 1256 122 1281 q 149 1218 131 1232 m 183 233 q 192 235 186 235 q 210 222 206 235 q 199 196 217 206 q 192 194 196 194 q 172 207 178 194 q 183 233 165 225 m 183 124 q 190 125 186 125 q 210 113 204 125 q 209 97 213 106 q 199 86 206 89 q 192 85 196 85 q 172 97 178 85 q 173 113 169 104 q 183 124 176 121 m 189 181 q 210 161 210 181 q 192 140 213 143 q 171 158 171 140 q 189 181 168 178 z "},"":{"ha":867,"x_min":-7,"x_max":850,"o":"m 58 1240 q 122 1142 88 1172 q 201 1113 156 1113 q 310 1159 279 1113 q 351 1276 342 1206 q 368 1285 351 1285 l 375 1285 l 672 1285 q 755 1261 731 1285 q 782 1179 779 1238 q 782 1124 782 1176 q 782 988 782 1072 q 781 798 782 904 q 781 582 781 692 q 781 368 781 472 q 781 185 781 264 q 794 118 781 144 q 850 78 807 92 q 788 10 818 43 q 728 -57 757 -24 q 635 -2 669 -46 q 601 142 601 42 l 601 561 l 468 561 l 468 -194 q 503 -208 485 -197 q 533 -242 522 -219 q 502 -278 515 -254 q 492 -333 489 -303 q 378 -294 440 -294 q 250 -342 307 -294 q 263 -292 250 -318 q 299 -245 275 -267 q 359 -208 324 -224 q 440 -190 394 -193 q 441 -112 440 -153 q 442 -32 442 -72 q 388 -87 417 -58 q 332 -146 360 -117 q 261 -70 296 -107 q 190 6 226 -33 q 224 65 218 33 q 231 132 231 97 l 231 933 q 117 989 167 951 q 47 1089 67 1026 q 37 1163 35 1125 q 58 1240 39 1201 m 468 1183 l 468 725 l 600 725 l 600 1183 q 579 1217 600 1206 q 533 1228 558 1228 q 488 1217 508 1228 q 468 1183 468 1207 m 206 1353 q 284 1321 253 1351 q 315 1246 315 1290 q 282 1169 314 1201 q 206 1139 250 1138 q 129 1173 161 1139 q 97 1253 97 1207 q 128 1322 99 1292 q 206 1353 158 1353 m 368 1589 q 404 1596 386 1596 q 456 1581 432 1596 q 490 1538 479 1565 q 491 1466 506 1501 q 440 1415 476 1431 q 406 1408 422 1408 q 353 1424 378 1408 q 318 1467 329 1439 q 317 1538 303 1503 q 368 1589 332 1574 m 542 1538 q 576 1581 553 1565 q 628 1596 600 1596 q 664 1589 646 1596 q 715 1538 700 1574 q 714 1467 729 1503 q 679 1424 703 1439 q 628 1410 656 1410 q 592 1417 607 1410 q 541 1467 556 1432 q 542 1538 526 1501 m 410 74 q 424 50 410 50 q 438 75 438 50 q 438 156 438 94 q 438 298 438 217 q 437 469 438 379 q 436 636 436 560 q 436 765 436 713 q 436 822 436 817 q 422 838 436 838 q 408 824 408 838 q 408 765 408 821 q 408 626 408 708 q 409 449 408 544 q 410 271 410 353 q 410 133 410 189 q 410 74 410 76 m 96 1101 q 181 1031 131 1049 q 294 1013 232 1014 q 294 944 294 1008 q 294 787 294 881 q 294 583 294 693 q 293 377 293 474 q 293 211 293 281 q 293 128 293 142 q 303 115 293 115 q 311 128 311 115 q 313 578 311 351 q 314 1029 314 806 q 307 1036 314 1039 q 286 1033 296 1033 q 265 1033 276 1033 q 175 1050 218 1033 q 96 1101 132 1067 m 696 147 q 697 673 696 411 q 697 1199 697 935 q 688 1211 697 1211 q 679 1199 679 1211 q 679 1040 679 1136 q 679 833 679 943 q 678 609 679 722 q 678 400 678 496 q 678 236 678 304 q 678 147 678 168 q 688 136 678 136 q 696 147 696 136 m 4 1161 q 60 1005 13 1069 q 201 921 107 940 q 201 583 203 746 q 200 249 200 421 q 192 238 200 238 q 183 249 183 238 q 183 333 183 281 q 183 449 183 386 q 183 578 183 513 q 182 703 182 644 q 182 806 182 761 q 182 869 182 850 q 183 885 183 876 q 181 901 182 893 q 75 961 119 924 q 7 1061 31 999 q -5 1110 -3 1085 q 4 1161 -7 1135 m 411 956 q 425 939 411 939 q 439 956 439 939 l 439 1196 q 434 1207 439 1203 q 424 1211 429 1211 q 411 1197 411 1211 l 411 956 m 422 865 q 439 872 432 865 q 446 889 446 879 q 439 906 446 900 q 422 913 432 913 q 397 889 397 913 q 404 872 397 879 q 422 865 411 865 m 149 1200 q 193 1318 126 1285 q 154 1309 171 1318 q 129 1279 138 1300 q 126 1238 122 1263 q 149 1200 131 1214 m 171 197 q 177 211 171 206 q 190 217 183 217 q 211 197 211 217 q 190 176 211 176 q 177 183 183 176 q 171 197 171 189 m 190 107 q 205 101 199 107 q 211 88 211 94 q 190 67 211 67 q 177 73 183 67 q 171 88 171 79 q 177 101 171 94 q 190 107 183 107 m 171 142 q 190 163 171 163 q 210 142 210 163 q 190 122 210 122 q 171 142 171 122 z "},"":{"ha":865,"x_min":-7,"x_max":850,"o":"m 58 1224 q 122 1126 88 1156 q 201 1096 156 1096 q 310 1142 279 1096 q 351 1260 342 1189 q 368 1268 351 1268 l 375 1268 l 672 1268 q 755 1244 731 1268 q 782 1163 779 1221 q 782 1108 782 1160 q 782 972 782 1056 q 781 781 782 888 q 781 565 781 675 q 781 351 781 456 q 781 168 781 247 q 794 101 781 128 q 850 61 807 75 q 788 -7 818 26 q 728 -74 757 -40 q 635 -19 669 -62 q 601 125 601 25 l 601 544 l 468 544 l 468 -211 q 503 -225 485 -214 q 533 -258 522 -236 q 502 -295 515 -271 q 492 -350 489 -319 q 378 -311 440 -311 q 250 -358 307 -311 q 263 -309 250 -335 q 299 -262 275 -283 q 359 -225 324 -240 q 440 -207 394 -210 q 441 -129 440 -169 q 442 -49 442 -89 q 388 -104 417 -75 q 332 -162 360 -133 q 261 -87 296 -124 q 190 -11 226 -50 q 224 49 218 17 q 231 115 231 81 l 231 917 q 117 972 167 935 q 47 1072 67 1010 q 37 1147 35 1108 q 58 1224 39 1185 m 468 708 l 600 708 l 600 1167 q 579 1200 600 1189 q 533 1211 558 1211 q 488 1201 508 1211 q 468 1167 468 1190 l 468 708 m 422 1486 q 455 1565 422 1532 q 535 1599 488 1599 q 615 1565 582 1599 q 647 1486 647 1532 q 615 1406 647 1439 q 535 1374 582 1374 q 455 1406 488 1374 q 422 1486 422 1439 m 206 1336 q 284 1304 253 1335 q 315 1229 315 1274 q 282 1153 314 1185 q 206 1122 250 1121 q 129 1156 161 1122 q 97 1236 97 1190 q 128 1306 99 1275 q 206 1336 158 1336 m 410 57 q 424 33 410 33 q 438 58 438 33 q 438 139 438 78 q 438 281 438 200 q 437 453 438 363 q 436 619 436 543 q 436 748 436 696 q 436 806 436 800 q 422 821 436 821 q 408 807 408 821 q 408 748 408 804 q 408 610 408 692 q 409 432 408 528 q 410 254 410 336 q 410 116 410 172 q 410 57 410 60 m 96 1085 q 181 1015 131 1032 q 294 996 232 997 q 294 928 294 992 q 294 770 294 864 q 294 567 294 676 q 293 360 293 457 q 293 194 293 264 q 293 111 293 125 q 303 99 293 99 q 311 111 311 99 q 313 562 311 335 q 314 1013 314 789 q 307 1019 314 1022 q 286 1017 296 1017 q 265 1017 276 1017 q 175 1033 218 1017 q 96 1085 132 1050 m 535 1411 q 587 1433 565 1411 q 608 1486 608 1454 q 587 1538 608 1517 q 535 1560 565 1560 q 481 1538 503 1560 q 460 1486 460 1517 q 481 1433 460 1454 q 535 1411 503 1411 m 678 131 q 688 119 678 119 q 696 131 696 119 q 697 656 696 394 q 697 1182 697 918 q 688 1194 697 1194 q 679 1182 679 1194 q 679 1023 679 1119 q 679 816 679 926 q 678 592 679 706 q 678 383 678 479 q 678 219 678 288 q 678 131 678 150 m 4 1144 q 60 988 13 1053 q 201 904 107 924 q 201 567 203 729 q 200 232 200 404 q 192 221 200 221 q 183 232 183 221 q 183 317 183 264 q 183 433 183 369 q 183 562 183 496 q 182 686 182 628 q 182 789 182 744 q 182 853 182 833 q 183 868 183 860 q 181 885 182 876 q 75 944 119 907 q 7 1044 31 982 q -5 1093 -3 1068 q 4 1144 -7 1118 m 411 939 q 425 922 411 922 q 439 939 439 922 l 439 1179 q 434 1190 439 1186 q 424 1194 429 1194 q 411 1181 411 1194 l 411 939 m 422 849 q 439 856 432 849 q 446 872 446 863 q 439 890 446 883 q 422 896 432 896 q 397 872 397 896 q 404 856 397 863 q 422 849 411 849 m 149 1183 q 193 1301 126 1268 q 154 1292 171 1301 q 129 1263 138 1283 q 126 1222 122 1246 q 149 1183 131 1197 m 172 188 q 192 200 178 200 q 199 199 196 200 q 209 188 206 196 q 210 172 213 179 q 190 160 204 160 q 183 161 186 160 q 173 172 176 164 q 172 188 169 181 m 188 90 q 211 74 207 90 q 194 50 214 54 q 171 67 175 50 q 188 90 168 86 m 171 125 q 190 146 171 146 q 210 125 210 146 q 190 106 210 106 q 171 125 171 106 z "},"":{"ha":661,"x_min":8,"x_max":654,"o":"m 19 169 q 42 217 31 193 q 76 257 54 240 q 90 276 88 265 q 93 299 93 286 q 92 430 92 365 q 92 561 92 494 q 92 841 92 701 q 93 1122 92 981 q 88 1161 93 1143 q 57 1193 82 1179 q 151 1269 106 1232 q 243 1342 197 1306 q 274 1350 254 1350 l 514 1350 q 585 1327 564 1349 q 608 1257 607 1306 q 609 1215 610 1236 q 610 1174 608 1194 q 607 1147 610 1158 q 589 1128 604 1135 q 575 1104 576 1121 q 606 1110 586 1107 q 649 1082 636 1110 q 640 1063 654 1068 q 590 1038 613 1056 q 549 1000 568 1019 l 510 961 q 456 936 485 936 q 417 946 436 936 q 441 995 439 969 q 443 1049 443 1021 q 442 1151 442 1100 q 442 1253 443 1201 q 438 1276 442 1272 q 415 1279 435 1279 l 389 1279 l 336 1279 q 315 1260 315 1279 q 316 1247 317 1253 q 315 1235 315 1242 l 315 250 q 316 240 315 244 q 315 228 317 235 q 335 201 315 210 q 369 190 353 196 q 403 176 386 183 q 422 172 415 172 q 442 203 442 172 q 443 256 443 231 q 443 308 443 282 q 443 327 443 318 q 442 346 443 336 q 471 392 438 378 q 531 426 504 404 q 583 471 558 447 q 592 482 588 476 q 604 489 596 488 q 609 481 610 486 q 608 472 608 476 q 609 358 610 414 q 610 243 608 301 q 606 219 610 228 q 585 208 603 211 q 531 183 558 204 q 478 135 503 163 q 432 77 453 107 q 399 26 411 47 q 381 7 388 7 q 360 14 376 7 q 350 17 361 14 l 350 -96 q 385 -108 368 -103 q 422 -121 403 -114 q 408 -126 411 -124 q 407 -133 406 -129 l 407 -285 q 414 -292 407 -290 q 428 -299 424 -294 q 439 -308 433 -304 q 432 -314 443 -312 q 426 -315 429 -314 q 421 -315 424 -315 q 388 -322 410 -318 q 346 -328 367 -325 q 309 -335 325 -332 q 290 -337 293 -337 q 285 -338 288 -337 q 282 -339 283 -339 q 278 -338 279 -339 q 274 -335 276 -337 q 226 -310 254 -319 q 211 -304 219 -307 q 192 -301 203 -301 q 183 -299 185 -300 q 182 -294 182 -297 l 182 -253 q 183 -250 182 -250 q 193 -253 188 -250 q 215 -261 204 -257 q 242 -268 226 -265 q 254 -274 253 -271 l 254 -276 q 254 -282 254 -276 l 254 -301 q 264 -307 254 -307 l 271 -307 q 285 -305 278 -306 q 301 -303 293 -304 q 310 -297 310 -301 q 310 -293 310 -297 l 310 -112 q 310 -108 310 -108 q 300 -104 310 -104 l 265 -104 q 256 -105 257 -104 q 254 -110 254 -106 l 254 -147 q 256 -159 254 -156 q 265 -165 257 -162 q 254 -167 261 -167 q 239 -166 246 -167 q 225 -162 232 -165 q 208 -156 219 -161 q 190 -149 199 -153 q 168 -144 181 -146 q 164 -140 163 -143 q 183 -136 171 -136 l 197 -136 q 190 -132 196 -135 q 182 -124 179 -131 q 181 -117 182 -121 q 182 -108 181 -112 q 222 -92 182 -92 l 290 -92 l 290 40 q 230 65 263 51 q 165 90 197 78 q 104 113 132 103 q 60 131 76 124 q 47 135 53 133 q 33 140 40 138 q 19 169 8 147 m 260 1267 l 260 243 q 267 230 261 233 q 281 226 274 226 q 290 231 290 225 q 292 244 290 238 l 292 1239 q 292 1253 292 1246 q 290 1268 292 1261 q 275 1279 290 1279 q 260 1267 263 1279 m 319 -112 l 319 -294 q 321 -297 321 -296 q 325 -297 321 -299 q 333 -294 333 -297 l 333 -107 q 326 -104 333 -104 q 321 -107 321 -104 q 319 -112 319 -108 z "},"":{"ha":829,"x_min":-6,"x_max":817,"o":"m 56 1204 q 120 1106 86 1136 q 200 1076 154 1076 q 265 1089 239 1076 q 307 1124 290 1101 q 333 1176 324 1146 q 347 1240 342 1206 q 364 1249 347 1249 l 371 1249 l 689 1249 q 772 1171 764 1244 q 776 1101 776 1135 q 775 1031 775 1067 q 752 1013 764 1021 q 736 989 740 1004 q 772 993 760 993 q 817 947 810 993 q 765 926 786 944 q 724 889 743 908 q 693 860 708 874 q 663 831 678 846 q 611 810 635 810 q 569 822 593 810 q 585 844 578 833 q 596 868 593 854 q 599 895 599 882 q 600 922 600 908 q 599 1028 600 975 q 599 1135 599 1082 q 588 1165 599 1158 q 558 1172 576 1172 l 465 1172 l 465 696 l 658 696 q 626 607 642 650 q 594 518 611 564 l 465 518 l 465 46 q 520 22 493 33 q 574 -1 547 10 q 596 17 592 6 q 600 43 600 28 q 599 130 599 86 q 600 219 600 174 q 692 269 650 238 q 769 340 733 300 q 769 288 769 329 q 770 199 769 247 q 771 107 771 151 q 771 44 771 63 q 696 15 731 38 q 632 -40 661 -8 q 580 -107 603 -71 q 538 -176 557 -143 q 501 -166 518 -172 q 465 -153 485 -160 l 465 -231 q 500 -244 482 -233 q 529 -276 518 -256 q 499 -314 513 -289 q 488 -369 486 -339 q 375 -331 436 -331 q 247 -378 304 -331 q 260 -328 247 -354 q 297 -281 272 -303 q 356 -244 321 -260 q 436 -226 392 -229 l 436 -68 q 383 -124 411 -94 q 328 -182 356 -153 q 257 -106 292 -143 q 186 -31 222 -69 q 221 29 214 -3 q 228 96 228 61 q 227 241 228 158 q 226 411 226 324 q 226 584 226 499 q 226 738 226 669 q 226 849 226 806 q 226 897 226 893 q 113 953 163 915 q 43 1053 63 990 q 34 1127 32 1089 q 56 1204 36 1165 m 94 1217 q 124 1286 94 1256 q 203 1317 154 1317 q 281 1285 249 1317 q 311 1210 313 1254 q 278 1134 311 1165 q 201 1103 246 1103 q 125 1138 157 1104 q 94 1217 93 1171 m 463 1599 l 575 1375 l 467 1375 l 294 1599 l 463 1599 m 407 794 q 406 788 406 792 q 406 729 406 785 q 406 591 406 674 q 406 413 406 508 q 407 235 407 318 q 407 97 407 153 q 407 38 407 40 q 421 15 407 15 q 435 39 435 15 q 435 119 435 58 q 435 262 435 181 q 434 433 435 343 q 433 600 433 524 q 433 728 433 676 q 433 786 433 781 q 419 801 433 801 q 407 794 411 801 m 292 976 q 292 909 292 972 q 291 752 292 846 q 290 549 290 658 q 290 342 290 439 q 289 176 289 246 q 289 92 289 106 q 299 79 289 79 q 308 92 308 79 q 309 542 308 315 q 310 993 310 769 q 303 1000 310 1001 q 283 998 293 999 q 264 997 274 997 q 92 1065 167 997 q 178 995 126 1013 q 292 976 229 978 m 6 1125 q 61 969 14 1033 q 203 885 108 906 q 203 549 204 711 q 201 213 201 386 q 193 201 201 201 q 185 213 185 201 q 185 297 185 244 q 185 413 185 350 q 184 542 185 476 q 183 667 183 608 q 183 769 183 725 q 183 833 183 814 q 184 849 185 840 q 182 865 183 857 q 76 925 121 888 q 8 1025 32 963 q -3 1074 -1 1049 q 6 1125 -6 1099 m 407 1161 l 407 919 q 421 904 407 904 q 435 919 435 904 l 435 1160 q 430 1171 435 1167 q 419 1175 425 1175 q 407 1161 407 1175 m 418 878 q 394 853 394 878 q 401 836 394 843 q 418 829 408 829 q 435 836 429 829 q 442 853 442 843 q 418 878 442 878 m 144 1164 q 145 1237 133 1207 q 189 1282 157 1267 q 151 1273 168 1282 q 125 1244 133 1264 q 123 1202 118 1226 q 144 1164 128 1178 m 189 71 q 213 54 208 71 q 196 32 215 35 q 172 49 178 32 q 176 63 171 56 q 189 71 181 69 m 174 169 q 192 181 178 181 q 200 179 197 181 q 211 154 218 171 q 193 142 207 142 q 185 143 188 142 q 174 169 167 151 m 172 107 q 192 126 172 126 q 211 107 211 126 q 192 86 211 86 q 172 107 172 86 z "},"":{"ha":829,"x_min":-6,"x_max":817,"o":"m 56 1204 q 120 1106 86 1136 q 200 1076 154 1076 q 265 1089 239 1076 q 307 1124 290 1101 q 333 1176 324 1146 q 347 1240 342 1206 q 364 1249 347 1249 l 371 1249 l 689 1249 q 772 1171 764 1244 q 776 1101 776 1135 q 775 1031 775 1067 q 752 1013 764 1021 q 736 989 740 1004 q 772 993 760 993 q 817 947 810 993 q 765 926 786 944 q 724 889 743 908 q 693 860 708 874 q 663 831 678 846 q 611 810 635 810 q 569 822 593 810 q 585 844 578 833 q 596 868 593 854 q 599 895 599 882 q 600 922 600 908 q 599 1028 600 975 q 599 1135 599 1082 q 588 1165 599 1158 q 558 1172 576 1172 l 465 1172 l 465 696 l 658 696 q 626 607 642 650 q 594 518 611 564 l 465 518 l 465 46 q 520 22 493 33 q 574 -1 547 10 q 596 17 592 6 q 600 43 600 28 q 599 130 599 86 q 600 219 600 174 q 692 269 650 238 q 769 340 733 300 q 769 288 769 329 q 770 199 769 247 q 771 107 771 151 q 771 44 771 63 q 696 15 731 38 q 632 -40 661 -8 q 580 -107 603 -71 q 538 -176 557 -143 q 501 -166 518 -172 q 465 -153 485 -160 l 465 -231 q 500 -244 482 -233 q 529 -276 518 -256 q 499 -314 513 -289 q 488 -369 486 -339 q 375 -331 436 -331 q 247 -378 304 -331 q 260 -328 247 -354 q 297 -281 272 -303 q 356 -244 321 -260 q 436 -226 392 -229 l 436 -68 q 383 -124 411 -94 q 328 -182 356 -153 q 257 -106 292 -143 q 186 -31 222 -69 q 221 29 214 -3 q 228 96 228 61 q 227 241 228 158 q 226 411 226 324 q 226 584 226 499 q 226 738 226 669 q 226 849 226 806 q 226 897 226 893 q 113 953 163 915 q 43 1053 63 990 q 34 1127 32 1089 q 56 1204 36 1165 m 94 1217 q 124 1286 94 1256 q 203 1317 154 1317 q 281 1285 249 1317 q 311 1210 313 1254 q 278 1134 311 1165 q 201 1103 246 1103 q 125 1138 157 1104 q 94 1217 93 1171 m 556 1599 l 724 1599 l 553 1375 l 444 1375 l 556 1599 m 407 794 q 406 788 406 792 q 406 729 406 785 q 406 591 406 674 q 406 413 406 508 q 407 235 407 318 q 407 97 407 153 q 407 38 407 40 q 421 15 407 15 q 435 39 435 15 q 435 119 435 58 q 435 262 435 181 q 434 433 435 343 q 433 600 433 524 q 433 728 433 676 q 433 786 433 781 q 419 801 433 801 q 407 794 411 801 m 292 976 q 292 909 292 972 q 291 752 292 846 q 290 549 290 658 q 290 342 290 439 q 289 176 289 246 q 289 92 289 106 q 299 79 289 79 q 308 92 308 79 q 309 542 308 315 q 310 993 310 769 q 303 1000 310 1001 q 283 998 293 999 q 264 997 274 997 q 92 1065 167 997 q 178 995 126 1013 q 292 976 229 978 m 6 1125 q 61 969 14 1033 q 203 885 108 906 q 203 549 204 711 q 201 213 201 386 q 193 201 201 201 q 185 213 185 201 q 185 297 185 244 q 185 413 185 350 q 184 542 185 476 q 183 667 183 608 q 183 769 183 725 q 183 833 183 814 q 184 849 185 840 q 182 865 183 857 q 76 925 121 888 q 8 1025 32 963 q -3 1074 -1 1049 q 6 1125 -6 1099 m 407 919 q 421 904 407 904 q 435 919 435 904 l 435 1160 q 430 1171 435 1167 q 419 1175 425 1175 q 407 1161 407 1175 l 407 919 m 418 878 q 394 853 394 878 q 401 836 394 843 q 418 829 408 829 q 435 836 429 829 q 442 853 442 843 q 418 878 442 878 m 144 1164 q 145 1237 133 1207 q 189 1282 157 1267 q 151 1273 168 1282 q 125 1244 133 1264 q 123 1202 118 1226 q 144 1164 128 1178 m 189 71 q 213 54 208 71 q 196 32 215 35 q 172 49 178 32 q 176 63 171 56 q 189 71 181 69 m 174 169 q 192 181 178 181 q 200 179 197 181 q 211 154 218 171 q 193 142 207 142 q 185 143 188 142 q 174 169 167 151 m 172 107 q 192 126 172 126 q 211 107 211 126 q 192 86 211 86 q 172 107 172 86 z "},"":{"ha":829,"x_min":-6,"x_max":817,"o":"m 56 1204 q 120 1106 86 1136 q 200 1076 154 1076 q 265 1089 239 1076 q 307 1124 290 1101 q 333 1176 324 1146 q 347 1240 342 1206 q 364 1249 347 1249 l 371 1249 l 689 1249 q 772 1171 764 1244 q 776 1101 776 1135 q 775 1031 775 1067 q 752 1013 764 1021 q 736 989 740 1004 q 772 993 760 993 q 817 947 810 993 q 765 926 786 944 q 724 889 743 908 q 693 860 708 874 q 663 831 678 846 q 611 810 635 810 q 569 822 593 810 q 585 844 578 833 q 596 868 593 854 q 599 895 599 882 q 600 922 600 908 q 599 1028 600 975 q 599 1135 599 1082 q 588 1165 599 1158 q 558 1172 576 1172 l 465 1172 l 465 696 l 658 696 q 626 607 642 650 q 594 518 611 564 l 465 518 l 465 46 q 520 22 493 33 q 574 -1 547 10 q 596 17 592 6 q 600 43 600 28 q 599 130 599 86 q 600 219 600 174 q 692 269 650 238 q 769 340 733 300 q 769 288 769 329 q 770 199 769 247 q 771 107 771 151 q 771 44 771 63 q 696 15 731 38 q 632 -40 661 -8 q 580 -107 603 -71 q 538 -176 557 -143 q 501 -166 518 -172 q 465 -153 485 -160 l 465 -231 q 500 -244 482 -233 q 529 -276 518 -256 q 499 -314 513 -289 q 488 -369 486 -339 q 375 -331 436 -331 q 247 -378 304 -331 q 260 -328 247 -354 q 297 -281 272 -303 q 356 -244 321 -260 q 436 -226 392 -229 l 436 -68 q 383 -124 411 -94 q 328 -182 356 -153 q 257 -106 292 -143 q 186 -31 222 -69 q 221 29 214 -3 q 228 96 228 61 q 227 241 228 158 q 226 411 226 324 q 226 584 226 499 q 226 738 226 669 q 226 849 226 806 q 226 897 226 893 q 113 953 163 915 q 43 1053 63 990 q 34 1127 32 1089 q 56 1204 36 1165 m 301 1375 l 413 1599 l 600 1599 l 713 1375 l 604 1375 l 507 1503 l 408 1375 l 301 1375 m 94 1217 q 124 1286 94 1256 q 203 1317 154 1317 q 281 1285 249 1317 q 311 1210 313 1254 q 278 1134 311 1165 q 201 1103 246 1103 q 125 1138 157 1104 q 94 1217 93 1171 m 407 38 q 421 15 407 15 q 435 39 435 15 q 435 119 435 58 q 435 262 435 181 q 434 433 435 343 q 433 600 433 524 q 433 728 433 676 q 433 786 433 781 q 419 801 433 801 q 407 794 411 801 q 406 788 406 792 q 406 729 406 785 q 406 591 406 674 q 406 413 406 508 q 407 235 407 318 q 407 97 407 153 q 407 38 407 40 m 292 976 q 292 909 292 972 q 291 752 292 846 q 290 549 290 658 q 290 342 290 439 q 289 176 289 246 q 289 92 289 106 q 299 79 289 79 q 308 92 308 79 q 309 542 308 315 q 310 993 310 769 q 303 1000 310 1001 q 283 998 293 999 q 264 997 274 997 q 92 1065 167 997 q 178 995 126 1013 q 292 976 229 978 m 6 1125 q 61 969 14 1033 q 203 885 108 906 q 203 549 204 711 q 201 213 201 386 q 193 201 201 201 q 185 213 185 201 q 185 297 185 244 q 185 413 185 350 q 184 542 185 476 q 183 667 183 608 q 183 769 183 725 q 183 833 183 814 q 184 849 185 840 q 182 865 183 857 q 76 925 121 888 q 8 1025 32 963 q -3 1074 -1 1049 q 6 1125 -6 1099 m 435 919 l 435 1160 q 430 1171 435 1167 q 419 1175 425 1175 q 407 1161 407 1175 l 407 919 q 421 904 407 904 q 435 919 435 904 m 418 878 q 394 853 394 878 q 401 836 394 843 q 418 829 408 829 q 435 836 429 829 q 442 853 442 843 q 418 878 442 878 m 144 1164 q 145 1237 133 1207 q 189 1282 157 1267 q 151 1273 168 1282 q 125 1244 133 1264 q 123 1202 118 1226 q 144 1164 128 1178 m 172 51 q 178 65 172 60 q 192 71 185 71 q 213 51 213 71 q 192 31 213 31 q 178 37 185 31 q 172 51 172 43 m 172 107 q 192 126 172 126 q 211 107 211 126 q 192 86 211 86 q 172 107 172 86 m 172 161 q 178 175 172 169 q 192 181 185 181 q 213 161 213 181 q 192 142 213 142 q 178 147 185 142 q 172 161 172 153 z "},"":{"ha":828,"x_min":-7,"x_max":815,"o":"m 54 1247 q 119 1149 85 1179 q 199 1119 153 1119 q 263 1132 238 1119 q 306 1167 289 1144 q 331 1219 322 1189 q 346 1283 340 1249 q 363 1292 346 1292 l 369 1292 l 688 1292 q 771 1214 763 1288 q 774 1144 775 1178 q 774 1074 774 1110 q 751 1056 763 1064 q 735 1032 739 1047 q 771 1036 758 1036 q 815 990 808 1036 q 763 969 785 988 q 722 932 742 951 q 692 903 707 917 q 661 874 676 889 q 610 853 633 853 q 568 865 592 853 q 584 887 576 876 q 594 911 592 897 q 598 938 597 925 q 599 965 599 951 q 598 1072 599 1018 q 597 1178 597 1125 q 586 1208 597 1201 q 557 1215 575 1215 l 464 1215 l 464 739 l 657 739 q 625 650 640 693 q 593 561 610 607 l 464 561 l 464 89 q 519 65 492 76 q 572 42 546 53 q 594 60 590 49 q 599 86 599 71 q 598 173 597 129 q 599 263 599 217 q 690 312 649 281 q 768 383 732 343 q 768 331 768 372 q 769 242 768 290 q 769 150 769 194 q 769 88 769 106 q 694 58 729 81 q 631 3 660 35 q 578 -64 601 -28 q 536 -133 556 -100 q 500 -123 517 -129 q 464 -110 483 -117 l 464 -187 q 499 -201 481 -190 q 528 -233 517 -212 q 498 -271 511 -246 q 486 -326 485 -296 q 374 -287 435 -287 q 246 -335 303 -287 q 258 -285 246 -311 q 295 -238 271 -260 q 355 -201 319 -217 q 435 -183 390 -186 l 435 -25 q 382 -81 410 -51 q 326 -139 354 -110 q 256 -63 290 -100 q 185 13 221 -26 q 219 72 213 40 q 226 139 226 104 q 226 284 226 201 q 225 454 225 367 q 225 627 225 542 q 225 781 225 713 q 225 892 225 849 q 225 940 225 936 q 111 996 161 958 q 42 1096 61 1033 q 33 1170 31 1132 q 54 1247 35 1208 m 93 1260 q 123 1329 93 1299 q 201 1360 153 1360 q 279 1328 247 1360 q 310 1253 311 1297 q 277 1177 310 1208 q 200 1146 244 1146 q 124 1181 156 1147 q 93 1260 92 1214 m 506 1508 q 533 1574 506 1547 q 600 1601 560 1601 q 666 1574 639 1601 q 693 1508 693 1547 q 666 1441 693 1468 q 600 1414 639 1414 q 533 1441 560 1414 q 506 1508 506 1468 m 282 1508 q 309 1574 282 1547 q 375 1601 336 1601 q 441 1574 414 1601 q 468 1508 468 1547 q 441 1441 468 1468 q 375 1414 414 1414 q 309 1441 336 1414 q 282 1508 282 1468 m 406 838 q 404 831 404 835 q 404 772 404 828 q 404 634 404 717 q 405 456 404 551 q 406 278 406 361 q 406 140 406 196 q 406 81 406 83 q 419 58 406 58 q 433 82 433 58 q 433 163 433 101 q 433 305 433 224 q 433 476 433 386 q 432 643 432 567 q 432 772 432 719 q 432 829 432 824 q 418 844 432 844 q 406 838 410 844 m 90 1108 q 176 1038 125 1056 q 290 1019 228 1021 q 290 952 290 1015 q 290 795 290 889 q 289 592 289 701 q 288 385 289 482 q 288 219 288 289 q 288 135 288 149 q 297 122 288 122 q 307 135 307 122 q 308 585 307 358 q 308 1036 308 813 q 301 1043 308 1044 q 282 1041 292 1042 q 263 1040 272 1040 q 90 1108 165 1040 m 4 1168 q 60 1013 13 1076 q 201 928 107 949 q 201 592 203 754 q 200 256 200 429 q 192 244 200 244 q 183 256 183 244 q 183 340 183 288 q 183 456 183 393 q 183 585 183 519 q 182 710 182 651 q 182 813 182 768 q 182 876 182 857 q 183 892 183 883 q 181 908 182 900 q 75 968 119 931 q 7 1068 31 1006 q -5 1117 -3 1092 q 4 1168 -7 1142 m 406 963 q 419 947 406 947 q 433 963 433 947 l 433 1203 q 428 1214 433 1210 q 418 1218 424 1218 q 406 1204 406 1218 l 406 963 m 417 921 q 393 896 393 921 q 400 879 393 886 q 417 872 407 872 q 434 879 428 872 q 440 896 440 886 q 417 921 440 921 m 143 1207 q 144 1280 132 1250 q 188 1325 156 1310 q 149 1316 167 1325 q 124 1288 132 1307 q 122 1245 117 1269 q 143 1207 126 1221 m 188 114 q 211 97 207 114 q 194 75 214 78 q 171 92 176 75 q 174 106 169 99 q 188 114 179 113 m 172 213 q 190 224 176 224 q 199 222 196 224 q 210 197 217 214 q 192 185 206 185 q 183 186 186 185 q 172 213 165 194 m 171 150 q 190 169 171 169 q 210 150 210 169 q 190 129 210 129 q 171 150 171 129 z "},"":{"ha":524,"x_min":-6,"x_max":529,"o":"m 56 1203 q 120 1105 86 1135 q 200 1075 154 1075 q 265 1088 239 1075 q 307 1122 290 1100 q 333 1174 324 1144 q 347 1239 342 1204 q 364 1247 347 1247 l 371 1247 l 465 1247 l 465 -232 q 500 -246 482 -235 q 529 -278 518 -257 q 499 -315 513 -290 q 488 -369 486 -339 q 375 -332 436 -332 q 247 -378 306 -332 q 260 -328 247 -354 q 297 -282 272 -303 q 356 -246 321 -261 q 436 -228 392 -231 l 436 -69 q 383 -125 411 -96 q 328 -182 356 -154 q 257 -107 292 -144 q 186 -32 222 -69 q 221 28 214 -4 q 228 94 228 60 q 227 240 228 157 q 226 410 226 322 q 226 583 226 497 q 226 736 226 668 q 226 848 226 804 q 226 896 226 892 q 113 951 163 914 q 43 1051 63 989 q 34 1126 32 1088 q 56 1203 36 1164 m 94 1215 q 124 1285 94 1256 q 203 1315 154 1315 q 281 1284 249 1315 q 311 1208 313 1253 q 278 1133 311 1164 q 201 1101 246 1101 q 125 1136 157 1103 q 94 1215 93 1169 m 83 1599 l 251 1599 l 363 1375 l 254 1375 l 83 1599 m 407 793 q 406 786 406 792 q 406 728 406 783 q 406 590 406 672 q 406 412 406 507 q 407 234 407 317 q 407 95 407 151 q 407 36 407 39 q 421 14 407 14 q 435 38 435 14 q 435 118 435 57 q 435 260 435 179 q 434 432 435 342 q 433 599 433 522 q 433 727 433 675 q 433 785 433 779 q 419 801 433 801 q 407 793 411 801 m 92 1064 q 178 994 126 1011 q 292 975 229 976 q 292 908 292 971 q 291 751 292 844 q 290 547 290 657 q 290 341 290 438 q 289 174 289 244 q 289 90 289 104 q 299 78 289 78 q 308 90 308 78 q 309 542 308 315 q 310 992 310 768 q 303 999 310 1000 q 283 997 293 997 q 264 996 274 996 q 92 1064 167 996 m 6 1124 q 61 968 14 1032 q 203 883 108 904 q 203 547 204 710 q 201 211 201 385 q 193 200 201 200 q 185 211 185 200 q 185 297 185 243 q 185 413 185 350 q 184 542 185 475 q 183 667 183 608 q 183 769 183 725 q 183 832 183 814 q 184 848 185 840 q 182 864 183 856 q 76 924 121 886 q 8 1024 32 963 q -3 1073 -1 1047 q 6 1124 -6 1099 m 407 1160 l 407 918 q 421 903 407 903 q 435 918 435 903 l 435 1158 q 430 1169 435 1165 q 419 1174 425 1174 q 407 1160 407 1174 m 394 853 q 418 828 394 828 q 442 853 442 828 q 435 869 442 863 q 418 876 429 876 q 401 869 408 876 q 394 853 394 863 m 144 1163 q 145 1236 133 1206 q 189 1282 157 1267 q 151 1272 169 1282 q 125 1243 133 1263 q 123 1201 118 1225 q 144 1163 128 1176 m 192 125 q 211 106 211 125 q 192 85 211 85 q 172 106 172 85 q 192 125 172 125 m 192 179 q 213 160 213 179 q 192 140 213 140 q 178 146 185 140 q 172 160 172 151 q 178 174 172 168 q 192 179 185 179 m 172 50 q 178 64 172 58 q 192 69 185 69 q 213 50 213 69 q 192 31 213 31 q 178 36 185 31 q 172 50 172 42 z "},"":{"ha":524,"x_min":-6,"x_max":529,"o":"m 56 1203 q 120 1105 86 1135 q 200 1075 154 1075 q 265 1088 239 1075 q 307 1122 290 1100 q 333 1174 324 1144 q 347 1239 342 1204 q 364 1247 347 1247 l 371 1247 l 465 1247 l 465 -232 q 500 -246 482 -235 q 529 -278 518 -257 q 499 -315 513 -290 q 488 -369 486 -339 q 375 -332 436 -332 q 247 -378 306 -332 q 260 -328 247 -354 q 297 -282 272 -303 q 356 -246 321 -261 q 436 -228 392 -231 l 436 -69 q 383 -125 411 -96 q 328 -182 356 -154 q 257 -107 292 -144 q 186 -32 222 -69 q 221 28 214 -4 q 228 94 228 60 q 227 240 228 157 q 226 410 226 322 q 226 583 226 497 q 226 736 226 668 q 226 848 226 804 q 226 896 226 892 q 113 951 163 914 q 43 1051 63 989 q 34 1126 32 1088 q 56 1203 36 1164 m 94 1215 q 124 1285 94 1256 q 203 1315 154 1315 q 281 1284 249 1315 q 311 1208 313 1253 q 278 1133 311 1164 q 201 1101 246 1101 q 125 1136 157 1103 q 94 1215 93 1169 m 235 1375 l 346 1599 l 514 1599 l 342 1375 l 235 1375 m 407 793 q 406 786 406 792 q 406 728 406 783 q 406 590 406 672 q 406 412 406 507 q 407 234 407 317 q 407 95 407 151 q 407 36 407 39 q 421 14 407 14 q 435 38 435 14 q 435 118 435 57 q 435 260 435 179 q 434 432 435 342 q 433 599 433 522 q 433 727 433 675 q 433 785 433 779 q 419 801 433 801 q 407 793 411 801 m 292 975 q 292 908 292 971 q 291 751 292 844 q 290 547 290 657 q 290 341 290 438 q 289 174 289 244 q 289 90 289 104 q 299 78 289 78 q 308 90 308 78 q 309 542 308 315 q 310 992 310 768 q 303 999 310 1000 q 283 997 293 997 q 264 996 274 996 q 92 1064 167 996 q 178 994 126 1011 q 292 975 229 976 m 6 1124 q 61 968 14 1032 q 203 883 108 904 q 203 547 204 710 q 201 211 201 385 q 193 200 201 200 q 185 211 185 200 q 185 297 185 243 q 185 413 185 350 q 184 542 185 475 q 183 667 183 608 q 183 769 183 725 q 183 832 183 814 q 184 848 185 840 q 182 864 183 856 q 76 924 121 886 q 8 1024 32 963 q -3 1073 -1 1047 q 6 1124 -6 1099 m 407 918 q 421 903 407 903 q 435 918 435 903 l 435 1158 q 430 1169 435 1165 q 419 1174 425 1174 q 407 1160 407 1174 l 407 918 m 394 853 q 418 828 394 828 q 442 853 442 828 q 435 869 442 863 q 418 876 429 876 q 401 869 408 876 q 394 853 394 863 m 144 1163 q 145 1236 133 1206 q 189 1282 157 1267 q 151 1272 169 1282 q 125 1243 133 1263 q 123 1201 118 1225 q 144 1163 128 1176 m 172 106 q 192 125 172 125 q 211 106 211 125 q 192 85 211 85 q 172 106 172 85 m 192 179 q 213 160 213 179 q 192 140 213 140 q 178 146 185 140 q 172 160 172 151 q 178 174 172 168 q 192 179 185 179 m 172 50 q 178 64 172 58 q 192 69 185 69 q 213 50 213 69 q 192 31 213 31 q 178 36 185 31 q 172 50 172 42 z "},"":{"ha":528,"x_min":-6,"x_max":529,"o":"m 56 1203 q 120 1105 86 1135 q 200 1075 154 1075 q 265 1088 239 1075 q 307 1122 290 1100 q 333 1174 324 1144 q 347 1239 342 1204 q 364 1247 347 1247 l 371 1247 l 465 1247 l 465 -232 q 500 -246 482 -235 q 529 -278 518 -257 q 499 -315 513 -290 q 488 -369 486 -339 q 375 -332 436 -332 q 247 -378 306 -332 q 260 -328 247 -354 q 297 -282 272 -303 q 356 -246 321 -261 q 436 -228 392 -231 l 436 -69 q 383 -125 411 -96 q 328 -182 356 -154 q 257 -107 292 -144 q 186 -32 222 -69 q 221 28 214 -4 q 228 94 228 60 q 227 240 228 157 q 226 410 226 322 q 226 583 226 497 q 226 736 226 668 q 226 848 226 804 q 226 896 226 892 q 113 951 163 914 q 43 1051 63 989 q 34 1126 32 1088 q 56 1203 36 1164 m 186 1599 l 372 1599 l 485 1375 l 376 1375 l 279 1503 l 182 1375 l 74 1375 l 186 1599 m 94 1215 q 124 1285 94 1256 q 203 1315 154 1315 q 281 1284 249 1315 q 311 1208 313 1253 q 278 1133 311 1164 q 201 1101 246 1101 q 125 1136 157 1103 q 94 1215 93 1169 m 407 793 q 406 786 406 792 q 406 728 406 783 q 406 590 406 672 q 406 412 406 507 q 407 234 407 317 q 407 95 407 151 q 407 36 407 39 q 421 14 407 14 q 435 38 435 14 q 435 118 435 57 q 435 260 435 179 q 434 432 435 342 q 433 599 433 522 q 433 727 433 675 q 433 785 433 779 q 419 801 433 801 q 407 793 411 801 m 292 975 q 292 908 292 971 q 291 751 292 844 q 290 547 290 657 q 290 341 290 438 q 289 174 289 244 q 289 90 289 104 q 299 78 289 78 q 308 90 308 78 q 309 542 308 315 q 310 992 310 768 q 303 999 310 1000 q 283 997 293 997 q 264 996 274 996 q 92 1064 167 996 q 178 994 126 1011 q 292 975 229 976 m 6 1124 q 61 968 14 1032 q 203 883 108 904 q 203 547 204 710 q 201 211 201 385 q 193 200 201 200 q 185 211 185 200 q 185 297 185 243 q 185 413 185 350 q 184 542 185 475 q 183 667 183 608 q 183 769 183 725 q 183 832 183 814 q 184 848 185 840 q 182 864 183 856 q 76 924 121 886 q 8 1024 32 963 q -3 1073 -1 1047 q 6 1124 -6 1099 m 435 918 l 435 1158 q 430 1169 435 1165 q 419 1174 425 1174 q 407 1160 407 1174 l 407 918 q 421 903 407 903 q 435 918 435 903 m 394 853 q 418 828 394 828 q 442 853 442 828 q 435 869 442 863 q 418 876 429 876 q 401 869 408 876 q 394 853 394 863 m 144 1163 q 145 1236 133 1206 q 189 1282 157 1267 q 151 1272 169 1282 q 125 1243 133 1263 q 123 1201 118 1225 q 144 1163 128 1176 m 192 125 q 211 106 211 125 q 192 85 211 85 q 172 106 172 85 q 192 125 172 125 m 192 179 q 213 160 213 179 q 192 140 213 140 q 178 146 185 140 q 172 160 172 151 q 178 174 172 168 q 192 179 185 179 m 192 69 q 213 50 213 69 q 192 31 213 31 q 178 36 185 31 q 172 50 172 42 q 178 64 172 58 q 192 69 185 69 z "},"":{"ha":524,"x_min":-7,"x_max":528,"o":"m 54 1246 q 119 1148 85 1178 q 199 1118 153 1118 q 263 1131 238 1118 q 306 1165 289 1143 q 331 1217 322 1188 q 346 1282 340 1247 q 363 1290 346 1290 l 369 1290 l 464 1290 l 464 -189 q 499 -203 481 -192 q 528 -235 517 -214 q 498 -272 511 -247 q 486 -326 485 -296 q 374 -289 435 -289 q 246 -335 304 -289 q 258 -285 246 -311 q 295 -239 271 -260 q 355 -203 319 -218 q 435 -185 390 -187 l 435 -26 q 382 -82 410 -53 q 326 -139 354 -111 q 256 -64 290 -101 q 185 11 221 -26 q 219 71 213 39 q 226 138 226 103 q 226 283 226 200 q 225 453 225 365 q 225 626 225 540 q 225 779 225 711 q 225 891 225 847 q 225 939 225 935 q 111 994 161 957 q 42 1094 61 1032 q 33 1169 31 1131 q 54 1246 35 1207 m 93 1258 q 123 1328 93 1299 q 201 1358 153 1358 q 279 1327 247 1358 q 310 1251 311 1296 q 277 1176 310 1207 q 200 1144 244 1144 q 124 1179 156 1146 q 93 1258 92 1213 m 67 1508 q 94 1574 67 1547 q 161 1601 121 1601 q 227 1574 200 1601 q 254 1508 254 1547 q 227 1441 254 1468 q 161 1414 200 1414 q 94 1441 121 1414 q 67 1508 67 1468 m 349 1594 q 385 1601 369 1601 q 436 1586 413 1601 q 471 1543 460 1571 q 472 1472 486 1507 q 421 1422 457 1438 q 385 1415 406 1415 q 333 1430 357 1415 q 299 1472 310 1444 q 298 1544 283 1508 q 349 1594 313 1579 m 406 836 q 404 829 404 835 q 404 771 404 826 q 404 633 404 715 q 405 455 404 550 q 406 277 406 360 q 406 138 406 194 q 406 79 406 82 q 419 57 406 57 q 433 81 433 57 q 433 161 433 100 q 433 303 433 222 q 433 475 433 385 q 432 642 432 565 q 432 770 432 718 q 432 828 432 822 q 418 844 432 844 q 406 836 410 844 m 290 1018 q 290 951 290 1014 q 290 794 290 888 q 289 590 289 700 q 288 384 289 481 q 288 217 288 288 q 288 133 288 147 q 297 121 288 121 q 307 133 307 121 q 308 585 307 358 q 308 1035 308 811 q 301 1042 308 1043 q 282 1040 292 1040 q 263 1039 272 1039 q 90 1107 165 1039 q 176 1037 125 1054 q 290 1018 228 1019 m 4 1167 q 60 1011 13 1075 q 201 926 107 947 q 201 590 203 753 q 200 254 200 428 q 192 243 200 243 q 183 254 183 243 q 183 340 183 286 q 183 456 183 393 q 183 585 183 518 q 182 710 182 651 q 182 813 182 768 q 182 875 182 857 q 183 891 183 883 q 181 907 182 899 q 75 967 119 929 q 7 1067 31 1006 q -5 1116 -3 1090 q 4 1167 -7 1142 m 406 961 q 419 946 406 946 q 433 961 433 946 l 433 1201 q 428 1213 433 1208 q 418 1217 424 1217 q 406 1203 406 1217 l 406 961 m 393 896 q 417 871 393 871 q 440 896 440 871 q 434 913 440 906 q 417 919 428 919 q 400 913 407 919 q 393 896 393 906 m 143 1206 q 144 1279 132 1249 q 188 1325 156 1310 q 150 1315 168 1325 q 124 1286 132 1306 q 122 1244 117 1268 q 143 1206 126 1219 m 190 168 q 210 149 210 168 q 190 128 210 128 q 171 149 171 128 q 190 168 171 168 m 171 203 q 177 217 171 211 q 190 222 183 222 q 211 203 211 222 q 190 183 211 183 q 177 189 183 183 q 171 203 171 194 m 190 113 q 211 93 211 113 q 190 74 211 74 q 177 79 183 74 q 171 93 171 85 q 177 107 171 101 q 190 113 183 113 z "}}}
